<?xml version="1.0" encoding="utf-8"?>
<!-- Generator: Adobe Illustrator 27.0.0, SVG Export Plug-In . SVG Version: 6.00 Build 0)  -->
<svg version="1.1" id="Capa_1" xmlns="http://www.w3.org/2000/svg" xmlns:xlink="http://www.w3.org/1999/xlink" x="0px" y="0px"
	 viewBox="0 0 512 512" style="enable-background:new 0 0 512 512;" xml:space="preserve">
<style type="text/css">
	.st0{fill:#72151F;}
</style>
<g>
	<path class="st0" d="M222.9,388h51.5c4.4,0,8-3.6,8-8V264.1h26.8c4.1,0,7.5-3.1,8-7.2l4.5-43.8c0.2-2.3-0.5-4.5-2-6.2
		c-1.5-1.7-3.7-2.6-5.9-2.6h-31.3v-17.7c0-3.7,1.2-3.9,2.9-3.9H313c4.4,0,8-3.6,8-8v-42.5c0-4.4-3.6-8-8-8l-38.2-0.2
		c-26.8,0-41,11.8-48.3,21.6c-10.1,13.8-11.7,29.9-11.7,38.3v20.3h-16.5c-4.4,0-8,3.6-8,8v43.8c0,4.4,3.6,8,8,8h16.5V380
		C214.9,384.4,218.5,388,222.9,388z M206.4,248.1v-27.8h16.5c4.4,0,8-3.6,8-8V184c0-5.2,0.8-18.4,8.5-28.9
		c7.4-10,19.3-15.1,35.4-15.1l30.2,0.1v26.5h-19.7c-9.4,0-18.9,6.2-18.9,19.9v25.7c0,4.4,3.6,8,8,8h30.4l-2.9,27.8h-27.5
		c-4.4,0-8,3.6-8,8V372h-35.5V256.1c0-4.4-3.6-8-8-8L206.4,248.1L206.4,248.1z"/>
	<path class="st0" d="M437,75C388.7,26.6,324.4,0,256,0C187.6,0,123.3,26.6,75,75S0,187.6,0,256c0,68.4,26.6,132.7,75,181
		c48.4,48.3,112.6,75,181,75c68.4,0,132.7-26.6,181-75c48.4-48.3,75-112.6,75-181C512,187.6,485.4,123.3,437,75z M425.7,425.7
		C380.4,471,320.1,496,256,496c-64.1,0-124.4-25-169.7-70.3C41,380.4,16,320.1,16,256c0-64.1,25-124.4,70.3-169.7
		C131.6,41,191.9,16,256,16c64.1,0,124.4,25,169.7,70.3C471,131.6,496,191.9,496,256C496,320.1,471,380.4,425.7,425.7z"/>
	<path class="st0" d="M430,115c-2.8-3.4-7.8-4-11.3-1.2c-3.4,2.8-4,7.8-1.2,11.3c29.9,36.9,46.4,83.4,46.4,131
		c0,55.6-21.6,107.8-60.9,147.1C363.8,442.4,311.6,464,256,464c-51.3,0-100.5-18.8-138.7-53c-3.3-2.9-8.3-2.7-11.3,0.6
		s-2.7,8.4,0.6,11.3c41.1,36.8,94.1,57,149.3,57c59.8,0,116.1-23.3,158.4-65.6C456.7,372.1,480,315.8,480,256
		C480,204.8,462.3,154.7,430,115z"/>
	<path class="st0" d="M48,256c0-114.7,93.3-208,208-208c51.3,0,100.5,18.8,138.7,53c3.3,2.9,8.4,2.7,11.3-0.6
		c2.9-3.3,2.7-8.3-0.6-11.3C364.2,52.3,311.2,32,256,32c-59.8,0-116.1,23.3-158.4,65.6C55.3,139.9,32,196.2,32,256
		c0,51.2,17.7,101.3,50,141c1.6,1.9,3.9,3,6.2,3c1.8,0,3.6-0.6,5-1.8c3.4-2.8,4-7.8,1.2-11.3C64.5,350.1,48,303.6,48,256z"/>
</g>
</svg>
