<?xml version="1.0" encoding="utf-8"?>
<!-- Generator: Adobe Illustrator 27.0.0, SVG Export Plug-In . SVG Version: 6.00 Build 0)  -->
<svg version="1.1" id="Capa_1" xmlns="http://www.w3.org/2000/svg" xmlns:xlink="http://www.w3.org/1999/xlink" x="0px" y="0px"
	 viewBox="0 0 512 512" style="enable-background:new 0 0 512 512;" xml:space="preserve">
<style type="text/css">
	.st0{fill:#72151F;}
	.st1{fill:none;}
</style>
<g>
	<path class="st0" d="M437,75C388.7,26.6,324.4,0,256,0S123.3,26.6,75,75S0,187.6,0,256s26.6,132.7,75,181s112.6,75,181,75
		s132.7-26.6,181-75c48.4-48.3,75-112.6,75-181S485.4,123.3,437,75z M425.7,425.7C380.4,471,320.1,496,256,496s-124.4-25-169.7-70.3
		S16,320.1,16,256S41,131.6,86.3,86.3S191.9,16,256,16s124.4,25,169.7,70.3S496,191.9,496,256S471,380.4,425.7,425.7z"/>
	<path class="st0" d="M430,115c-2.8-3.4-7.8-4-11.3-1.2c-3.4,2.8-4,7.8-1.2,11.3c29.9,36.9,46.4,83.4,46.4,131
		c0,55.6-21.6,107.8-60.9,147.1S311.6,464,256,464c-51.3,0-100.5-18.8-138.7-53c-3.3-2.9-8.3-2.7-11.3,0.6s-2.7,8.4,0.6,11.3
		c41.1,36.8,94.1,57,149.3,57c59.8,0,116.1-23.3,158.4-65.6C456.7,372.1,480,315.8,480,256C480,204.8,462.3,154.7,430,115z"/>
	<path class="st0" d="M48,256c0-114.7,93.3-208,208-208c51.3,0,100.5,18.8,138.7,53c3.3,2.9,8.4,2.7,11.3-0.6
		c2.9-3.3,2.7-8.3-0.6-11.3C364.2,52.3,311.2,32,256,32c-59.8,0-116.1,23.3-158.4,65.6S32,196.2,32,256c0,51.2,17.7,101.3,50,141
		c1.6,1.9,3.9,3,6.2,3c1.8,0,3.6-0.6,5-1.8c3.4-2.8,4-7.8,1.2-11.3C64.5,350.1,48,303.6,48,256z"/>
</g>
<g>
	<polygon class="st1" points="360.5,195.2 264.6,122.7 168.7,195.2 168.7,354.2 360.5,354.2 	"/>
	<g>
		<path class="st1" d="M298.8,203.4c-16.4,0-30.2,11.2-34.2,26.3c-4-15.2-17.8-26.3-34.2-26.3c-19.5,0-35.4,15.8-35.4,35.4
			s21.6,37,35.4,50.9c17.2,17.2,34.2,32.8,34.2,32.8s17.9-16.5,34.2-32.8c13.8-13.8,35.4-31.3,35.4-50.9S318.4,203.4,298.8,203.4z"
			/>
		<g>
			<path class="st0" d="M137.5,212.1l-4.3,3.2c-2.3,1.8-2.8,5.1-1,7.5c1,1.4,2.6,2.1,4.2,2.1c1.1,0,2.2-0.4,3.2-1.1l4.3-3.2
				c2.3-1.8,2.8-5.1,1-7.5C143.2,210.8,139.8,210.4,137.5,212.1z"/>
			<path class="st0" d="M267.8,118.4c-1.9-1.4-4.5-1.4-6.4,0l-110.9,83.9c-2.3,1.8-2.8,5.1-1,7.5s5.1,2.8,7.5,1l6.5-4.9v148.4
				c0,2.9,2.4,5.3,5.3,5.3h191.8c2.9,0,5.3-2.4,5.3-5.3V205.9l23.8,18c1,0.7,2.1,1.1,3.2,1.1c1.6,0,3.2-0.7,4.2-2.1
				c1.8-2.3,1.3-5.7-1-7.5L267.8,118.4z M355.2,348.9H174.1V197.8l90.6-68.5l90.6,68.5V348.9L355.2,348.9z"/>
			<path class="st0" d="M262,142.8c-1.8,2.3-1.3,5.7,1,7.5l11.1,8.4c1,0.7,2.1,1.1,3.2,1.1c1.6,0,3.2-0.7,4.2-2.1
				c1.8-2.3,1.3-5.7-1-7.5l-11.1-8.4C267.1,140,263.8,140.4,262,142.8z"/>
			<path class="st0" d="M287.5,168.7l52.7,39.8c1,0.7,2.1,1.1,3.2,1.1c1.6,0,3.2-0.7,4.2-2.1c1.8-2.3,1.3-5.7-1-7.5l-52.7-39.8
				c-2.3-1.8-5.7-1.3-7.5,1C284.7,163.6,285.1,167,287.5,168.7z"/>
			<path class="st0" d="M298.8,198.1c-14.1,0-26.9,7.3-34.2,18.6c-7.3-11.4-20.1-18.6-34.2-18.6c-22.4,0-40.7,18.3-40.7,40.7
				c0,19,17,35.4,30.7,48.6c2.2,2.1,4.3,4.1,6.2,6c17.1,17.1,34.2,32.8,34.4,33c1,0.9,2.3,1.4,3.6,1.4c1.3,0,2.6-0.5,3.6-1.4
				c0.2-0.2,18.2-16.8,34.4-33c1.9-1.9,4-3.9,6.2-6c13.7-13.2,30.7-29.5,30.7-48.6C339.6,216.4,321.3,198.1,298.8,198.1z
				 M301.4,279.7c-2.2,2.2-4.4,4.2-6.4,6.2c-11.7,11.7-24.4,23.7-30.5,29.3c-5.9-5.5-18.2-17-30.4-29.3c-2-2-4.1-4-6.4-6.2
				c-12.2-11.8-27.5-26.4-27.5-40.9c0-16.6,13.5-30.1,30.1-30.1c13.6,0,25.6,9.2,29.1,22.4c0.6,2.3,2.7,4,5.1,4c2.4,0,4.5-1.6,5.1-4
				c3.5-13.2,15.4-22.4,29.1-22.4c16.6,0,30.1,13.5,30.1,30.1C328.9,253.3,313.7,268,301.4,279.7z"/>
			<path class="st0" d="M301.9,253.6l-5.1,5c-2.1,2.1-2.1,5.4-0.1,7.5c1,1.1,2.4,1.6,3.8,1.6c1.3,0,2.7-0.5,3.7-1.5l5.1-5
				c2.1-2.1,2.1-5.4,0.1-7.5C307.4,251.6,304,251.5,301.9,253.6z"/>
			<path class="st0" d="M283.7,271.6l-21.1,20.8c-2.1,2.1-2.1,5.4-0.1,7.5c1,1.1,2.4,1.6,3.8,1.6c1.3,0,2.7-0.5,3.7-1.5l21.1-20.8
				c2.1-2.1,2.1-5.4,0.1-7.5C289.1,269.5,285.8,269.5,283.7,271.6z"/>
		</g>
	</g>
</g>
</svg>
