<?xml version="1.0" encoding="utf-8"?>
<!-- Generator: Adobe Illustrator 27.0.0, SVG Export Plug-In . SVG Version: 6.00 Build 0)  -->
<svg version="1.1" id="Capa_1" xmlns="http://www.w3.org/2000/svg" xmlns:xlink="http://www.w3.org/1999/xlink" x="0px" y="0px"
	 viewBox="0 0 512 512" style="enable-background:new 0 0 512 512;" xml:space="preserve">
<style type="text/css">
	.st0{fill:#72151F;}
</style>
<g>
	<path class="st0" d="M437,75C388.7,26.6,324.4,0,256,0C187.6,0,123.3,26.6,75,75S0,187.6,0,256c0,68.4,26.6,132.7,75,181
		c48.4,48.3,112.6,75,181,75c68.4,0,132.7-26.6,181-75c48.4-48.3,75-112.6,75-181C512,187.6,485.4,123.3,437,75z M425.7,425.7
		C380.4,471,320.1,496,256,496c-64.1,0-124.4-25-169.7-70.3C41,380.4,16,320.1,16,256c0-64.1,25-124.4,70.3-169.7
		C131.6,41,191.9,16,256,16c64.1,0,124.4,25,169.7,70.3C471,131.6,496,191.9,496,256C496,320.1,471,380.4,425.7,425.7z"/>
	<path class="st0" d="M430,115c-2.8-3.4-7.8-4-11.3-1.2c-3.4,2.8-4,7.8-1.2,11.3c29.9,36.9,46.4,83.4,46.4,131
		c0,55.6-21.6,107.8-60.9,147.1S311.6,464,256,464c-51.3,0-100.5-18.8-138.7-53c-3.3-2.9-8.3-2.7-11.3,0.6s-2.7,8.4,0.6,11.3
		c41.1,36.8,94.1,57,149.3,57c59.8,0,116.1-23.3,158.4-65.6C456.7,372.1,480,315.8,480,256C480,204.8,462.3,154.7,430,115z"/>
	<path class="st0" d="M48,256c0-114.7,93.3-208,208-208c51.3,0,100.5,18.8,138.7,53c3.3,2.9,8.4,2.7,11.3-0.6
		c2.9-3.3,2.7-8.3-0.6-11.3C364.2,52.3,311.2,32,256,32c-59.8,0-116.1,23.3-158.4,65.6C55.3,139.9,32,196.2,32,256
		c0,51.2,17.7,101.3,50,141c1.6,1.9,3.9,3,6.2,3c1.8,0,3.6-0.6,5-1.8c3.4-2.8,4-7.8,1.2-11.3C64.5,350.1,48,303.6,48,256z"/>
	<path class="st0" d="M168,127.7c-22.1,0-40,17.9-40,40v176c0,22.1,17.9,40,40,40h176c22.1,0,40-17.9,40-40v-176
		c0-22.1-17.9-40-40-40C344,127.7,168,127.7,168,127.7z M344,367.7H168c-13.2,0-24-10.8-24-24v-120h47.5c-4.8,9.6-7.5,20.5-7.5,32
		c0,39.7,32.3,72,72,72s72-32.3,72-72c0-11.5-2.7-22.4-7.5-32H368v120C368,356.9,357.2,367.7,344,367.7z M312,255.7
		c0,30.9-25.1,56-56,56s-56-25.1-56-56s25.1-56,56-56S312,224.8,312,255.7z M368,167.7v40h-58.4c-13.2-14.7-32.3-24-53.6-24
		s-40.4,9.3-53.6,24H144v-40c0-10.4,6.7-19.3,16-22.6v46.6c0,4.4,3.6,8,8,8s8-3.6,8-8v-48h8v48c0,4.4,3.6,8,8,8s8-3.6,8-8v-48h144
		C357.2,143.7,368,154.4,368,167.7z"/>
	<path class="st0" d="M256,215.7c-4.4,0-8,3.6-8,8s3.6,8,8,8c13.2,0,24,10.8,24,24c0,4.4,3.6,8,8,8s8-3.6,8-8
		C296,233.6,278.1,215.7,256,215.7z"/>
	<path class="st0" d="M312,159.7v32c0,4.4,3.6,8,8,8h32c4.4,0,8-3.6,8-8v-32c0-4.4-3.6-8-8-8h-32C315.6,151.7,312,155.2,312,159.7z
		 M328,167.7h16v16h-16V167.7z"/>
</g>
</svg>
