<?xml version="1.0" encoding="utf-8"?>
<!-- Generator: Adobe Illustrator 27.0.0, SVG Export Plug-In . SVG Version: 6.00 Build 0)  -->
<svg version="1.1" id="Layer_1" xmlns="http://www.w3.org/2000/svg" xmlns:xlink="http://www.w3.org/1999/xlink" x="0px" y="0px"
	 viewBox="0 0 1280 1024" style="enable-background:new 0 0 1280 1024;" xml:space="preserve">
<style type="text/css">
	.st0{opacity:0.81;}
	.st1{opacity:0.7;}
	.st2{fill:#72151F;stroke:#72151F;stroke-miterlimit:10;}
	.st3{fill:none;stroke:#72151F;stroke-miterlimit:10;}
	.st4{fill:#CCA64F;stroke:#72151F;stroke-miterlimit:10;}
	.st5{enable-background:new    ;}
	.st6{fill:#72151F;}
</style>
<g class="st0">
	<g>
		<g>
			<g>
				<g class="st1">
					<g>
						<g>
							<path class="st2" d="M971.7,503c0,0-0.1,1.7-0.2,5.1c-0.1,1.7-0.2,3.8-0.2,6.3c-0.1,2.5-0.2,5.5-0.5,8.8s-0.6,7-1,11.2
								c-0.1,2.1-0.5,4.2-0.8,6.4s-0.6,4.6-1,7c-0.2,1.2-0.3,2.5-0.5,3.7c-0.1,0.6-0.2,1.3-0.3,1.9c-0.1,0.6-0.2,1.3-0.3,1.9
								c-0.5,2.6-1,5.3-1.5,8.1c-0.3,1.4-0.5,2.8-0.8,4.2c-0.1,0.7-0.3,1.4-0.4,2.2c-0.2,0.7-0.3,1.5-0.5,2.2
								c-0.7,2.9-1.4,6-2.1,9.1c0,0-0.3,1.3-1,4s-1.9,6.5-3.4,11.7c-1.4,5.2-3.8,11.5-6.4,19.1c-0.6,1.9-1.5,3.8-2.3,5.8
								s-1.7,4.1-2.5,6.2c-0.4,1.1-0.9,2.2-1.3,3.3c-0.2,0.6-0.5,1.1-0.7,1.7c-0.3,0.5-0.5,1.1-0.8,1.7c-1,2.2-2.1,4.6-3.2,7
								c-0.5,1.2-1.1,2.4-1.7,3.6c-0.6,1.2-1.1,2.5-1.8,3.7c-1.3,2.5-2.6,5-4,7.6c-2.6,5.3-5.9,10.6-9.1,16.2
								c-0.8,1.4-1.6,2.8-2.5,4.2s-1.8,2.8-2.8,4.2c-1.9,2.8-3.7,5.8-5.7,8.7c-2.1,2.9-4.2,5.8-6.4,8.8c-1.1,1.5-2.1,3-3.3,4.5
								s-2.4,3-3.6,4.5c-1.2,1.5-2.4,3-3.6,4.6c-0.6,0.8-1.2,1.5-1.8,2.3s-1.3,1.5-2,2.3c-2.6,3-5.3,6.1-8.1,9.2
								c-0.7,0.8-1.4,1.5-2.1,2.3c-0.7,0.8-1.5,1.5-2.2,2.3c-1.5,1.5-2.9,3-4.4,4.6c-0.8,0.8-1.5,1.5-2.2,2.3l-1.1,1.2l-1.2,1.1
								c-1.6,1.5-3.2,3-4.8,4.5c-12.9,12.1-27.6,24.1-44.3,35.2c-16.7,11.1-35.3,21.3-55.8,29.9c-20.5,8.6-42.9,15.5-66.8,20
								c-23.9,4.5-49.4,6.5-75.8,5.5c-1.7-0.1-3.3-0.1-5-0.2c-1.7-0.1-3.3-0.3-5-0.4c-3.3-0.3-6.7-0.5-10-0.8
								c-1.7-0.1-3.3-0.4-5-0.6c-1.7-0.2-3.4-0.4-5-0.7c-1.7-0.2-3.4-0.4-5.1-0.7l-2.5-0.3c-0.8-0.1-1.7-0.3-2.5-0.4
								c-3.4-0.6-6.8-1.2-10.2-1.8c-1.7-0.3-3.4-0.6-5.1-1c-1.7-0.4-3.4-0.8-5.1-1.2c-3.4-0.8-6.8-1.6-10.2-2.4
								c-3.4-1-6.8-1.9-10.2-2.9c-1.7-0.5-3.4-1-5.1-1.5c-1.7-0.6-3.4-1.2-5.1-1.7c-3.4-1.2-6.8-2.3-10.2-3.5
								c-3.4-1.3-6.8-2.7-10.1-4c-1.7-0.7-3.4-1.3-5.1-2c-1.7-0.8-3.3-1.5-5-2.3c-3.4-1.5-6.7-3-10.1-4.6c-3.3-1.7-6.6-3.4-9.9-5.1
								c-1.6-0.9-3.4-1.7-5-2.6s-3.3-1.9-4.9-2.8s-3.3-1.9-4.9-2.8s-3.3-1.9-4.9-2.9c-3.2-2-6.4-4.1-9.6-6.2c-0.8-0.5-1.6-1-2.4-1.6
								l-2.4-1.7c-1.6-1.1-3.1-2.2-4.7-3.3s-3.1-2.2-4.7-3.4c-0.8-0.5-1.6-1.1-2.3-1.8l-2.3-1.8c-3.1-2.4-6.1-4.8-9.2-7.2
								c-12-10.1-23.6-21.1-34.5-33c-10.8-12-20.9-25-30.3-38.7c-2.2-3.5-4.5-7-6.8-10.5c-1.2-1.7-2.2-3.6-3.2-5.4
								c-1-1.8-2.1-3.6-3.1-5.5c-1-1.8-2.1-3.6-3.1-5.5s-1.9-3.8-2.9-5.7s-1.9-3.8-2.9-5.7c-0.5-1-1-1.9-1.4-2.9l-1.3-2.9
								c-1.8-3.9-3.6-7.8-5.3-11.7c-1.6-4-3.2-8-4.8-12c-0.4-1-0.8-2-1.2-3l-1-3.1c-0.7-2.1-1.4-4.1-2.1-6.2
								c-0.7-2.1-1.4-4.1-2.1-6.2c-0.6-2.1-1.2-4.2-1.8-6.3c-2.6-8.4-4.5-17-6.4-25.7c-0.8-4.4-1.6-8.8-2.4-13.2
								c-0.2-1.1-0.4-2.2-0.6-3.3L306,549c-0.3-2.2-0.6-4.5-0.9-6.7l-0.6-4.8c-0.2-1.6-0.3-3.2-0.5-4.8c0,0-0.3-3.9-0.9-11.8
								c0-0.5-0.1-1-0.1-1.5s0-1.1,0-1.6c0-1.1-0.1-2.3-0.1-3.5c-0.1-2.5-0.1-5.1-0.2-8.1c0-1.5-0.1-3-0.1-4.6s0.1-3.2,0.1-4.9
								c0.1-3.4,0.2-7.1,0.3-11c0.9-15.5,2.8-35,7.9-57.6c0.6-2.8,1.3-5.7,2-8.7c0.8-2.9,1.6-5.9,2.5-8.9c0.4-1.5,0.9-3,1.3-4.6
								c0.2-0.8,0.4-1.5,0.6-2.3s0.5-1.5,0.8-2.3c1-3.1,2.1-6.2,3.2-9.4c0.5-1.6,1-3.2,1.7-4.8c0.6-1.6,1.3-3.2,1.9-4.8
								c1.3-3.2,2.6-6.6,3.9-9.9c1.5-3.3,3-6.6,4.5-10c0.8-1.7,1.5-3.4,2.4-5.1s1.7-3.4,2.6-5.1c0,0,1.5-2.9,4-7.9
								c1.4-2.5,3.1-5.5,5.1-9c1-1.7,2-3.6,3.2-5.5s2.5-3.9,3.8-6c10.5-16.8,26.7-38.5,46.6-58.3s43.2-37.9,64.5-50.3
								c2.7-1.6,5.3-3.1,7.8-4.5c1.3-0.7,2.5-1.5,3.8-2.1s2.5-1.3,3.7-1.9c2.4-1.3,4.8-2.5,7-3.7c1.1-0.6,2.2-1.2,3.3-1.7
								c1.1-0.5,2.2-1,3.2-1.5c4.2-1.9,8-3.7,11.2-5.2c3.3-1.4,6.1-2.5,8.3-3.4c0,0,0.9-0.4,2.6-1.1s4.2-1.8,7.7-3s7.7-2.8,12.9-4.5
								c2.6-0.8,5.4-1.6,8.5-2.5c3-0.9,6.2-1.9,9.8-2.7c3.5-0.9,7.2-1.8,11.1-2.7c2-0.5,4-0.8,6.1-1.2s4.2-0.8,6.4-1.2
								s4.4-0.9,6.7-1.2s4.7-0.6,7.1-1c2.4-0.3,4.9-0.7,7.4-1c1.3-0.2,2.5-0.3,3.8-0.4c1.3-0.1,2.6-0.2,3.9-0.3
								c21-1.9,45.7-2.2,73.1,1.3c1.7,0.2,3.4,0.4,5.2,0.6c1.7,0.2,3.5,0.6,5.2,0.9c3.5,0.6,7.1,1.2,10.7,1.8
								c1.8,0.3,3.6,0.8,5.4,1.1c1.8,0.4,3.6,0.8,5.5,1.2c1.8,0.4,3.7,0.8,5.5,1.2l1.4,0.3l1.4,0.4c0.9,0.3,1.8,0.5,2.8,0.8
								c3.7,1,7.5,2.1,11.3,3.1c3.8,1.2,7.5,2.5,11.4,3.8c1.9,0.7,3.9,1.2,5.8,2c1.9,0.7,3.8,1.5,5.8,2.2s3.9,1.5,5.8,2.3
								c1,0.4,2,0.8,2.9,1.1c1,0.4,1.9,0.9,2.9,1.3c3.9,1.7,7.8,3.5,11.7,5.2c3.9,2,7.8,3.9,11.7,5.9c1,0.5,2,1,3,1.5
								c1,0.6,1.9,1.1,2.9,1.7c1.9,1.1,3.9,2.2,5.8,3.4c2,1.1,3.9,2.2,5.9,3.4c1.9,1.2,3.8,2.5,5.8,3.7
								c15.5,9.9,30.9,21.4,45.7,34.8c14.7,13.4,28.7,28.6,41.6,45.6c12.9,17,24.5,35.7,34.4,56.1c19.9,40.7,32.2,88.2,33.1,138.8
								c0,0,0-0.9,0-2.6c0-0.9,0-1.9,0-3.2c0-1.3,0-2.8-0.2-4.5c-0.2-3.4-0.5-7.6-0.8-12.5c-0.1-2.5-0.5-5.1-0.8-8s-0.7-5.9-1.1-9.1
								c-0.1-0.8-0.2-1.6-0.3-2.5c-0.1-0.8-0.3-1.7-0.4-2.5c-0.3-1.7-0.6-3.4-0.9-5.2s-0.6-3.6-0.9-5.5c-0.2-0.9-0.3-1.9-0.5-2.8
								s-0.4-1.9-0.6-2.9c-0.9-3.9-1.8-7.9-2.7-12.1c-0.4-2.1-1.1-4.2-1.7-6.4c-0.6-2.2-1.2-4.4-1.8-6.6
								c-5.2-17.9-12.7-38-23.5-59.1c-0.7-1.3-1.3-2.7-2-4c-0.3-0.7-0.7-1.3-1-2c-0.4-0.7-0.8-1.3-1.1-2c-1.5-2.6-3-5.3-4.6-8
								c-0.8-1.4-1.5-2.7-2.3-4.1c-0.8-1.3-1.7-2.7-2.6-4c-1.7-2.7-3.5-5.4-5.2-8.1c-0.8-1.4-1.8-2.7-2.8-4.1s-1.9-2.7-2.9-4
								c-1-1.4-1.9-2.7-2.9-4.1s-1.9-2.8-3-4.1c-2.1-2.7-4.2-5.4-6.4-8.1c-2.1-2.8-4.4-5.4-6.7-8.1s-4.6-5.4-7-8
								c-2.5-2.6-5-5.2-7.5-7.9l-1.9-2l-1-1l-1-1c-1.3-1.3-2.7-2.5-4-3.8s-2.7-2.6-4.1-3.9c-1.4-1.3-2.7-2.6-4.2-3.8
								c-2.9-2.5-5.8-5-8.7-7.5c-0.7-0.6-1.5-1.3-2.2-1.9l-2.3-1.8c-1.5-1.2-3.1-2.4-4.6-3.6c-1.5-1.2-3.1-2.4-4.6-3.6
								c-0.8-0.6-1.6-1.2-2.4-1.8l-2.4-1.7c-3.2-2.3-6.5-4.6-9.8-6.9c-13.4-8.9-27.8-17.1-43.1-24.5c-15.3-7.2-31.7-13.4-48.7-18.4
								c-17-5.1-34.9-8.6-53.2-10.9c-18.3-2.2-37.2-3.1-56.3-2.1c0,0-1.3,0-4.1,0c-2.7,0.2-6.8,0.4-12.4,0.7
								c-1.4,0.1-2.9,0.2-4.4,0.3c-1.6,0.2-3.2,0.4-4.9,0.6c-3.5,0.4-7.3,0.9-11.5,1.3c-4.2,0.7-8.7,1.5-13.7,2.3
								c-1.2,0.2-2.5,0.4-3.8,0.7s-2.5,0.6-3.9,0.9c-2.6,0.6-5.3,1.2-8.1,1.8c-1.4,0.3-2.8,0.6-4.3,1c-1.4,0.4-2.9,0.8-4.4,1.2
								c-3,0.8-6,1.7-9.2,2.6c-0.8,0.2-1.6,0.4-2.4,0.7c-0.8,0.3-1.6,0.5-2.4,0.8c-1.6,0.5-3.2,1.1-4.8,1.6c-1.6,0.6-3.3,1.1-5,1.7
								c-1.7,0.6-3.4,1.1-5.1,1.8c-3.4,1.3-6.9,2.7-10.5,4.1c-0.9,0.4-1.8,0.7-2.7,1.1c-0.9,0.4-1.8,0.8-2.7,1.2
								c-1.8,0.8-3.6,1.6-5.5,2.5s-3.7,1.7-5.6,2.6c-1,0.4-1.9,0.9-2.8,1.4s-1.9,1-2.8,1.4c-1.9,1-3.8,2-5.8,3
								c-1.9,1-3.9,1.9-5.8,3.1c-3.9,2.2-7.8,4.5-11.9,6.9c-4,2.5-7.9,5.1-12,7.8c-8.1,5.5-16.3,11.5-24.5,18.2
								c-16.4,13.4-32.9,29.4-48.3,48.4c0,0,0.7-0.9,2.5-3.1c0.9-1.1,2-2.5,3.5-4.3c0.7-0.9,1.5-1.9,2.4-3c0.5-0.5,0.9-1.1,1.4-1.7
								s1-1.2,1.6-1.8c2.2-2.5,4.9-5.3,7.9-8.6c1.5-1.7,3.2-3.3,5.1-5.1c1.8-1.8,3.8-3.7,5.8-5.8c2-2.1,4.4-4.1,6.8-6.2
								c2.4-2.2,5-4.5,7.7-6.8c5.7-4.5,11.7-9.7,19-14.8c14.2-10.3,32-21.6,54.3-32c22.4-10.4,49.4-20.2,81.7-25.9
								c2-0.4,4-0.7,6.1-1.1c1-0.2,2.1-0.3,3.1-0.5c1-0.1,2.1-0.3,3.1-0.4c4.2-0.5,8.5-1.1,12.8-1.6c4.4-0.3,8.8-0.7,13.3-1
								c1.1-0.1,2.3-0.2,3.4-0.2c1.1,0,2.3-0.1,3.4-0.1c2.3-0.1,4.6-0.1,6.9-0.2c18.6-0.4,38.5,0.7,59.2,3.9
								c20.8,3.2,42.5,8.6,64.5,16.8s44.4,19.2,66.3,33.4c0,0-1-0.6-3.2-2.1c-1.1-0.7-2.6-1.7-4.4-2.8c-1.8-1.1-4.1-2.4-6.7-3.9
								c-1.3-0.8-2.7-1.6-4.3-2.5c-0.8-0.4-1.5-0.9-2.4-1.4c-0.4-0.2-0.8-0.5-1.2-0.7s-0.9-0.4-1.3-0.7c-3.6-1.8-7.6-3.9-12.2-6.2
								c-1.1-0.6-2.3-1.1-3.5-1.7c-1.2-0.6-2.5-1.1-3.8-1.7c-2.6-1.2-5.3-2.4-8.1-3.7c-2.9-1.2-6-2.4-9.1-3.6
								c-3.2-1.2-6.5-2.7-10.1-3.8c-3.5-1.2-7.2-2.4-11.1-3.7c-0.5-0.2-1-0.3-1.5-0.5c-0.5-0.1-1-0.3-1.5-0.4c-1-0.3-2-0.6-3-0.9
								c-2-0.6-4.1-1.2-6.2-1.8c-1.1-0.3-2.1-0.6-3.2-0.9c-1.1-0.3-2.2-0.6-3.3-0.9c-2.2-0.5-4.5-1-6.8-1.6s-4.7-1.1-7.1-1.6
								c-1.2-0.3-2.4-0.5-3.7-0.7c-1.2-0.2-2.5-0.4-3.7-0.7c-20.1-3.7-43.5-6.1-70.1-5.4c-3.3,0.1-6.7,0.1-10.1,0.3
								c-3.4,0.3-6.9,0.5-10.4,0.8c-1.8,0.1-3.5,0.3-5.3,0.4c-1.8,0.2-3.6,0.4-5.4,0.7c-3.6,0.5-7.3,0.9-11,1.4
								c-3.7,0.6-7.4,1.3-11.2,2c-1.9,0.3-3.8,0.7-5.7,1c-1.9,0.4-3.8,0.9-5.8,1.3c-3.9,0.9-7.8,1.8-11.7,2.8
								c-3.9,1.1-7.9,2.3-11.9,3.4c-16,4.9-32.6,11.2-49.3,19.2c-16.7,8.2-33.6,18.1-50.2,30.2c0,0,0.8-0.6,2.3-1.7
								c0.8-0.6,1.7-1.2,2.8-2.1c1.1-0.8,2.4-1.8,3.9-2.8c3-2,6.7-4.4,11-7.3c1.1-0.7,2.2-1.4,3.4-2.1c1.2-0.7,2.4-1.4,3.7-2.2
								c2.5-1.5,5.2-3.1,8.1-4.8c2.9-1.5,6-3.2,9.2-4.9c1.6-0.8,3.2-1.7,4.9-2.6c1.7-0.9,3.5-1.6,5.2-2.5c3.6-1.6,7.3-3.4,11.1-5.1
								c3.9-1.6,8-3.2,12.1-4.9c16.8-6.4,36.1-12.1,57.2-16c0,0-0.7,0.1-2.2,0.4c-0.7,0.1-1.6,0.3-2.7,0.5c-0.5,0.1-1.1,0.2-1.7,0.3
								c-0.6,0.1-1.3,0.3-2,0.5c-5.6,1.4-14.1,3.1-25,6.5c-5.5,1.5-11.5,3.7-18.2,6c-0.8,0.3-1.7,0.6-2.5,0.9
								c-0.9,0.3-1.7,0.7-2.6,1c-1.7,0.7-3.5,1.4-5.3,2.1c-1.8,0.7-3.6,1.5-5.5,2.2c-0.9,0.4-1.9,0.7-2.8,1.2
								c-0.9,0.4-1.9,0.9-2.9,1.3c-3.8,1.8-7.8,3.6-12,5.5c-4,2.1-8.2,4.3-12.6,6.5c-0.5,0.3-1.1,0.6-1.6,0.9
								c-0.5,0.3-1.1,0.6-1.6,0.9c-1.1,0.6-2.2,1.3-3.2,1.9c-2.2,1.3-4.4,2.6-6.7,3.9c-2.3,1.3-4.5,2.8-6.8,4.2
								c-2.3,1.5-4.5,2.9-6.9,4.5c-2.4,1.5-4.6,3.1-6.9,4.8s-4.7,3.4-7.1,5.1c-0.6,0.4-1.2,0.9-1.8,1.3c-0.6,0.5-1.2,0.9-1.7,1.4
								c-1.2,0.9-2.3,1.9-3.5,2.8c-2.4,1.9-4.8,3.8-7.2,5.7c-2.3,2-4.7,4.1-7.1,6.2c-1.2,1.1-2.4,2.1-3.6,3.2
								c-0.6,0.5-1.2,1.1-1.8,1.6c-0.6,0.6-1.2,1.1-1.8,1.7c-4.7,4.5-9.6,9-14.2,14.1c-2.3,2.5-4.8,5-7.1,7.6
								c-2.3,2.6-4.6,5.3-6.9,8c-1.2,1.4-2.4,2.7-3.5,4.1s-2.2,2.9-3.4,4.3c-2.2,2.9-4.5,5.8-6.8,8.8c-4.3,6.1-8.8,12.2-12.9,18.9
								c-1,1.6-2.1,3.3-3.1,4.9c-0.5,0.8-1,1.7-1.6,2.5c-0.5,0.9-1,1.7-1.5,2.6c-2,3.4-3.9,6.9-5.9,10.4
								c-7.6,14.2-14.6,29.5-20.6,45.8c-5.8,16.4-10.7,33.7-14.2,51.9c-3.6,18.2-5.5,37.3-5.8,57c-0.3,19.7,1,40,4.3,60.6
								c-0.2-1-0.4-2-0.5-3.1c-0.1-1-0.3-2-0.4-3c-0.2-2-0.5-3.9-0.7-5.7s-0.5-3.6-0.7-5.3c-0.1-0.9-0.2-1.7-0.3-2.5
								c-0.1-0.8-0.1-1.6-0.2-2.4c-0.2-3.2-0.5-6.1-0.7-8.8c-0.1-1.3-0.2-2.6-0.3-3.9c0-0.6-0.1-1.2-0.1-1.8s0-1.2,0-1.7
								c-0.2-9-0.4-14.2-0.4-16c0.1-1.9-0.1-0.5,0.1,3.9c0.1,2.2,0.1,5,0.2,8.6c0.1,1.8,0.1,3.7,0.2,5.8c0.2,2.1,0.3,4.4,0.5,6.8
								s0.4,5,0.6,7.7c0,0.7,0.1,1.4,0.2,2.1c0.1,0.7,0.2,1.4,0.3,2.1c0.2,1.4,0.4,2.9,0.6,4.4c0.4,3,0.8,6.1,1.2,9.4
								c0.5,3.3,1.2,6.6,1.8,10.1c1.1,7,3,14.4,4.8,22.3c0.1,0.5,0.2,1,0.4,1.5c0.1,0.5,0.3,1,0.4,1.5c0.3,1,0.6,2,0.9,3
								c0.6,2,1.1,4,1.7,6.1c0.6,2,1.1,4.1,1.8,6.2c0.7,2.1,1.4,4.2,2.1,6.3c5.7,17,13.3,35.1,23.2,53.3
								c9.9,18.2,22.1,36.6,36.7,54.1c14.5,17.5,31.4,34.1,50.1,48.9c18.7,14.8,39.3,27.9,61,38.6c21.7,10.8,44.5,18.9,67.5,24.6
								c23,5.7,46,8.7,68.3,9.6c22.2,0.8,43.6-0.5,63.5-3.4c19.8-3,38-7.6,54.1-12.8c16.2-5,30.1-11.2,42-16.7
								c2.9-1.5,5.7-2.9,8.4-4.2s5.2-2.6,7.5-3.9c4.7-2.6,8.9-4.9,12.5-7c0,0,4.5-2.9,12.4-7.9c3.8-2.7,8.5-6,13.8-9.7
								c2.6-2,5.3-4.2,8.2-6.4c1.4-1.1,2.9-2.3,4.4-3.5s2.9-2.5,4.5-3.8s3.1-2.7,4.6-4c1.6-1.4,3.2-2.7,4.8-4.2
								c3.1-3,6.4-6.1,9.7-9.2c3.2-3.3,6.5-6.7,9.8-10.2c0.8-0.9,1.7-1.7,2.5-2.7c0.8-0.9,1.6-1.8,2.4-2.8c1.6-1.9,3.2-3.8,4.9-5.6
								c13-15.3,25.4-32.9,36-51.6c10.6-18.7,19.3-38.4,25.7-57.5c0.8-2.4,1.6-4.8,2.4-7.1c0.4-1.2,0.8-2.4,1.1-3.5
								c0.3-1.2,0.7-2.4,1-3.5c0.7-2.3,1.3-4.7,2-7c0.3-1.2,0.6-2.3,1-3.4c0.3-1.2,0.5-2.3,0.8-3.4c1-4.5,2-8.9,3-13.2
								c0.8-4.3,1.5-8.5,2.2-12.5c0.8-4,1.1-7.9,1.6-11.6c0.2-1.8,0.4-3.6,0.7-5.4c0.2-1.8,0.5-3.5,0.5-5.1c0.2-3.3,0.4-6.4,0.6-9.3
								c0.1-1.4,0.2-2.8,0.3-4.2c0.1-1.3,0.2-2.6,0.2-3.8c0.1-9.7,0.1-15.4-0.1-15.9"/>
							<path class="st3" d="M412.9,252.5c0,0,1-0.9,2.9-2.6c1-0.9,2.1-1.9,3.5-3.2c1.4-1.2,3-2.8,5-4.3c1.9-1.6,4.1-3.3,6.5-5.3
								c1.2-1,2.5-2,3.8-3.1c1.3-1,2.8-2.1,4.2-3.1c3-2.2,6.1-4.5,9.5-7c3.5-2.3,7.3-4.8,11.2-7.4c2-1.4,4.1-2.6,6.3-3.8
								c2.2-1.3,4.4-2.6,6.7-3.9c1.1-0.7,2.3-1.4,3.5-2s2.4-1.3,3.6-1.9c2.5-1.3,5-2.6,7.5-4s5.3-2.6,8-3.9c2.8-1.3,5.6-2.6,8.4-3.9
								c2.9-1.3,5.9-2.4,8.9-3.7c1.5-0.6,3.1-1.2,4.6-1.9c0.8-0.3,1.6-0.6,2.3-0.9c0.8-0.3,1.6-0.6,2.4-0.9c3.2-1.1,6.5-2.3,9.8-3.4
								c0.8-0.3,1.7-0.6,2.5-0.9l1.3-0.4l1.3-0.4c1.7-0.5,3.5-1,5.2-1.5c1.8-0.5,3.5-1,5.3-1.6c0.9-0.3,1.8-0.5,2.7-0.8
								s1.8-0.5,2.7-0.7c3.7-0.9,7.4-1.8,11.2-2.7c15.2-3.3,31.5-6.2,48.8-7.3c2.2-0.2,4.3-0.4,6.5-0.5s4.4-0.1,6.6-0.2
								s4.5-0.1,6.7-0.2c1.1,0,2.2-0.1,3.4-0.1c1.1,0,2.3,0,3.4,0.1c4.5,0.1,9.2,0.2,13.8,0.3c4.6,0.3,9.3,0.7,14.1,1
								c19,1.7,38.6,5.1,58.5,10.4c19.9,5.4,40,12.9,59.8,22.6c19.8,9.8,39.2,21.8,57.7,36.2c18.4,14.4,35.9,31.1,51.7,50l1.5,1.8
								c0.5,0.6,1,1.2,1.4,1.8c1,1.2,1.9,2.4,2.8,3.6c1.9,2.4,3.8,4.9,5.7,7.3c1.8,2.5,3.6,5.1,5.4,7.6c0.9,1.3,1.8,2.6,2.7,3.8
								l1.4,1.9l1.3,2c1.7,2.6,3.4,5.3,5.1,8c0.8,1.3,1.7,2.7,2.5,4c0.8,1.4,1.6,2.8,2.4,4.1c1.6,2.8,3.2,5.5,4.7,8.3
								c0.8,1.4,1.5,2.8,2.2,4.2s1.5,2.9,2.2,4.3c11.6,22.9,21,47.6,27,73.5c6.1,25.9,9.2,53,9,80.5"/>
						</g>
						<path class="st3" d="M308.3,426c0,0,0.4-1.6,1-4.6c0.2-0.8,0.4-1.6,0.6-2.6c0.2-0.9,0.5-2,0.8-3.1c0.6-2.2,1.3-4.8,2.1-7.7
							c0.4-1.5,0.8-3,1.2-4.6c0.4-1.6,1-3.3,1.6-5c1.1-3.5,2.4-7.3,3.7-11.4c1.5-4,3.2-8.4,5-13c0.8-2.3,1.9-4.6,3-7
							s2.1-4.9,3.3-7.4c0.6-1.3,1.1-2.6,1.7-3.8s1.3-2.5,1.9-3.9c1.3-2.6,2.6-5.3,4-8c0.3-0.7,0.7-1.4,1-2c0.4-0.7,0.8-1.4,1.1-2
							c0.8-1.4,1.5-2.7,2.3-4.1c1.6-2.8,3.1-5.6,4.8-8.5c1.8-2.8,3.6-5.7,5.4-8.6c0.9-1.5,1.8-2.9,2.8-4.4s2-2.9,3-4.4
							c2-2.9,4.1-5.9,6.2-8.9c2.2-2.9,4.5-5.9,6.8-8.9c1.2-1.5,2.3-3,3.5-4.5s2.5-2.9,3.8-4.4s2.5-3,3.8-4.5s2.5-3.1,4-4.5
							c2.8-2.9,5.5-5.9,8.4-8.9c1.4-1.5,2.9-3,4.4-4.4c1.5-1.5,3-2.9,4.5-4.4s3-3,4.6-4.4s3.2-2.8,4.8-4.2c1.6-1.4,3.2-2.9,4.9-4.3
							c0.8-0.7,1.6-1.5,2.5-2.1c0.9-0.7,1.7-1.4,2.6-2.1c3.5-2.7,6.9-5.6,10.5-8.3c3.6-2.6,7.3-5.3,11.1-8
							c15.1-10.4,31.6-20,49.4-28.2c17.7-8.3,36.7-15.2,56.6-20.5c39.8-10.4,83.2-13.6,126.5-8.3c21.6,2.6,43.2,7.4,64.1,14.3
							c20.9,6.9,41.2,15.9,60.4,26.8c38.3,21.7,72,51,98.2,84.4"/>
					</g>
				</g>
			</g>
		</g>
	</g>
</g>
<g>
	<g>
		<g>
			<g>
				<g class="st1">
					<g>
						<g>
							<path class="st2" d="M973.5,459.3c2.3,15.6,3.7,31.7,4.2,46.8c0,4,0,8,0,11.9c0,1.9,0,3.9-0.1,5.8c-0.1,1.9-0.2,3.8-0.4,5.7
								c-0.1,1.9-0.2,3.8-0.4,5.6s-0.2,3.7-0.5,5.6c-0.4,3.7-0.9,7.3-1.3,11c-2.1,14.5-4.7,28.9-8.6,44.1
								c-4.8,19.1-11.5,37.6-19.8,55.4c-8.4,17.9-18.4,35.2-30,52c-21.4,30.9-48.5,58.6-79.7,81c-15.7,11.1-32.3,20.9-49.6,29.2
								l-6.5,3c-2.2,1-4.3,2.1-6.6,2.9c-4.5,1.8-8.9,3.6-13.3,5.4c-4.5,1.5-9.1,3.1-13.6,4.7c-2.2,0.8-4.6,1.4-6.9,2.1l-6.9,2
								c-17.4,4.7-34.9,8-52.4,9.9c-17.5,1.8-35,2.2-52.3,1.4c-17.3-0.7-34.4-3.1-51.1-6.5c-8.4-1.6-16.6-3.9-24.8-6.1
								c-4.1-1.3-8.1-2.5-12.2-3.8c-2-0.6-4-1.3-6-2.1l-6-2.2c-2-0.7-4-1.4-6-2.2l-5.9-2.5l-5.9-2.5c-1-0.4-2-0.8-2.9-1.2l-2.9-1.4
								l-11.4-5.5l-11.2-6c-14.7-8.3-28.9-17.6-42.2-28c-13.3-10.5-25.8-22-37.5-34.4c-11.6-12.5-22.2-26-32-40.2
								c-22.5-33.1-40.3-72.7-49.7-114.8c-4.7-21-7.4-42.6-8-64.1s0.9-42.9,4.2-63.5c2.5-15.1,6.6-33.9,13.5-53.7
								c6.8-19.9,16.2-40.8,27.6-60.2c11.4-19.5,24.7-37.4,37.8-52.4c1.7-1.9,3.3-3.7,4.9-5.5c0.8-0.9,1.6-1.8,2.4-2.7
								c0.8-0.9,1.6-1.7,2.5-2.5c3.3-3.3,6.4-6.5,9.4-9.5c6.3-5.8,11.7-11.2,16.8-15.3c-1.7,1.4-3.4,2.8-5.1,4.2
								c-1.6,1.5-3.3,3-4.9,4.5s-3.3,3-4.9,4.5l-2.5,2.2c-0.8,0.8-1.6,1.6-2.4,2.4c-3.1,3.2-6.3,6.3-9.4,9.5c-3,3.3-6,6.6-9,10
								c-11.7,13.5-22.5,28-32.1,43.2c-2.3,3.9-4.6,7.7-7,11.5c-2.1,4-4.3,7.9-6.4,11.8c-0.5,1-1.1,2-1.6,3l-1.5,3c-1,2-1.9,4-2.9,6
								l-1.5,3c-0.5,1-1,2-1.4,3c-0.9,2-1.7,4.1-2.6,6.1s-1.7,4.1-2.6,6.1s-1.5,4.1-2.3,6.2s-1.5,4.1-2.3,6.2l-1.1,3.1
								c-0.4,1-0.7,2.1-1,3.1c-1.3,4.2-2.6,8.4-3.9,12.5c-1.1,4.2-2.2,8.4-3.3,12.6l1.8-6.9l0.9-3.5c0.3-1.1,0.6-2.3,0.9-3.4
								c1.4-4.5,2.8-9.1,4.2-13.7c1.6-4.5,3.2-9,4.8-13.5l0.6-1.7l0.7-1.7l1.4-3.3l2.7-6.6c7.6-17.6,16.7-34.6,27.2-50.8
								c10.5-16.1,22.5-31.5,35.7-45.5c13.3-14.1,27.8-27,43.3-38.5c15.5-11.6,31.9-22,49.1-30.6c17.2-8.7,35.1-15.9,53.4-21.6
								l6.9-2c2.3-0.7,4.6-1.4,6.9-1.9c4.7-1.1,9.3-2.3,13.9-3.4c4.7-0.9,9.4-1.8,14-2.7c1.2-0.2,2.3-0.4,3.5-0.6l3.5-0.5
								c2.3-0.3,4.7-0.7,7-1c18.8-2.4,37.8-3.1,56.5-2.4c-17.5-0.7-35.2-0.2-52.6,1.8c-17.5,2.1-34.7,5.5-51.7,10.1l-12.6,3.7
								l-12.4,4.3l-3.1,1.1l-3,1.2l-6.1,2.5l-6.1,2.5l-6,2.8l-6,2.8l-3,1.4c-1,0.5-2,1-2.9,1.5l-11.6,6.1c-3.8,2.1-7.5,4.4-11.3,6.7
								l-2.8,1.7l-1.4,0.8l-1.4,0.9l-5.5,3.6c-7.4,4.7-14.3,10.1-21.4,15.2l-10.2,8.3l-2.5,2.1l-2.4,2.2l-4.9,4.4l-4.9,4.4
								c-1.6,1.5-3.1,3.1-4.6,4.6l-4.6,4.6l-2.3,2.3c-0.8,0.8-1.5,1.6-2.2,2.4l-8.8,9.7c-2.8,3.3-5.5,6.7-8.3,10.1
								c-10.8,13.7-20.6,28.1-29.3,43.1c-8.5,15.1-15.9,30.9-22.1,47c-6.3,16.1-11,32.8-14.6,49.6c-0.9,4.2-1.9,8.4-2.5,12.7l-1,6.4
								l-0.5,3.2c-0.2,1.1-0.4,2.1-0.5,3.2c-0.5,4.3-1,8.5-1.5,12.8c-0.3,2.1-0.4,4.3-0.5,6.4l-0.4,6.4l-0.2,3.2
								c-0.1,1.1-0.1,2.1-0.1,3.2l-0.1,6.4c-0.1,4.3-0.2,8.6,0,12.8c0.1,4.3,0.2,8.5,0.4,12.8c0.3,4.2,0.7,8.5,1,12.7
								c1.7,16.9,4.6,33.7,8.6,50.1c4.2,16.4,9.6,32.4,16,47.9c6.6,15.4,14.2,30.3,22.7,44.7c2.2,3.5,4.5,7,6.7,10.5
								c1.1,1.7,2.2,3.5,3.4,5.2l3.6,5l3.6,5c1.2,1.7,2.4,3.4,3.7,5c2.6,3.2,5.1,6.5,7.7,9.7c0.6,0.8,1.3,1.6,1.9,2.4l2,2.3l4.1,4.6
								l4.1,4.6c1.4,1.5,2.8,3,4.3,4.5c2.9,2.9,5.7,5.9,8.6,8.8c3,2.8,6,5.6,9,8.4c-1.8-1.6-3.5-3.2-5.3-4.8l-2.7-2.4
								c-0.9-0.8-1.8-1.6-2.6-2.5c-3.4-3.4-6.8-6.9-10.2-10.3c-3.3-3.6-6.5-7.2-9.8-10.9c-0.8-0.9-1.6-1.8-2.4-2.8l-2.3-2.9
								c-1.5-1.9-3.1-3.8-4.6-5.8c-12.2-15.5-23.3-32.2-33-50.1c-9.7-17.8-17.8-36.8-24.1-56.6c-6.3-19.8-10.9-40.3-13.5-61.3
								c-5.2-41.9-2.4-85.5,8.6-127.2s30.1-81.6,56.2-116.3c13-17.4,27.7-33.4,43.8-47.9s33.5-27.3,51.8-38.4
								c36.7-22.2,77.3-37.2,118.5-44c41.2-6.9,82.9-5.8,122,2c19.6,3.9,38.6,9.4,56.7,16.4c2.2,0.9,4.5,1.8,6.7,2.7l3.4,1.4
								l1.7,0.7l1.6,0.8c4.4,2,8.7,4,13.1,6c4.2,2.2,8.5,4.4,12.7,6.5c2.1,1,4.1,2.3,6.2,3.4c2,1.2,4.1,2.4,6.1,3.5
								c1.2,0.7,2.5,1.4,3.7,2.1c1.2,0.8,2.4,1.6,3.6,2.3c2.4,1.6,4.9,3.1,7.4,4.7c2.5,1.5,4.9,3.3,7.3,5s4.8,3.4,7.1,5.1l1.8,1.2
								c0.6,0.4,1.1,0.9,1.7,1.3c1.1,0.9,2.2,1.8,3.3,2.6c2.2,1.7,4.4,3.4,6.5,5.1c0.5,0.4,1.1,0.8,1.6,1.2s1,0.9,1.5,1.3
								c1,0.9,2,1.7,3,2.5c1.9,1.7,3.8,3.3,5.6,4.9c-13.8-12.5-29-24-45.3-34.3s-33.6-19.4-51.8-27s-37.4-13.8-57.1-18.2
								c-19.8-4.4-40.1-7.1-60.7-7.9c-41.2-1.7-83.5,4.2-123.6,18s-78,35.4-110.6,63.3c-32.6,28-59.9,62.4-79.6,100.6
								c-19.8,38.1-32,79.9-36.2,122.1c-4.2,42.1-0.3,84.6,10.8,124.1c5.5,19.8,12.9,38.9,21.6,57c2.3,4.5,4.6,8.9,6.9,13.4
								c2.4,4.4,5,8.6,7.5,13c0.6,1.1,1.2,2.2,1.9,3.2l2,3.1c1.4,2.1,2.7,4.1,4,6.2l2,3.1c0.7,1,1.3,2.1,2.1,3c1.5,2,2.9,4,4.3,6
								l4,5.5l1,1.4l1.1,1.3l2.1,2.6l4.2,5.3l2.1,2.6l1.1,1.3l1.1,1.3l9,10.1l1.1,1.3c0.4,0.4,0.8,0.8,1.2,1.2l2.4,2.4l4.8,4.8
								c12.9,12.7,26.7,24.4,41.4,35c14.8,10.5,30.4,19.8,46.7,27.8l6.1,2.9l3.1,1.5l1.5,0.7l1.6,0.7l12.6,5.3
								c4.2,1.6,8.5,3.2,12.8,4.7l3.2,1.2l3.3,1l6.5,2c69.7,21.7,147.1,19.5,216.6-6.5c37.7-14.1,73.1-35,103.8-61.3
								c31.4-27.1,57.8-60.2,77.4-96.9c19.6-36.7,32.3-77.1,37.4-118.2c2.3-18.2,3.3-40.3,1.9-63.3c-1.5-23-5.7-46.9-11.9-68.8
								c-0.8-2.7-1.6-5.4-2.4-8.1c-0.4-1.3-0.8-2.7-1.2-4s-0.9-2.6-1.3-3.9c-0.9-2.6-1.8-5.1-2.7-7.6s-1.7-5-2.8-7.4
								c-2-4.8-3.9-9.4-5.8-13.7c-2.1-4.3-4.1-8.4-6-12.3c-0.5-1-0.9-1.9-1.4-2.9c-0.5-0.9-1-1.8-1.5-2.7c-1-1.8-2-3.5-2.9-5.1
								s-1.8-3.2-2.7-4.8c-0.4-0.8-0.9-1.5-1.3-2.2c-0.5-0.7-0.9-1.4-1.3-2.1c-3.5-5.3-6.3-9.5-8.4-12.3c3,5,6,10.2,9.1,15.4
								c1.4,2.7,2.8,5.4,4.3,8.1l2.2,4c0.7,1.4,1.5,2.7,2.1,4.1c1.3,2.8,2.6,5.5,3.9,8.3c1.2,2.8,2.6,5.4,3.7,8.2
								c1.1,2.8,2.2,5.5,3.3,8.2c0.5,1.4,1.1,2.7,1.6,4s0.9,2.7,1.4,4c-0.4-1-0.8-2-1.2-3s-0.9-2-1.3-3.1c-0.9-2.1-1.8-4.2-2.8-6.4
								c-1-2.2-1.9-4.4-2.9-6.6c-1.1-2.2-2.2-4.5-3.3-6.7c1,2.2,2,4.4,3.1,6.6c1,2.3,1.9,4.6,2.8,6.9c0.9,2.3,1.9,4.6,2.8,6.8
								c0.4,1.1,0.9,2.2,1.3,3.3c0.4,1.1,0.8,2.2,1.2,3.2c-0.3-0.9-0.6-1.7-1-2.6c-0.2-0.4-0.3-0.9-0.5-1.3s-0.4-0.8-0.5-1.2
								c-0.7-1.6-1.4-3.2-2-4.7c-1.3-2.9-2.3-5.2-3-6.5c1.1,2.7,2.2,5.6,3.5,8.6c0.6,1.5,1.3,3,1.9,4.6c0.6,1.6,1.1,3.1,1.7,4.7
								c1.1,3.1,2.3,6.1,3.3,8.9c0.5,1.4,0.9,2.8,1.3,4c0.4,1.3,0.8,2.5,1.1,3.5c1.9,5,8.3,28.5,9.1,35.5
								c-3.6-17.7-10.1-39.7-16-53.2c2,5.9,4.2,11.7,5.7,17.5c-0.6-1.8-1.2-4-2.1-6.4c-0.9-2.3-1.8-4.8-2.7-7.2
								c-0.9-2.4-1.7-4.6-2.4-6.5c-0.3-1-0.7-1.8-1-2.5s-0.6-1.3-0.8-1.7c0.4,0.9,0.7,1.8,1.1,2.7c0.3,0.9,0.6,1.8,1,2.7
								c0.6,1.8,1.2,3.5,1.9,5.3s1.2,3.5,1.8,5.2l0.9,2.6c0.3,0.9,0.5,1.8,0.8,2.6c1,3.5,2.1,7.1,3.2,10.7c0.3,0.9,0.5,1.8,0.8,2.7
								c0.2,0.9,0.5,1.9,0.7,2.8c0.5,1.9,0.9,3.8,1.4,5.7c0.4,1.6,0.7,3.1,1.1,4.7c0.4,1.5,0.8,3.1,1,4.6c0.6,3.1,1.1,6.1,1.7,9.1
								c0.3,1.5,0.6,3,0.8,4.5c0.3,1.5,0.4,3,0.7,4.5c0.4,3,0.9,6,1.3,9.1c-0.6-3.7-1.2-7.6-1.8-11.7c-0.7-4.1-1.6-8.2-2.4-12.1
								c-0.4-2-0.8-4-1.2-5.8c-0.5-1.9-1-3.7-1.4-5.4c-0.9-3.4-1.7-6.5-2.4-8.9c0.7,3.3,1.5,6.8,2.4,10.2c0.4,1.7,0.8,3.5,1.2,5.2
								c0.3,1.7,0.7,3.5,1,5.2c-0.2-0.8-0.3-1.3-0.4-1.5c0.6,3.1,1.3,7.1,1.9,10.3c-0.1,0.1,0,0.8-0.2,0.2c0.1,0.1,0.1,0.1,0.2,0.1"
								/>
							<path class="st4" d="M974.7,436.8c1,3.8,1.7,8,2.6,12.4c0.4,2.2,0.8,4.5,1.3,6.7c0.2,1.1,0.4,2.3,0.5,3.4l0.5,3.4
								c0.3,2.3,0.6,4.6,0.9,6.8c0.3,2.2,0.6,4.5,0.8,6.6c0.3,4.3,0.7,8.3,1,11.9"/>
							<path class="st3" d="M363.6,698.8c0,0-1.8-2.7-5.1-7.8c-1.6-2.6-3.5-5.9-5.7-9.7c-1.1-1.9-2.4-4-3.6-6.2
								c-1.2-2.3-2.4-4.7-3.8-7.2c-1.3-2.6-2.8-5.2-4.2-8.1c-1.3-2.9-2.7-5.9-4.2-9.1c-0.7-1.6-1.5-3.2-2.2-4.9
								c-0.8-1.6-1.4-3.4-2.1-5.2c-1.4-3.5-2.9-7.2-4.4-10.9c-5.5-15.3-10.9-33-14.8-52.9s-6.3-42-6.2-65.6
								c0.1-23.6,2.7-48.7,8.5-74.4c5.9-25.6,15.1-51.6,27.7-76.9c1.7-3.1,3.3-6.2,5-9.4c0.8-1.6,1.7-3.1,2.5-4.7
								c0.9-1.5,1.8-3.1,2.8-4.6c1.8-3.1,3.7-6.1,5.5-9.2c2-3,4-6,6-9c1-1.5,2-3,3-4.5c1.1-1.5,2.1-2.9,3.2-4.4
								c2.2-2.9,4.3-5.9,6.5-8.8c2.3-2.8,4.6-5.7,7-8.5l3.5-4.3l3.7-4.1c2.5-2.7,5-5.5,7.4-8.2c2.6-2.6,5.2-5.3,7.9-7.9l3.9-4
								l4.1-3.8c2.8-2.5,5.5-5,8.3-7.5c2.9-2.4,5.8-4.7,8.7-7.1l4.4-3.6c1.5-1.1,3-2.2,4.5-3.4c3-2.2,6-4.5,9.1-6.7
								c3.1-2.1,6.3-4.2,9.4-6.3l4.7-3.1c1.6-1,3.2-1.9,4.8-2.9l9.7-5.8c0.8-0.5,1.6-0.9,2.5-1.4l2.5-1.3l5-2.6l5-2.6l1.2-0.7
								l1.3-0.6l2.6-1.2l10.3-4.8l1.3-0.6l1.3-0.5l2.6-1.1l5.2-2.1l5.2-2.1c0.9-0.4,1.8-0.7,2.7-1l2.7-0.9c3.6-1.2,7.1-2.5,10.7-3.7
								c57.3-18.5,118.6-20.9,173.2-9.2c1.7,0.3,3.4,0.7,5.1,1c1.7,0.4,3.4,0.8,5,1.2c3.4,0.8,6.7,1.7,10,2.5
								c3.3,0.9,6.6,1.9,9.8,2.9c3.3,1,6.5,1.9,9.7,3.1c3.2,1.1,6.3,2.2,9.5,3.3l2.4,0.8l2.3,0.9c1.5,0.6,3.1,1.2,4.6,1.9
								c3,1.3,6.1,2.4,9.1,3.7c3,1.4,5.9,2.7,8.8,4.1c1.5,0.7,2.9,1.4,4.4,2c1.5,0.7,2.8,1.5,4.3,2.2c2.8,1.5,5.7,2.9,8.4,4.4
								l2.1,1.1c0.7,0.4,1.4,0.8,2,1.2c1.3,0.8,2.7,1.6,4,2.4c2.7,1.6,5.4,3.1,8,4.7c2.6,1.6,5.1,3.3,7.7,4.9
								c1.3,0.8,2.5,1.6,3.8,2.5c1.2,0.8,2.5,1.6,3.7,2.5c2.4,1.7,4.8,3.5,7.2,5.2c1.2,0.9,2.4,1.7,3.6,2.6l1.8,1.3l1.7,1.4
								c18.3,14,34,28.9,47.1,43.5s23.6,28.9,32.3,41.6"/>
						</g>
						<path class="st3" d="M350.2,349.7c0,0,0.1-0.3,0.4-0.8s0.7-1.3,1.3-2.3c1.2-2,3-4.9,5.3-8.8c4.6-7.6,11.9-18.5,21.9-31.5
							c10.1-12.9,23.4-27.7,40-42.6c16.7-15,36.9-30,60.4-43.3c3-1.6,6-3.2,9-4.8s6-3.3,9.2-4.7c3.2-1.5,6.3-3,9.5-4.4l2.4-1.1
							c0.8-0.4,1.6-0.7,2.5-1c1.7-0.7,3.3-1.3,5-2c13.2-5.6,27.3-10.1,41.8-14c3.7-0.9,7.3-1.8,11-2.7l2.8-0.7
							c0.9-0.2,1.9-0.4,2.8-0.6c1.9-0.4,3.8-0.7,5.6-1.1c7.5-1.6,15.2-2.5,22.9-3.6c3.9-0.5,7.8-0.8,11.6-1.1c2-0.2,3.9-0.4,5.8-0.5
							c2-0.1,3.9-0.2,5.9-0.3s3.9-0.2,5.9-0.3s3.9-0.2,5.9-0.2c4,0,7.9,0,11.9,0c1,0,2,0,3,0l3,0.1l6,0.3l6,0.3c2,0.1,4,0.4,6,0.6
							c4,0.4,8,0.7,11.9,1.2c4,0.6,7.9,1.1,11.9,1.7l3,0.4l3,0.6l5.9,1.1l5.9,1.1c2,0.4,3.9,0.9,5.9,1.4c3.9,1,7.8,1.9,11.7,2.9
							c3.8,1.1,7.7,2.3,11.5,3.4c30.6,9.5,59.6,23.1,85.5,40"/>
					</g>
				</g>
			</g>
		</g>
	</g>
</g>
<g class="st5">
	<path class="st6" d="M284.8,636.6c3-24.4,20.6-57.5,39.1-91.6c23.3-43,42.3-73.4,59-95.5l-0.3-0.3c-37.4,31.3-59.9,65.4-89.8,112.3
		C254.1,621.3,224,670,179.8,673c-22.7,1.5-36.9-9.1-38.3-30.3c-0.8-11.5,4.6-21,12.1-21.5c3.4-0.2,5.3,1.7,5.4,4
		c0.6,8.9-14.1,9-13.4,19.3c1.2,17.5,13,26.8,34,25.4c42.2-2.8,71.5-50,110.2-109.9c32.6-50.6,55.5-87,103.8-123l2.1,1.3
		c-14.1,22.3-33.6,61.9-56.8,106.9c-25.2,48.9-38.4,76.6-43,93.9c-3.7,14.1-2.5,23.2,3.8,22.8s12.8-10.4,22-24.8
		c12.3-18.7,27.7-50.2,54.2-94.1c31.4-51.4,55.8-87,103.8-123l2.1,1.3c-21.7,32.3-39.4,70-78.4,145.2c-19.1,37-27,62-25.9,77.8
		c0.5,8,3.4,11.9,8.8,11.5c12.9-0.9,24.3-20.1,46.9-51.8l3.4-0.2c-22.7,31.5-34.7,54.5-53.3,55.7c-10.9,0.7-18.3-6.8-19.2-20
		c-1.1-16.6,7.8-42.6,23.6-73c30.4-57.9,61.6-108.7,81.2-133.9l-0.3-0.3c-37.1,31.3-61.1,64.6-89.8,112.3
		c-26.5,43.5-42.2,75.1-54.2,94.1c-9.9,15.9-17,26.2-25.6,26.8C287.1,666.1,282.7,653.1,284.8,636.6z"/>
	<path class="st6" d="M456.6,651.6c-5.2,0.3-9.1-3.1-9.5-8.3s3.1-9.1,8-9.5c5.2-0.3,9.1,3.1,9.5,8.3S461.5,651.2,456.6,651.6z"/>
	<path class="st6" d="M859.3,407.4C807.5,437.1,774,505,716.9,620.9c28-3.6,42-18.7,57-39.8l3.4-0.2c-16.9,23.6-30.7,39.8-61.9,43.3
		l-5.1,10.4l-15.8,1.1l5.9-11.1c-21.4-1.2-42.4-9.5-60.3-23.6c-32.1,27.5-65.2,45.6-99.9,47.9c-30.7,2.1-47.6-9.2-48.9-29.6
		c-0.8-11.5,4.6-21,12.1-21.5c3.4-0.2,5.3,1.7,5.4,4c0.6,8.9-13.8,9-13.1,19.3c1.1,16.3,15.9,26.6,44.3,24.7
		c33.3-2.2,65.8-20,97.4-46.8c-26.5-21.8-45.8-55.4-48.4-94.7c-2-30.1,12.6-57.6,40.9-59.5c36.1-2.4,64.2,38.3,77.7,80.1
		c73.8-85.3,101.5-101,150.7-119L859.3,407.4z M640.4,596.1c18.2-15.9,36.3-34.7,53.9-55.7l10.7-12.5c-12.7-39.8-39.8-82.3-74.5-80
		c-24.7,1.7-37.4,25.8-35.5,55.4C597.6,542.2,615.7,575,640.4,596.1z M702,621.6l6.1-11.9c7.6-14.9,5.7-43.3,2.3-60.6
		c-0.9-5.4-2.5-11.1-4.3-17c-2.9,3.4-5.9,6.7-8.8,10.4c-17.9,21.1-35.9,40.1-54.1,56C660.5,612.6,680.9,620.7,702,621.6z M716.1,595
		c45.2-94.3,88.1-155.4,129.6-181.2v-0.3C806.4,430,779.9,446.7,709,528.7c2.2,6.8,3.8,13.9,5.1,20.4c2.7,13.9,4,33.4,1.4,46
		L716.1,595z"/>
	<path class="st6" d="M780.9,629.9c-5.2,0.3-9.1-3.1-9.5-8.3c-0.3-5.2,3.1-9.1,8-9.5c5.2-0.3,9.1,3.1,9.5,8.3
		C789.3,625.5,785.8,629.5,780.9,629.9z"/>
	<path class="st6" d="M1071.6,561.1l3.4-0.2c-24,33.3-40.7,54.9-72.8,57c-25.2,1.7-47.3-5.2-69.4-12.6
		c-21.9,13.3-45.6,20.6-71.4,22.3c-29.8,2-48.2-6.3-49.1-19.2c-0.8-12.3,10.6-21.7,38.2-23.6c28.7-1.9,54,7,79.1,16
		c26.3-19.6,46.7-50.7,68-93.8c23.8-48.5,41-71,68.9-93.9l1.9,2.5c-18,15.3-28,34.1-55,91c-21.5,45.2-47.3,76.9-77.4,96.5
		c21.2,7.2,42.7,13.6,65.9,12C1033,613,1049.7,591.4,1071.6,561.1z M926.6,603.1c-24.2-8.5-48.7-16.9-76.5-15
		c-23.5,1.6-33.9,9.5-33.2,20.1c0.7,11.2,17.1,18.2,44.3,16.3C887.3,622.7,908.4,615.6,926.6,603.1z M1108,442.6
		c2.6,38.7-42,61.6-84.3,61.8l-0.2-2.6c40.6-0.7,72.6-21,70-59.4c-1.9-27.8-23.4-47.7-73.8-44.3c-76,5.1-134.7,57.1-131.7,102.4
		c1.1,16.1,10.2,27.3,29.7,26c44.7-3,68.8-47.8,70.8-82.2l3.2-0.2c-2.4,36.7-26.7,82.4-74.9,85.7c-20.4,1.4-36.4-6.5-38-29.1
		c-3.1-45.9,62.7-100.4,140.7-105.6C1073.4,391.4,1105.8,409.9,1108,442.6z"/>
</g>
<g>
	<g>
		<path class="st6" d="M368.6,371.1c-4.4-2.6-9.1-5.5-11.7-7.2l0,0c3.5,3.3,12.7,12.2,18.9,18c-0.6,1.1-1.3,2.3-1.9,3.5
			c-7.1-2.1-20.2-5.6-25.1-7c0,0,0,0.1-0.1,0.1c2.9,1.4,8.7,4.2,12.9,6.4c3.2,1.7,6.5,3.4,9.7,5.1c-0.6,1.1-1.2,2.2-1.8,3.4
			c-8.3-4.2-16.7-8.5-25-12.7c1-2,2-3.9,3.1-5.9c8.4,1.9,18.7,4.6,22,5.9l0,0c-2.8-2.2-10.8-10.2-16.4-16.1c1.1-1.9,2.1-3.7,3.2-5.5
			c8,4.9,16,9.7,24,14.6c-0.7,1.1-1.3,2.2-2,3.4C375.3,375.1,372,373.1,368.6,371.1z"/>
		<path class="st6" d="M383.3,321c7.2,5.9,14.5,11.9,21.7,17.8c-0.8,1-1.6,2-2.4,3c-7.3-5.8-14.6-11.7-22-17.5
			C381.6,323.2,382.5,322.1,383.3,321z"/>
		<path class="st6" d="M434.9,296.1c0.2,0.2,0.4,0.5,0.6,0.7c2.4,2.7,4.3,6.1-0.4,10.4c-4.4,4.1-7.6,2.4-10.4-0.6
			c-3.3-3.4-6.6-6.9-9.9-10.3c-3.1-3.2-3-6.9,0.9-10.4c4.8-4.4,7.9-2.5,10.3,0.2c0.2,0.3,0.5,0.5,0.7,0.8c-1,0.9-2,1.8-3,2.7
			c-0.3-0.3-0.6-0.7-0.9-1c-1.5-1.7-3.1-2.7-5.3-0.7c-2.1,1.9-1.5,3.7,0.2,5.5c3.3,3.6,6.6,7.1,10,10.7c1.9,2.1,3.8,2.9,5.7,1.1
			c2-1.9,1.1-3.6-0.6-5.6c-0.3-0.3-0.5-0.6-0.8-0.9C433,297.9,433.9,297,434.9,296.1z"/>
		<path class="st6" d="M451.6,257.8c1.1-0.8,2.2-1.5,3.3-2.2c2.2,3.2,4.3,6.4,6.5,9.7c2.1-1.4,4.2-2.8,6.3-4.1
			c-2.1-3.3-4.2-6.6-6.3-9.8c1.1-0.7,2.2-1.4,3.4-2.1c4.9,8,9.9,15.9,14.8,23.9c-1,0.6-2.1,1.3-3.1,1.9c-2.5-3.9-4.9-7.7-7.4-11.6
			c-2.1,1.3-4.2,2.7-6.2,4.1c2.5,3.8,5.1,7.6,7.6,11.4c-1,0.7-2,1.4-3,2C462.2,273.2,456.9,265.5,451.6,257.8z"/>
		<path class="st6" d="M515.8,239.2c-2.4,1-4.9,2.1-7.3,3.1c1.5,3.3,3,6.6,4.5,9.9c2.6-1.2,5.3-2.3,8-3.4c0.2,0.9,0.4,1.8,0.6,2.7
			c-3.6,1.5-7.2,3.1-10.7,4.7c-4-8.5-8-17-11.9-25.4c3.8-1.8,7.7-3.5,11.6-5.1c0.4,0.9,0.7,1.7,1.1,2.6c-2.7,1.1-5.3,2.3-8,3.4
			c1.2,2.7,2.5,5.4,3.7,8.2c2.4-1.1,4.9-2.1,7.3-3.2C515.1,237.5,515.4,238.4,515.8,239.2z"/>
		<path class="st6" d="M545.3,213.4c1.2-0.4,2.5-0.7,3.8-1.1c2.3,8.1,4.6,16.3,7,24.4c2.7-0.8,5.5-1.5,8.2-2.2
			c0.1,0.9,0.2,1.8,0.3,2.7c-3.8,0.9-7.5,1.9-11.2,3C550.6,231.4,547.9,222.4,545.3,213.4z"/>
		<path class="st6" d="M592.7,203.3c1.3-0.2,2.6-0.4,3.8-0.5c1.1,8.4,2.2,16.8,3.3,25.2c2.8-0.4,5.6-0.7,8.4-1
			c0,0.9-0.1,1.8-0.1,2.7c-3.8,0.4-7.7,0.9-11.5,1.4C595.3,221.8,594,212.5,592.7,203.3z"/>
		<path class="st6" d="M652.4,214.7c-2.6-0.1-5.2-0.2-7.8-0.2c-0.1,3.6-0.1,7.2-0.2,10.8c2.9,0,5.7,0.1,8.6,0.2
			c-0.2,0.9-0.4,1.8-0.6,2.7c-3.8-0.2-7.7-0.2-11.6-0.3c0-9.4,0.1-18.7,0.1-28.1c4.2,0,8.3,0.1,12.5,0.3c0,0.9-0.1,1.8-0.1,2.8
			c-2.8-0.1-5.7-0.2-8.6-0.2c0,3-0.1,6-0.1,9c2.6,0,5.3,0.1,7.9,0.2C652.5,212.9,652.4,213.8,652.4,214.7z"/>
		<path class="st6" d="M727.2,231.3c-1.4,2.7-2.7,5.4-4,8.2c-1.2-0.3-2.3-0.6-3.5-1c4.2-8.6,8.6-17.1,13.2-25.5
			c1.8,0.5,3.5,1,5.3,1.6c-0.8,9.6-1.7,19.1-2.9,28.6c-1.2-0.4-2.4-0.8-3.6-1.1c0.4-3,0.7-6,1-9.1
			C731,232.4,729.1,231.9,727.2,231.3z M733.2,230.2c0.7-6.3,1.2-11.1,1.6-13.7c0,0-0.1,0-0.2,0c-0.8,2-3.8,7.7-6.2,12.4
			C730,229.3,731.6,229.8,733.2,230.2z"/>
		<path class="st6" d="M778.1,229.7c1.2,0.5,2.4,1.1,3.6,1.6c-3.6,7.7-7.2,15.3-10.9,23c2.6,1.2,5.2,2.5,7.7,3.7
			c-0.5,0.7-1,1.5-1.6,2.2c-3.5-1.8-7-3.4-10.6-5C770.2,246.7,774.2,238.2,778.1,229.7z"/>
		<path class="st6" d="M821.3,253.4c1.8,1.2,3.6,2.4,5.4,3.6c4.8,3.3,5.2,6.5,3,9.6c-0.2,0.3-0.5,0.7-0.7,1c-2.3,3.2-4.3,3.3-6,2.7
			c1.3,1.5,2.3,3.9,0,7c-0.4,0.6-0.8,1.1-1.2,1.7c-2.9,4-6,4.7-10.8,1.4c-1.7-1.1-3.4-2.3-5.1-3.4
			C811,269.1,816.1,261.2,821.3,253.4z M819.8,266.7c2.7,1.8,4,1.6,5.9-1.1c0.2-0.3,0.5-0.7,0.7-1c1.5-2.1,1.2-3.8-1.5-5.6
			c-0.7-0.4-1.3-0.9-1.9-1.3c-1.7,2.6-3.5,5.2-5.2,7.8C818.5,265.8,819.2,266.3,819.8,266.7z M810.2,276.8c0.6,0.4,1.2,0.8,1.8,1.2
			c3.1,2.1,4.7,1.5,6.6-1.3c0.4-0.5,0.8-1.1,1.1-1.6c1.8-2.5,1.4-4.4-1.5-6.3c-0.6-0.4-1.3-0.9-1.9-1.3
			C814.4,270.6,812.3,273.7,810.2,276.8z"/>
		<path class="st6" d="M853.3,302.9c-2.5,1.8-4.9,3.6-7.3,5.4c-0.9-0.9-1.8-1.7-2.8-2.6c7.7-5.7,15.5-11.2,23.5-16.6
			c1.4,1.3,2.8,2.7,4.2,4c-5,8.3-10.1,16.4-15.3,24.4c-0.9-0.9-1.8-1.9-2.8-2.8c1.7-2.6,3.3-5.1,5-7.7
			C856.2,305.7,854.8,304.3,853.3,302.9z M859.3,304.8c3.4-5.3,6-9.5,7.6-11.6l-0.1-0.1c-1.6,1.5-6.9,5.1-11.2,8.2
			C856.8,302.4,858,303.6,859.3,304.8z"/>
		<path class="st6" d="M903.5,330.5c-7.5,5.7-14.9,11.3-22.3,17c-0.8-1-1.6-2.1-2.3-3.1c7.4-5.8,14.8-11.5,22.1-17.3
			C901.8,328.2,902.6,329.4,903.5,330.5z"/>
		<path class="st6" d="M915.9,377.2c-3.8,2.1-7.6,4.2-11.5,6.4c-0.7-1.2-1.3-2.4-2-3.5c8.1-4.7,16.2-9.3,24.3-14
			c1.2,2.1,2.4,4.2,3.5,6.4c3,5.5,2.8,9.2-1.4,11.3c-0.4,0.2-0.8,0.4-1.1,0.6c-3.4,1.7-5.7,0.7-7.2-1c0.6,2.6-0.1,4.2-3.4,6
			c-2.1,1.1-6.2,3.1-7.5,4.3c-0.6-1.2-1.2-2.4-1.8-3.5c1.3-1.2,5.5-3.4,7.3-4.3c3.2-1.7,3.8-2.8,1.9-6.3
			C916.7,378.6,916.3,377.9,915.9,377.2z M918.1,376c0.4,0.8,0.8,1.5,1.3,2.3c1.8,3.4,3.6,3.5,6.3,2.1c0.4-0.2,0.7-0.4,1.1-0.6
			c2.3-1.2,3.2-2.8,1.2-6.5c-0.4-0.7-0.8-1.5-1.2-2.2C923.9,372.8,921,374.4,918.1,376z"/>
	</g>
</g>
<g>
	<g>
		<path class="st6" d="M426.3,715.2c1.5,1.3,3,2.6,4.5,3.8c3.7,3,4.2,6.1,1.4,9.7c-0.4,0.5-0.7,0.9-1.1,1.3
			c-2.6,3.3-5.7,4.9-10.5,0.9c-0.6-0.5-1.2-1-1.8-1.5c-2.6,3.2-5.3,6.3-7.9,9.5c-1-0.8-1.9-1.6-2.9-2.4
			C414.1,729.4,420.2,722.3,426.3,715.2z M420.5,727.5c0.5,0.4,1,0.9,1.5,1.3c3,2.4,4.6,1.2,6.4-1c0.3-0.4,0.6-0.8,0.9-1.2
			c1.4-1.8,2.2-3.7-0.4-5.8c-0.6-0.5-1.1-1-1.7-1.4C425,722,422.8,724.8,420.5,727.5z"/>
		<path class="st6" d="M462.5,742c1,0.6,1.9,1.2,2.9,1.8c-2,3.3-4.1,6.6-6.1,9.9c1.9,1.2,3.9,2.4,5.8,3.5c2-3.3,4-6.7,5.9-10
			c1,0.6,1.9,1.1,2.9,1.7c-4.7,8.1-9.4,16.2-14.1,24.3c-1-0.6-2.1-1.2-3.1-1.8c2.3-3.9,4.7-7.8,7-11.8c-2-1.2-3.9-2.4-5.9-3.6
			c-2.4,3.9-4.8,7.8-7.2,11.6c-1-0.7-2.1-1.3-3.1-2C452.5,757.8,457.5,749.9,462.5,742z"/>
		<path class="st6" d="M512.2,775.3c-1.8,4.4-3.5,8.7-5.3,13.1c-1.8,4.6-5,6-9.7,4c-4.8-2.1-5.4-5.4-3.5-9.6c2-4.3,3.9-8.6,5.9-12.9
			c2-4.3,5.2-5.6,9.2-3.9C513,767.8,513.8,771.2,512.2,775.3z M502.8,771.1c-2,4.4-3.9,8.9-5.9,13.3c-1.3,2.9-0.5,4.6,1.5,5.5
			c2.2,0.9,3.8,0.3,5.1-2.8c1.9-4.4,3.7-8.9,5.5-13.3c1.1-2.8,0.6-4.5-1.4-5.4C505.5,767.6,504,768.3,502.8,771.1z"/>
		<path class="st6" d="M546.4,782.6c-1.6-0.5-3.2-0.9-4.8-1.4c0.3-0.9,0.5-1.8,0.8-2.7c4.2,1.3,8.5,2.5,12.7,3.5
			c-0.2,0.9-0.5,1.8-0.7,2.7c-1.6-0.4-3.2-0.8-4.8-1.3c-2.2,8.1-4.5,16.3-6.7,24.4c-1.2-0.3-2.3-0.6-3.4-1
			C541.8,798.8,544.1,790.7,546.4,782.6z"/>
		<path class="st6" d="M595.8,796.7c-0.6,4.7-1.1,9.4-1.7,14c-0.6,4.9-3.3,7.1-8.2,6.4c-5.1-0.7-6.5-3.8-5.8-8.3
			c0.8-4.7,1.5-9.3,2.3-14s3.5-6.8,7.8-6.2C594.6,789.3,596.3,792.3,595.8,796.7z M585.7,795.2c-0.7,4.8-1.5,9.6-2.2,14.4
			c-0.5,3.1,0.7,4.6,2.9,4.9c2.3,0.3,3.7-0.7,4.1-4c0.6-4.8,1.2-9.5,1.9-14.3c0.4-3-0.5-4.5-2.7-4.8
			C587.5,791,586.2,792.2,585.7,795.2z"/>
		<path class="st6" d="M640.4,820.2c-0.9,0-1.9,0-2.8,0c-0.1-0.5-0.2-1.8-0.2-2.4c-0.8,2.1-2.7,2.8-4.9,2.8c-4.6,0-6-3-5.9-7.5
			c0.1-4.7,0.2-9.4,0.3-14s2.2-7.3,6.7-7.3c5.3,0,6.3,3.4,6.4,7c0,0.2,0,0.5,0,0.7c-1.1,0-2.2,0-3.3,0c0-0.3,0-0.5,0-0.8
			c0-2-0.3-4.2-3.1-4.2c-2.1,0-3.2,1.2-3.3,4.4c-0.1,4.8-0.1,9.6-0.2,14.5c0,2.8,0.8,4.5,3.2,4.6c3,0,3.5-2.4,3.5-6c0-1.5,0-3,0-4.5
			c-1.2,0-2.4,0-3.5,0c0-0.9,0-1.7,0-2.6c2.3,0,4.6,0,6.9,0C640.3,810,640.3,815.1,640.4,820.2z"/>
		<path class="st6" d="M676.6,804.6c0.5,4.3,1.1,8.7,1.6,13c-1.2,0.1-2.3,0.3-3.5,0.4c-1.1-9.3-2.1-18.6-3.2-27.9
			c1.8-0.2,3.5-0.4,5.3-0.7c4.5-0.6,7.1,0.8,7.8,5.4c0.1,0.4,0.1,0.8,0.2,1.3c0.6,3.8-0.7,5.5-2.3,6.3c2.1,0.4,3.2,1.5,3.8,5.3
			c0.4,2.4,1,6.8,1.6,8.5c-1.1,0.2-2.3,0.3-3.4,0.5c-0.7-1.7-1.2-6.3-1.5-8.3c-0.5-3.6-1.2-4.5-4.4-4.1
			C677.9,804.5,677.2,804.5,676.6,804.6z M676.3,802.1c0.7-0.1,1.4-0.2,2.1-0.3c3-0.4,3.6-2,3.1-5c-0.1-0.4-0.1-0.8-0.2-1.2
			c-0.4-2.5-1.3-3.9-4.4-3.5c-0.6,0.1-1.2,0.2-1.8,0.2C675.5,795.5,675.9,798.8,676.3,802.1z"/>
		<path class="st6" d="M721.9,800.1c0.3,3,0.5,6,0.7,9.1c-1.2,0.3-2.3,0.6-3.5,0.9c-0.5-9.5-1.1-19-1.8-28.5c1.5-0.4,3-0.8,4.5-1.2
			c4.2,8.5,8.6,17,13.1,25.4c-1.2,0.3-2.4,0.7-3.6,1c-1.4-2.7-2.7-5.4-4.1-8.2C725.5,799.2,723.7,799.6,721.9,800.1z M726.1,796.1
			c-2.8-5.7-4.8-10-5.7-12.5h-0.1c0.5,2.1,1,8.5,1.5,13.7C723.2,796.9,724.6,796.5,726.1,796.1z"/>
		<path class="st6" d="M755.7,768.8c1.8-0.7,3.5-1.4,5.2-2.2c4.2-1.8,7.1-0.8,9,3.3c0.2,0.5,0.5,1,0.7,1.6c1.7,3.8,1.7,7.3-3.8,9.7
			c-0.7,0.3-1.4,0.6-2.1,0.9c1.6,3.8,3.2,7.6,4.8,11.4c-1.1,0.5-2.2,0.9-3.3,1.4C762.7,786.1,759.2,777.5,755.7,768.8z M763.8,779.7
			c0.6-0.2,1.2-0.5,1.8-0.7c3.4-1.4,3.1-3.5,1.9-6.1c-0.2-0.5-0.4-0.9-0.6-1.4c-0.9-2.1-2.2-3.7-5.2-2.4c-0.7,0.3-1.3,0.6-2,0.8
			C761.1,773.2,762.5,776.4,763.8,779.7z"/>
		<path class="st6" d="M795.2,749.6c1-0.6,1.9-1.1,2.9-1.7c2,3.3,3.9,6.7,5.9,10c2-1.2,3.9-2.3,5.8-3.5c-2-3.3-4.1-6.6-6.1-9.9
			c1-0.6,1.9-1.2,2.9-1.8c5,7.9,10,15.8,15,23.7c-1,0.7-2.1,1.3-3.1,1.9c-2.4-3.9-4.8-7.8-7.2-11.7c-2,1.2-3.9,2.4-5.9,3.5
			c2.3,3.9,4.6,7.9,6.9,11.8c-1,0.6-2.1,1.2-3.2,1.8C804.5,765.8,799.9,757.7,795.2,749.6z"/>
		<path class="st6" d="M854.2,743.1c-2.2-2.7-4.4-5.4-6.6-8.2c-0.2-0.2-0.3-0.4-0.6-0.5c-5.1-3.1-10.2-6.2-15.2-9.5
			c1-0.8,2-1.5,3-2.3c4.4,3,9.8,6.4,11.8,8.1l0,0c-1.2-2.5-3.5-8.5-5.5-13.2c0.9-0.8,1.9-1.6,2.8-2.4c2.2,5.6,4.2,11.3,6.2,17
			c0.1,0.2,0.2,0.4,0.5,0.7c2.2,2.6,4.3,5.3,6.5,7.9C856.2,741.6,855.2,742.3,854.2,743.1z"/>
	</g>
</g>
</svg>
