<?xml version="1.0" encoding="utf-8"?>
<!-- Generator: Adobe Illustrator 27.0.0, SVG Export Plug-In . SVG Version: 6.00 Build 0)  -->
<svg version="1.1" id="Layer_1" xmlns="http://www.w3.org/2000/svg" xmlns:xlink="http://www.w3.org/1999/xlink" x="0px" y="0px"
	 viewBox="0 0 1280 1024" style="enable-background:new 0 0 1280 1024;" xml:space="preserve">
<style type="text/css">
	.st0{opacity:0.81;}
	.st1{opacity:0.7;}
	.st2{fill:#CCA64F;stroke:#CCA64F;stroke-miterlimit:10;}
	.st3{fill:none;stroke:#CCA64F;stroke-miterlimit:10;}
	.st4{enable-background:new    ;}
	.st5{fill:#8E6B26;}
</style>
<g class="st0">
	<g>
		<g>
			<g>
				<g class="st1">
					<g>
						<g>
							<path class="st2" d="M1009.1,504c0,0-0.1,1.8-0.2,5.5c-0.1,1.8-0.2,4.1-0.2,6.8c-0.1,2.7-0.2,6-0.5,9.5
								c-0.3,3.6-0.7,7.6-1.1,12.1c-0.1,2.3-0.5,4.5-0.9,6.9c-0.3,2.4-0.7,5-1.1,7.6c-0.2,1.3-0.3,2.7-0.5,4
								c-0.1,0.6-0.2,1.4-0.3,2.1s-0.2,1.4-0.3,2.1c-0.5,2.8-1.1,5.7-1.6,8.8c-0.3,1.5-0.5,3-0.9,4.5c-0.1,0.8-0.3,1.5-0.4,2.4
								c-0.2,0.8-0.3,1.6-0.5,2.4c-0.8,3.1-1.5,6.5-2.3,9.9c0,0-0.3,1.4-1.1,4.3c-0.8,2.9-2.1,7-3.7,12.7c-1.5,5.6-4.2,12.5-7,20.7
								c-0.7,2.1-1.6,4.1-2.5,6.3s-1.9,4.4-2.7,6.7c-0.4,1.2-1,2.4-1.4,3.6c-0.2,0.6-0.5,1.2-0.8,1.8c-0.3,0.5-0.5,1.2-0.9,1.8
								c-1.1,2.4-2.3,5-3.5,7.6c-0.5,1.3-1.2,2.6-1.9,3.9c-0.7,1.3-1.2,2.7-2,4c-1.4,2.7-2.8,5.4-4.4,8.2c-2.8,5.7-6.5,11.5-10,17.5
								c-0.9,1.5-1.8,3-2.7,4.5c-1,1.5-2,3-3.1,4.5c-2.1,3-4.1,6.3-6.2,9.4c-2.3,3.1-4.6,6.3-7,9.5c-1.2,1.6-2.3,3.2-3.6,4.9
								s-2.6,3.2-3.9,4.9c-1.3,1.6-2.6,3.2-3.9,5c-0.7,0.9-1.3,1.6-2,2.5s-1.4,1.6-2.2,2.5c-2.8,3.2-5.8,6.6-8.9,10
								c-0.8,0.9-1.5,1.6-2.3,2.5s-1.6,1.6-2.4,2.5c-1.6,1.6-3.2,3.2-4.8,5c-0.9,0.9-1.6,1.6-2.4,2.5l-1.2,1.3l-1.3,1.2
								c-1.8,1.6-3.5,3.2-5.3,4.9c-14.1,13.1-30.2,26.1-48.5,38.1s-38.6,23.1-61.1,32.4c-22.4,9.3-47,16.8-73.1,21.7
								c-26.2,4.9-54.1,7-83,6c-1.9-0.1-3.6-0.1-5.5-0.2s-3.6-0.3-5.5-0.4c-3.6-0.3-7.3-0.5-10.9-0.9c-1.9-0.1-3.6-0.4-5.5-0.6
								c-1.9-0.2-3.7-0.4-5.5-0.8c-1.9-0.2-3.7-0.4-5.6-0.8l-2.7-0.3c-0.9-0.1-1.9-0.3-2.7-0.4c-3.7-0.6-7.4-1.3-11.2-1.9
								c-1.9-0.3-3.7-0.6-5.6-1.1c-1.9-0.4-3.7-0.9-5.6-1.3c-3.7-0.9-7.4-1.7-11.2-2.6c-3.7-1.1-7.4-2.1-11.2-3.1
								c-1.9-0.5-3.7-1.1-5.6-1.6c-1.9-0.6-3.7-1.3-5.6-1.8c-3.7-1.3-7.4-2.5-11.2-3.8c-3.7-1.4-7.4-2.9-11.1-4.3
								c-1.9-0.8-3.7-1.4-5.6-2.2c-1.9-0.9-3.6-1.6-5.5-2.5c-3.7-1.6-7.3-3.2-11.1-5c-3.6-1.8-7.2-3.7-10.8-5.5
								c-1.8-1-3.7-1.8-5.5-2.8s-3.6-2.1-5.4-3c-1.8-1-3.6-2.1-5.4-3c-1.8-1-3.6-2.1-5.4-3.1c-3.5-2.2-7-4.4-10.5-6.7
								c-0.9-0.5-1.8-1.1-2.6-1.7l-2.6-1.8c-1.8-1.2-3.4-2.4-5.1-3.6c-1.8-1.2-3.4-2.4-5.1-3.7c-0.9-0.5-1.8-1.2-2.5-1.9l-2.5-1.9
								c-3.4-2.6-6.7-5.2-10.1-7.8c-13.1-10.9-25.8-22.8-37.8-35.7c-11.8-13-22.9-27.1-33.2-41.9c-2.4-3.8-4.9-7.6-7.4-11.4
								c-1.3-1.8-2.4-3.9-3.5-5.8c-1.1-1.9-2.3-3.9-3.4-6c-1.1-1.9-2.3-3.9-3.4-6s-2.1-4.1-3.2-6.2c-1.1-2.1-2.1-4.1-3.2-6.2
								c-0.5-1.1-1.1-2.1-1.5-3.1l-1.4-3.1c-2-4.2-3.9-8.4-5.8-12.7c-1.8-4.3-3.5-8.7-5.3-13c-0.4-1.1-0.9-2.2-1.3-3.2l-1.1-3.4
								c-0.8-2.3-1.5-4.4-2.3-6.7s-1.5-4.4-2.3-6.7c-0.7-2.3-1.3-4.5-2-6.8c-2.8-9.1-4.9-18.4-7-27.8c-0.9-4.8-1.8-9.5-2.6-14.3
								c-0.2-1.2-0.4-2.4-0.7-3.6l-1-3.5c-0.3-2.4-0.7-4.9-1-7.3l-0.7-5.2c-0.2-1.7-0.3-3.5-0.5-5.2c0,0-0.3-4.2-1-12.8
								c0-0.5-0.1-1.1-0.1-1.6s0-1.2,0-1.7c0-1.2-0.1-2.5-0.1-3.8c-0.1-2.7-0.1-5.5-0.2-8.8c0-1.6-0.1-3.2-0.1-5
								c0-1.7,0.1-3.5,0.1-5.3c0.1-3.7,0.2-7.7,0.3-11.9c1-16.8,3.1-37.9,8.6-62.4c0.7-3,1.4-6.2,2.2-9.4c0.9-3.1,1.8-6.4,2.7-9.6
								c0.4-1.6,1-3.2,1.4-5c0.2-0.9,0.4-1.6,0.7-2.5c0.2-0.9,0.5-1.6,0.9-2.5c1.1-3.4,2.3-6.7,3.5-10.2c0.5-1.7,1.1-3.5,1.9-5.2
								c0.7-1.7,1.4-3.5,2.1-5.2c1.4-3.5,2.8-7.1,4.3-10.7c1.6-3.6,3.3-7.1,4.9-10.8c0.9-1.8,1.6-3.7,2.6-5.5s1.9-3.7,2.8-5.5
								c0,0,1.6-3.1,4.4-8.6c1.5-2.7,3.4-6,5.6-9.7c1.1-1.8,2.2-3.9,3.5-6s2.7-4.2,4.2-6.5c11.5-18.2,29.2-41.7,51-63.1
								s47.3-41,70.6-54.5c3-1.7,5.8-3.4,8.5-4.9c1.4-0.8,2.7-1.6,4.2-2.3c1.4-0.6,2.7-1.4,4.1-2.1c2.6-1.4,5.3-2.7,7.7-4
								c1.2-0.6,2.4-1.3,3.6-1.8s2.4-1.1,3.5-1.6c4.6-2.1,8.8-4,12.3-5.6c3.6-1.5,6.7-2.7,9.1-3.7c0,0,1-0.4,2.8-1.2
								s4.6-1.9,8.4-3.2c3.8-1.3,8.4-3,14.1-4.9c2.8-0.9,5.9-1.7,9.3-2.7c3.3-1,6.8-2.1,10.7-2.9c3.8-1,7.9-1.9,12.2-2.9
								c2.2-0.5,4.4-0.9,6.7-1.3c2.3-0.4,4.6-0.9,7-1.3s4.8-1,7.3-1.3s5.1-0.6,7.8-1.1c2.6-0.3,5.4-0.8,8.1-1.1
								c1.4-0.2,2.7-0.3,4.2-0.4c1.4-0.1,2.8-0.2,4.3-0.3c23-2.1,50-2.4,80,1.4c1.9,0.2,3.7,0.4,5.7,0.6c1.9,0.2,3.8,0.6,5.7,1
								c3.8,0.6,7.8,1.3,11.7,1.9c2,0.3,3.9,0.9,5.9,1.2c2,0.4,3.9,0.9,6,1.3c2,0.4,4.1,0.9,6,1.3l1.5,0.3l1.5,0.4
								c1,0.3,2,0.5,3.1,0.9c4.1,1.1,8.2,2.3,12.4,3.4c4.2,1.3,8.2,2.7,12.5,4.1c2.1,0.8,4.3,1.3,6.3,2.2c2.1,0.8,4.2,1.6,6.3,2.4
								s4.3,1.6,6.3,2.5c1.1,0.4,2.2,0.9,3.2,1.2c1.1,0.4,2.1,1,3.2,1.4c4.3,1.8,8.5,3.8,12.8,5.6c4.3,2.2,8.5,4.2,12.8,6.4
								c1.1,0.5,2.2,1.1,3.3,1.6c1.1,0.6,2.1,1.2,3.2,1.8c2.1,1.2,4.3,2.4,6.3,3.7c2.2,1.2,4.3,2.4,6.5,3.7c2.1,1.3,4.2,2.7,6.3,4
								c17,10.7,33.8,23.2,50,37.7c16.1,14.5,31.4,31,45.5,49.4s26.8,38.7,37.7,60.7c21.8,44.1,35.2,95.5,36.2,150.3c0,0,0-1,0-2.8
								c0-1,0-2.1,0-3.5s0-3-0.2-4.9c-0.2-3.7-0.5-8.2-0.9-13.5c-0.1-2.7-0.5-5.5-0.9-8.7c-0.3-3.1-0.8-6.4-1.2-9.9
								c-0.1-0.9-0.2-1.7-0.3-2.7c-0.1-0.9-0.3-1.8-0.4-2.7c-0.3-1.8-0.7-3.7-1-5.6s-0.7-3.9-1-6c-0.2-1-0.3-2.1-0.5-3
								c-0.2-1-0.4-2.1-0.7-3.1c-1-4.2-2-8.6-3-13.1c-0.4-2.3-1.2-4.5-1.9-6.9s-1.3-4.8-2-7.1c-5.7-19.4-13.9-41.1-25.7-64
								c-0.8-1.4-1.4-2.9-2.2-4.3c-0.3-0.8-0.8-1.4-1.1-2.2c-0.4-0.8-0.9-1.4-1.2-2.2c-1.6-2.8-3.3-5.7-5-8.7
								c-0.9-1.5-1.6-2.9-2.5-4.4c-0.9-1.4-1.9-2.9-2.8-4.3c-1.9-2.9-3.8-5.8-5.7-8.8c-0.9-1.5-2-2.9-3.1-4.4s-2.1-2.9-3.2-4.3
								c-1.1-1.5-2.1-2.9-3.2-4.4c-1.1-1.5-2.1-3-3.3-4.4c-2.3-2.9-4.6-5.8-7-8.8c-2.3-3-4.8-5.8-7.3-8.8s-5-5.8-7.7-8.7
								c-2.7-2.8-5.5-5.6-8.2-8.6l-2.1-2.2l-1.1-1.1l-1.1-1.1c-1.4-1.4-3-2.7-4.4-4.1c-1.4-1.4-3-2.8-4.5-4.2s-3-2.8-4.6-4.1
								c-3.2-2.7-6.3-5.4-9.5-8.1c-0.8-0.6-1.6-1.4-2.4-2.1l-2.5-1.9c-1.6-1.3-3.4-2.6-5-3.9c-1.6-1.3-3.4-2.6-5-3.9
								c-0.9-0.6-1.8-1.3-2.6-1.9l-2.6-1.8c-3.5-2.5-7.1-5-10.7-7.5c-14.7-9.6-30.4-18.5-47.2-26.5c-16.7-7.8-34.7-14.5-53.3-19.9
								c-18.6-5.5-38.2-9.3-58.2-11.8c-20-2.4-40.7-3.4-61.6-2.3c0,0-1.4,0-4.5,0c-3,0.2-7.4,0.4-13.6,0.8c-1.5,0.1-3.2,0.2-4.8,0.3
								c-1.8,0.2-3.5,0.4-5.4,0.6c-3.8,0.4-8,1-12.6,1.4c-4.6,0.8-9.5,1.6-15,2.5c-1.3,0.2-2.7,0.4-4.2,0.8c-1.4,0.3-2.7,0.6-4.3,1
								c-2.8,0.6-5.8,1.3-8.9,1.9c-1.5,0.3-3.1,0.6-4.7,1.1c-1.5,0.4-3.2,0.9-4.8,1.3c-3.3,0.9-6.6,1.8-10.1,2.8
								c-0.9,0.2-1.8,0.4-2.6,0.8c-0.9,0.3-1.8,0.5-2.6,0.9c-1.8,0.5-3.5,1.2-5.3,1.7c-1.8,0.6-3.6,1.2-5.5,1.8s-3.7,1.2-5.6,1.9
								c-3.7,1.4-7.6,2.9-11.5,4.4c-1,0.4-2,0.8-3,1.2s-2,0.9-3,1.3c-2,0.9-3.9,1.7-6,2.7s-4.1,1.8-6.1,2.8c-1.1,0.4-2.1,1-3.1,1.5
								s-2.1,1.1-3.1,1.5c-2.1,1.1-4.2,2.2-6.3,3.2c-2.1,1.1-4.3,2.1-6.3,3.4c-4.3,2.4-8.5,4.9-13,7.5c-4.4,2.7-8.6,5.5-13.1,8.4
								c-8.9,6-17.8,12.5-26.8,19.7c-18,14.5-36,31.8-52.9,52.4c0,0,0.8-1,2.7-3.4c1-1.2,2.2-2.7,3.8-4.7c0.8-1,1.6-2.1,2.6-3.2
								c0.5-0.5,1-1.2,1.5-1.8c0.5-0.6,1.1-1.3,1.8-1.9c2.4-2.7,5.4-5.7,8.6-9.3c1.6-1.8,3.5-3.6,5.6-5.5c2-1.9,4.2-4,6.3-6.3
								c2.2-2.3,4.8-4.4,7.4-6.7c2.6-2.4,5.5-4.9,8.4-7.4c6.2-4.9,12.8-10.5,20.8-16c15.5-11.2,35-23.4,59.4-34.6
								c24.5-11.3,54.1-21.9,89.4-28c2.2-0.4,4.4-0.8,6.7-1.2c1.1-0.2,2.3-0.3,3.4-0.5c1.1-0.1,2.3-0.3,3.4-0.4
								c4.6-0.5,9.3-1.2,14-1.7c4.8-0.3,9.6-0.8,14.6-1.1c1.2-0.1,2.5-0.2,3.7-0.2s2.5-0.1,3.7-0.1c2.5-0.1,5-0.1,7.6-0.2
								c20.4-0.4,42.1,0.8,64.8,4.2c22.8,3.5,46.5,9.3,70.6,18.2s48.6,20.8,72.6,36.2c0,0-1.1-0.6-3.5-2.3c-1.2-0.8-2.8-1.8-4.8-3
								s-4.5-2.6-7.3-4.2c-1.4-0.9-3-1.7-4.7-2.7c-0.9-0.4-1.6-1-2.6-1.5c-0.4-0.2-0.9-0.5-1.3-0.8c-0.4-0.2-1-0.4-1.4-0.8
								c-3.9-1.9-8.3-4.2-13.4-6.7c-1.2-0.6-2.5-1.2-3.8-1.8s-2.7-1.2-4.2-1.8c-2.8-1.3-5.8-2.6-8.9-4c-3.2-1.3-6.6-2.6-10-3.9
								c-3.5-1.3-7.1-2.9-11.1-4.1c-3.8-1.3-7.9-2.6-12.2-4c-0.5-0.2-1.1-0.3-1.6-0.5c-0.5-0.1-1.1-0.3-1.6-0.4
								c-1.1-0.3-2.2-0.6-3.3-1c-2.2-0.6-4.5-1.3-6.8-1.9c-1.2-0.3-2.3-0.6-3.5-1c-1.2-0.3-2.4-0.6-3.6-1c-2.4-0.5-4.9-1.1-7.4-1.7
								c-2.5-0.6-5.1-1.2-7.8-1.7c-1.3-0.3-2.6-0.5-4.1-0.8c-1.3-0.2-2.7-0.4-4.1-0.8c-22-4-47.6-6.6-76.7-5.8
								c-3.6,0.1-7.3,0.1-11.1,0.3c-3.7,0.3-7.6,0.5-11.4,0.9c-2,0.1-3.8,0.3-5.8,0.4c-2,0.2-3.9,0.4-5.9,0.8c-3.9,0.5-8,1-12,1.5
								c-4.1,0.6-8.1,1.4-12.3,2.2c-2.1,0.3-4.2,0.8-6.2,1.1c-2.1,0.4-4.2,1-6.3,1.4c-4.3,1-8.5,1.9-12.8,3c-4.3,1.2-8.6,2.5-13,3.7
								c-17.5,5.3-35.7,12.1-54,20.8c-18.3,8.9-36.8,19.6-55,32.7c0,0,0.9-0.6,2.5-1.8c0.9-0.6,1.9-1.3,3.1-2.3
								c1.2-0.9,2.6-1.9,4.3-3c3.3-2.2,7.3-4.8,12-7.9c1.2-0.8,2.4-1.5,3.7-2.3c1.3-0.8,2.6-1.5,4.1-2.4c2.7-1.6,5.7-3.4,8.9-5.2
								c3.2-1.6,6.6-3.5,10.1-5.3c1.8-0.9,3.5-1.8,5.4-2.8s3.8-1.7,5.7-2.7c3.9-1.7,8-3.7,12.2-5.5c4.3-1.7,8.8-3.5,13.2-5.3
								c18.4-6.9,39.5-13.1,62.6-17.3c0,0-0.8,0.1-2.4,0.4c-0.8,0.1-1.8,0.3-3,0.5c-0.5,0.1-1.2,0.2-1.9,0.3s-1.4,0.3-2.2,0.5
								c-6.1,1.5-15.4,3.4-27.4,7c-6,1.6-12.6,4-19.9,6.5c-0.9,0.3-1.9,0.6-2.7,1c-1,0.3-1.9,0.8-2.8,1.1c-1.9,0.8-3.8,1.5-5.8,2.3
								s-3.9,1.6-6,2.4c-1,0.4-2.1,0.8-3.1,1.3c-1,0.4-2.1,1-3.2,1.4c-4.2,1.9-8.5,3.9-13.1,6c-4.4,2.3-9,4.7-13.8,7
								c-0.5,0.3-1.2,0.6-1.8,1c-0.5,0.3-1.2,0.6-1.8,1c-1.2,0.6-2.4,1.4-3.5,2.1c-2.4,1.4-4.8,2.8-7.3,4.2s-4.9,3-7.4,4.5
								c-2.5,1.6-4.9,3.1-7.6,4.9c-2.6,1.6-5,3.4-7.6,5.2c-2.5,1.8-5.1,3.7-7.8,5.5c-0.7,0.4-1.3,1-2,1.4c-0.7,0.5-1.3,1-1.9,1.5
								c-1.3,1-2.5,2.1-3.8,3c-2.6,2.1-5.3,4.1-7.9,6.2c-2.5,2.2-5.1,4.4-7.8,6.7c-1.3,1.2-2.6,2.3-3.9,3.5c-0.7,0.5-1.3,1.2-2,1.7
								c-0.7,0.6-1.3,1.2-2,1.8c-5.1,4.9-10.5,9.7-15.5,15.3c-2.5,2.7-5.3,5.4-7.8,8.2s-5,5.7-7.6,8.7c-1.3,1.5-2.6,2.9-3.8,4.4
								s-2.4,3.1-3.7,4.7c-2.4,3.1-4.9,6.3-7.4,9.5c-4.7,6.6-9.6,13.2-14.1,20.5c-1.1,1.7-2.3,3.6-3.4,5.3c-0.5,0.9-1.1,1.8-1.8,2.7
								c-0.5,1-1.1,1.8-1.6,2.8c-2.2,3.7-4.3,7.5-6.5,11.3c-8.3,15.4-16,31.9-22.6,49.6c-6.3,17.8-11.7,36.5-15.5,56.2
								c-3.9,19.7-6,40.4-6.3,61.7s1.1,43.3,4.7,65.6c-0.2-1.1-0.4-2.2-0.5-3.4c-0.1-1.1-0.3-2.2-0.4-3.2c-0.2-2.2-0.5-4.2-0.8-6.2
								c-0.2-1.9-0.5-3.9-0.8-5.7c-0.1-1-0.2-1.8-0.3-2.7c-0.1-0.9-0.1-1.7-0.2-2.6c-0.2-3.5-0.5-6.6-0.8-9.5
								c-0.1-1.4-0.2-2.8-0.3-4.2c0-0.6-0.1-1.3-0.1-1.9s0-1.3,0-1.8c-0.2-9.7-0.4-15.4-0.4-17.3c0.1-2.1-0.1-0.5,0.1,4.2
								c0.1,2.4,0.1,5.4,0.2,9.3c0.1,1.9,0.1,4,0.2,6.3c0.2,2.3,0.3,4.8,0.5,7.4c0.2,2.6,0.4,5.4,0.7,8.3c0,0.8,0.1,1.5,0.2,2.3
								s0.2,1.5,0.3,2.3c0.2,1.5,0.4,3.1,0.7,4.8c0.4,3.2,0.9,6.6,1.3,10.2c0.5,3.6,1.3,7.1,2,10.9c1.2,7.6,3.3,15.6,5.3,24.1
								c0.1,0.5,0.2,1.1,0.4,1.6c0.1,0.5,0.3,1.1,0.4,1.6c0.3,1.1,0.7,2.2,1,3.2c0.7,2.2,1.2,4.3,1.9,6.6c0.7,2.2,1.2,4.4,2,6.7
								s1.5,4.5,2.3,6.8c6.2,18.4,14.6,38,25.4,57.7s24.2,39.6,40.2,58.6c15.9,18.9,34.4,36.9,54.8,52.9c20.5,16,43,30.2,66.8,41.8
								c23.8,11.7,48.7,20.5,73.9,26.6c25.2,6.2,50.4,9.4,74.8,10.4c24.3,0.9,47.7-0.5,69.5-3.7c21.7-3.2,41.6-8.2,59.2-13.9
								c17.7-5.4,33-12.1,46-18.1c3.2-1.6,6.2-3.1,9.2-4.5s5.7-2.8,8.2-4.2c5.1-2.8,9.7-5.3,13.7-7.6c0,0,4.9-3.1,13.6-8.6
								c4.2-2.9,9.3-6.5,15.1-10.5c2.8-2.2,5.8-4.5,9-6.9c1.5-1.2,3.2-2.5,4.8-3.8s3.2-2.7,4.9-4.1c1.8-1.4,3.4-2.9,5-4.3
								c1.8-1.5,3.5-2.9,5.3-4.5c3.4-3.2,7-6.6,10.6-10c3.5-3.6,7.1-7.3,10.7-11c0.9-1,1.9-1.8,2.7-2.9c0.9-1,1.8-1.9,2.6-3
								c1.8-2.1,3.5-4.1,5.4-6.1c14.2-16.6,27.8-35.6,39.4-55.9c11.6-20.2,21.1-41.6,28.1-62.3c0.9-2.6,1.8-5.2,2.6-7.7
								c0.4-1.3,0.9-2.6,1.2-3.8c0.3-1.3,0.8-2.6,1.1-3.8c0.8-2.5,1.4-5.1,2.2-7.6c0.3-1.3,0.7-2.5,1.1-3.7c0.3-1.3,0.5-2.5,0.9-3.7
								c1.1-4.9,2.2-9.6,3.3-14.3c0.9-4.7,1.6-9.2,2.4-13.5c0.9-4.3,1.2-8.6,1.8-12.6c0.2-1.9,0.4-3.9,0.8-5.8
								c0.2-1.9,0.5-3.8,0.5-5.5c0.2-3.6,0.4-6.9,0.7-10.1c0.1-1.5,0.2-3,0.3-4.5c0.1-1.4,0.2-2.8,0.2-4.1
								c0.1-10.5,0.1-16.7-0.1-17.2"/>
							<path class="st3" d="M397.4,232.8c0,0,1.1-1,3.2-2.8c1.1-1,2.3-2.1,3.8-3.5c1.5-1.3,3.3-3,5.5-4.7c2.1-1.7,4.5-3.6,7.1-5.7
								c1.3-1.1,2.7-2.2,4.2-3.4c1.4-1.1,3.1-2.3,4.6-3.4c3.3-2.4,6.7-4.9,10.4-7.6c3.8-2.5,8-5.2,12.3-8c2.2-1.5,4.5-2.8,6.9-4.1
								c2.4-1.4,4.8-2.8,7.3-4.2c1.2-0.8,2.5-1.5,3.8-2.2s2.6-1.4,3.9-2.1c2.7-1.4,5.5-2.8,8.2-4.3s5.8-2.8,8.8-4.2
								c3.1-1.4,6.1-2.8,9.2-4.2c3.2-1.4,6.5-2.6,9.7-4c1.6-0.6,3.4-1.3,5-2.1c0.9-0.3,1.8-0.6,2.5-1c0.9-0.3,1.8-0.6,2.6-1
								c3.5-1.2,7.1-2.5,10.7-3.7c0.9-0.3,1.9-0.6,2.7-1l1.4-0.4l1.4-0.4c1.9-0.5,3.8-1.1,5.7-1.6c2-0.5,3.8-1.1,5.8-1.7
								c1-0.3,2-0.5,3-0.9c1-0.3,2-0.5,3-0.8c4.1-1,8.1-1.9,12.3-2.9c16.6-3.6,34.5-6.7,53.4-7.9c2.4-0.2,4.7-0.4,7.1-0.5
								c2.4-0.1,4.8-0.1,7.2-0.2c2.4-0.1,4.9-0.1,7.3-0.2c1.2,0,2.4-0.1,3.7-0.1c1.2,0,2.5,0,3.7,0.1c4.9,0.1,10.1,0.2,15.1,0.3
								c5,0.3,10.2,0.8,15.4,1.1c20.8,1.8,42.3,5.5,64,11.3c21.8,5.8,43.8,14,65.5,24.5c21.7,10.6,42.9,23.6,63.2,39.2
								c20.1,15.6,39.3,33.7,56.6,54.1l1.6,1.9c0.5,0.6,1.1,1.3,1.5,1.9c1.1,1.3,2.1,2.6,3.1,3.9c2.1,2.6,4.2,5.3,6.2,7.9
								c2,2.7,3.9,5.5,5.9,8.2c1,1.4,2,2.8,3,4.1l1.5,2.1l1.4,2.2c1.9,2.8,3.7,5.7,5.6,8.7c0.9,1.4,1.9,2.9,2.7,4.3
								c0.9,1.5,1.8,3,2.6,4.4c1.8,3,3.5,6,5.1,9c0.9,1.5,1.6,3,2.4,4.5c0.8,1.5,1.6,3.1,2.4,4.7c12.7,24.8,23,51.5,29.6,79.6
								c6.7,28,10.1,57.4,9.9,87.2"/>
						</g>
						<path class="st3" d="M282.9,420.6c0,0,0.4-1.7,1.1-5c0.2-0.9,0.4-1.7,0.7-2.8c0.2-1,0.5-2.2,0.9-3.4c0.7-2.4,1.4-5.2,2.3-8.3
							c0.4-1.6,0.9-3.2,1.3-5c0.4-1.7,1.1-3.6,1.8-5.4c1.2-3.8,2.6-7.9,4.1-12.3c1.6-4.3,3.5-9.1,5.5-14.1c0.9-2.5,2.1-5,3.3-7.6
							c1.2-2.6,2.3-5.3,3.6-8c0.7-1.4,1.2-2.8,1.9-4.1c0.7-1.3,1.4-2.7,2.1-4.2c1.4-2.8,2.8-5.7,4.4-8.7c0.3-0.8,0.8-1.5,1.1-2.2
							c0.4-0.8,0.9-1.5,1.2-2.2c0.9-1.5,1.6-2.9,2.5-4.4c1.8-3,3.4-6.1,5.3-9.2c2-3,3.9-6.2,5.9-9.3c1-1.6,2-3.1,3.1-4.8
							c1.1-1.6,2.2-3.1,3.3-4.8c2.2-3.1,4.5-6.4,6.8-9.6c2.4-3.1,4.9-6.4,7.4-9.6c1.3-1.6,2.5-3.2,3.8-4.9s2.7-3.1,4.2-4.8
							c1.4-1.6,2.7-3.2,4.2-4.9c1.4-1.6,2.7-3.4,4.4-4.9c3.1-3.1,6-6.4,9.2-9.6c1.5-1.6,3.2-3.2,4.8-4.8c1.6-1.6,3.3-3.1,4.9-4.8
							s3.3-3.2,5-4.8c1.8-1.5,3.5-3,5.3-4.5s3.5-3.1,5.4-4.7c0.9-0.8,1.8-1.6,2.7-2.3c1-0.8,1.9-1.5,2.8-2.3c3.8-2.9,7.6-6.1,11.5-9
							c3.9-2.8,8-5.7,12.2-8.7c16.5-11.3,34.6-21.7,54.1-30.5c19.4-9,40.2-16.5,62-22.2c43.6-11.3,91.1-14.7,138.5-9
							c23.6,2.8,47.3,8,70.2,15.5s45.1,17.2,66.1,29c41.9,23.5,78.8,55.2,107.5,91.4"/>
					</g>
				</g>
			</g>
		</g>
	</g>
</g>
<g>
	<g>
		<g>
			<g>
				<g class="st1">
					<g>
						<g>
							<path class="st2" d="M987,438.2c2.5,16.9,4,34.4,4.6,50.7c0,4.3,0,8.7,0,12.9c0,2.1,0,4.2-0.1,6.3c-0.1,2.1-0.2,4.1-0.4,6.2
								c-0.1,2.1-0.2,4.1-0.4,6.1s-0.2,4-0.5,6.1c-0.4,4-1,7.9-1.4,11.9c-2.3,15.7-5.1,31.3-9.3,47.8c-5.2,20.7-12.5,40.7-21.5,60
								c-9.1,19.4-19.9,38.1-32.5,56.3c-23.2,33.5-52.6,63.5-86.4,87.8c-17,12-35,22.6-53.7,31.6l-7,3.3c-2.4,1.1-4.7,2.3-7.2,3.1
								c-4.9,2-9.6,3.9-14.4,5.9c-4.9,1.6-9.9,3.4-14.7,5.1c-2.4,0.9-5,1.5-7.5,2.3l-7.5,2.2c-18.9,5.1-37.8,8.7-56.8,10.7
								s-37.9,2.4-56.7,1.5c-18.7-0.8-37.3-3.4-55.4-7c-9.1-1.7-18-4.2-26.9-6.6c-4.4-1.4-8.8-2.7-13.2-4.1
								c-2.2-0.7-4.3-1.4-6.5-2.3l-6.5-2.4c-2.2-0.8-4.3-1.5-6.5-2.4l-6.4-2.7l-6.4-2.7c-1.1-0.4-2.2-0.9-3.1-1.3l-3.1-1.5l-12.4-6
								l-12.1-6.5c-15.9-9-31.3-19.1-45.7-30.3c-14.4-11.4-28-23.8-40.6-37.3s-24.1-28.2-34.7-43.6c-24.4-35.9-43.7-78.8-53.9-124.4
								c-5.1-22.8-8-46.2-8.7-69.5s1-46.5,4.6-68.8c2.7-16.4,7.2-36.7,14.6-58.2c7.4-21.6,17.6-44.2,29.9-65.2
								c12.4-21.1,26.8-40.5,41-56.8c1.8-2.1,3.6-4,5.3-6c0.9-1,1.7-2,2.6-2.9c0.9-1,1.7-1.8,2.7-2.7c3.6-3.6,6.9-7,10.2-10.3
								c6.8-6.3,12.7-12.1,18.2-16.6c-1.8,1.5-3.7,3-5.5,4.6c-1.7,1.6-3.6,3.3-5.3,4.9s-3.6,3.3-5.3,4.9l-2.7,2.4
								c-0.9,0.9-1.7,1.7-2.6,2.6c-3.4,3.5-6.8,6.8-10.2,10.3c-3.3,3.6-6.5,7.2-9.8,10.8c-12.7,14.6-24.4,30.3-34.8,46.8
								c-2.5,4.2-5,8.3-7.6,12.5c-2.3,4.3-4.7,8.6-6.9,12.8c-0.5,1.1-1.2,2.2-1.7,3.3l-1.6,3.3c-1.1,2.2-2.1,4.3-3.1,6.5l-1.6,3.3
								c-0.5,1.1-1.1,2.2-1.5,3.3c-1,2.2-1.8,4.4-2.8,6.6s-1.8,4.4-2.8,6.6s-1.6,4.4-2.5,6.7c-0.9,2.3-1.6,4.4-2.5,6.7l-1.2,3.4
								c-0.4,1.1-0.8,2.3-1.1,3.4c-1.4,4.6-2.8,9.1-4.2,13.5c-1.2,4.6-2.4,9.1-3.6,13.7l2-7.5l1-3.8c0.3-1.2,0.7-2.5,1-3.7
								c1.5-4.9,3-9.9,4.6-14.8c1.7-4.9,3.5-9.8,5.2-14.6l0.7-1.8l0.8-1.8l1.5-3.6l2.9-7.2c8.2-19.1,18.1-37.5,29.5-55
								c11.4-17.4,24.4-34.1,38.7-49.3c14.4-15.3,30.1-29.3,46.9-41.7c16.8-12.6,34.6-23.8,53.2-33.2s38-17.2,57.9-23.4l7.5-2.2
								c2.5-0.8,5-1.5,7.5-2.1c5.1-1.2,10.1-2.5,15.1-3.7c5.1-1,10.2-2,15.2-2.9c1.3-0.2,2.5-0.4,3.8-0.7l3.8-0.5
								c2.5-0.3,5.1-0.8,7.6-1.1c20.4-2.6,41-3.4,61.2-2.6c-19-0.8-38.1-0.2-57,2c-19,2.3-37.6,6-56,10.9l-13.7,4l-13.4,4.7
								l-3.4,1.2l-3.3,1.3l-6.6,2.7l-6.6,2.7l-6.5,3l-6.5,3l-3.3,1.5c-1.1,0.5-2.2,1.1-3.1,1.6l-12.6,6.6c-4.1,2.3-8.1,4.8-12.2,7.3
								l-3,1.8l-1.5,0.9l-1.5,1l-6,3.9c-8,5.1-15.5,10.9-23.2,16.5l-11.1,9l-2.7,2.3l-2.6,2.4l-5.3,4.8l-5.3,4.8
								c-1.7,1.6-3.4,3.4-5,5l-5,5l-2.5,2.5c-0.9,0.9-1.6,1.7-2.4,2.6l-9.5,10.5c-3,3.6-6,7.3-9,10.9
								c-11.7,14.8-22.3,30.5-31.8,46.7c-9.2,16.4-17.2,33.5-23.9,50.9c-6.8,17.4-11.9,35.5-15.8,53.7c-1,4.6-2.1,9.1-2.7,13.8
								l-1.1,6.9l-0.5,3.5c-0.2,1.2-0.4,2.3-0.5,3.5c-0.5,4.7-1.1,9.2-1.6,13.9c-0.3,2.3-0.4,4.7-0.5,6.9l-0.4,6.9l-0.2,3.5
								c-0.1,1.2-0.1,2.3-0.1,3.5l-0.1,6.9c-0.1,4.7-0.2,9.3,0,13.9c0.1,4.7,0.2,9.2,0.4,13.9c0.3,4.6,0.8,9.2,1.1,13.8
								c1.8,18.3,5,36.5,9.3,54.3c4.6,17.8,10.4,35.1,17.3,51.9c7.2,16.7,15.4,32.8,24.6,48.4c2.4,3.8,4.9,7.6,7.3,11.4
								c1.2,1.8,2.4,3.8,3.7,5.6l3.9,5.4l3.9,5.4c1.3,1.8,2.6,3.7,4,5.4c2.8,3.5,5.5,7,8.3,10.5c0.7,0.9,1.4,1.7,2.1,2.6l2.2,2.5
								l4.4,5l4.4,5c1.5,1.6,3,3.3,4.7,4.9c3.1,3.1,6.2,6.4,9.3,9.5c3.3,3,6.5,6.1,9.8,9.1c-2-1.7-3.8-3.5-5.7-5.2l-2.9-2.6
								c-1-0.9-2-1.7-2.8-2.7c-3.7-3.7-7.4-7.5-11.1-11.2c-3.6-3.9-7-7.8-10.6-11.8c-0.9-1-1.7-2-2.6-3l-2.5-3.1
								c-1.6-2.1-3.4-4.1-5-6.3c-13.2-16.8-25.2-34.9-35.8-54.3c-10.5-19.3-19.3-39.9-26.1-61.3c-6.8-21.5-11.8-43.7-14.6-66.4
								c-5.6-45.4-2.6-92.7,9.3-137.8c11.9-45.2,32.6-88.4,60.9-126c14.1-18.9,30-36.2,47.5-51.9c17.4-15.7,36.3-29.6,56.1-41.6
								C482,159.2,526,143,570.7,135.6c44.6-7.5,89.8-6.3,132.2,2.2c21.2,4.2,41.8,10.2,61.4,17.8c2.4,1,4.9,2,7.3,2.9l3.7,1.5
								l1.8,0.8l1.7,0.9c4.8,2.2,9.4,4.3,14.2,6.5c4.6,2.4,9.2,4.8,13.8,7c2.3,1.1,4.4,2.5,6.7,3.7c2.2,1.3,4.4,2.6,6.6,3.8
								c1.3,0.8,2.7,1.5,4,2.3c1.3,0.9,2.6,1.7,3.9,2.5c2.6,1.7,5.3,3.4,8,5.1c2.7,1.6,5.3,3.6,7.9,5.4c2.6,1.8,5.2,3.7,7.7,5.5
								l2,1.3c0.7,0.4,1.2,1,1.8,1.4c1.2,1,2.4,2,3.6,2.8c2.4,1.8,4.8,3.7,7,5.5c0.5,0.4,1.2,0.9,1.7,1.3c0.5,0.4,1.1,1,1.6,1.4
								c1.1,1,2.2,1.8,3.3,2.7c2.1,1.8,4.1,3.6,6.1,5.3c-15-13.5-31.4-26-49.1-37.2s-36.4-21-56.1-29.3c-19.7-8.2-40.5-15-61.9-19.7
								c-21.5-4.8-43.5-7.7-65.8-8.6c-44.6-1.8-90.5,4.6-133.9,19.5c-43.5,15-84.5,38.4-119.9,68.6c-35.3,30.3-64.9,67.6-86.3,109
								c-21.5,41.3-34.7,86.6-39.2,132.3c-4.6,45.6-0.3,91.7,11.7,134.5c6,21.5,14,42.2,23.4,61.8c2.5,4.9,5,9.6,7.5,14.5
								c2.6,4.8,5.4,9.3,8.1,14.1c0.7,1.2,1.3,2.4,2.1,3.5l2.2,3.4c1.5,2.3,2.9,4.4,4.3,6.7l2.2,3.4c0.8,1.1,1.4,2.3,2.3,3.3
								c1.6,2.2,3.1,4.3,4.7,6.5l4.3,6l1.1,1.5l1.2,1.4l2.3,2.8l4.6,5.7l2.3,2.8l1.2,1.4l1.2,1.4l9.8,10.9l1.2,1.4
								c0.4,0.4,0.9,0.9,1.3,1.3l2.6,2.6l5.2,5.2c14,13.8,28.9,26.4,44.9,37.9c16,11.4,32.9,21.5,50.6,30.1l6.6,3.1l3.4,1.6l1.6,0.8
								l1.7,0.8l13.7,5.7c4.6,1.7,9.2,3.5,13.9,5.1l3.5,1.3l3.6,1.1l7,2.2c75.5,23.5,159.4,21.1,234.7-7
								c40.9-15.3,79.2-37.9,112.5-66.4c34-29.4,62.6-65.2,83.9-105s35-83.5,40.5-128.1c2.5-19.7,3.6-43.7,2.1-68.6
								c-1.6-24.9-6.2-50.8-12.9-74.6c-0.9-2.9-1.7-5.9-2.6-8.8c-0.4-1.4-0.9-2.9-1.3-4.3c-0.4-1.4-1-2.8-1.4-4.2
								c-1-2.8-2-5.5-2.9-8.2s-1.8-5.4-3-8c-2.2-5.2-4.2-10.2-6.3-14.8c-2.3-4.7-4.4-9.1-6.5-13.3c-0.5-1.1-1-2.1-1.5-3.1
								s-1.1-2-1.6-2.9c-1.1-2-2.2-3.8-3.1-5.5s-2-3.5-2.9-5.2c-0.4-0.9-1-1.6-1.4-2.4c-0.5-0.8-1-1.5-1.4-2.3
								c-3.8-5.7-6.8-10.3-9.1-13.3c3.3,5.4,6.5,11.1,9.9,16.7c1.5,2.9,3,5.9,4.7,8.8l2.4,4.3c0.8,1.5,1.6,2.9,2.3,4.4
								c1.4,3,2.8,6,4.2,9c1.3,3,2.8,5.9,4,8.9s2.4,6,3.6,8.9c0.5,1.5,1.2,2.9,1.7,4.3s1,2.9,1.5,4.3c-0.4-1.1-0.9-2.2-1.3-3.3
								c-0.4-1.1-1-2.2-1.4-3.4c-1-2.3-2-4.6-3-6.9s-2.1-4.8-3.1-7.2c-1.2-2.4-2.4-4.9-3.6-7.3c1.1,2.4,2.2,4.8,3.4,7.2
								c1.1,2.5,2.1,5,3,7.5c1,2.5,2.1,5,3,7.4c0.4,1.2,1,2.4,1.4,3.6s0.9,2.4,1.3,3.5c-0.3-1-0.7-1.8-1.1-2.8
								c-0.2-0.4-0.3-1-0.5-1.4s-0.4-0.9-0.5-1.3c-0.8-1.7-1.5-3.5-2.2-5.1c-1.4-3.1-2.5-5.6-3.3-7c1.2,2.9,2.4,6.1,3.8,9.3
								c0.7,1.6,1.4,3.3,2.1,5c0.7,1.7,1.2,3.4,1.8,5.1c1.2,3.4,2.5,6.6,3.6,9.6c0.5,1.5,1,3,1.4,4.3c0.4,1.4,0.9,2.7,1.2,3.8
								c2.1,5.4,9,30.9,9.9,38.5c-3.9-19.2-10.9-43-17.3-57.6c2.2,6.4,4.6,12.7,6.2,19c-0.7-2-1.3-4.3-2.3-6.9c-1-2.5-2-5.2-2.9-7.8
								c-1-2.6-1.8-5-2.6-7c-0.3-1.1-0.8-2-1.1-2.7s-0.7-1.4-0.9-1.8c0.4,1,0.8,2,1.2,2.9c0.3,1,0.7,2,1.1,2.9
								c0.7,2,1.3,3.8,2.1,5.7c0.8,2,1.3,3.8,2,5.6l1,2.8c0.3,1,0.5,2,0.9,2.8c1.1,3.8,2.3,7.7,3.5,11.6c0.3,1,0.5,2,0.9,2.9
								c0.2,1,0.5,2.1,0.8,3c0.5,2.1,1,4.1,1.5,6.2c0.4,1.7,0.8,3.4,1.2,5.1c0.4,1.6,0.9,3.4,1.1,5c0.7,3.4,1.2,6.6,1.8,9.9
								c0.3,1.6,0.7,3.3,0.9,4.9c0.3,1.6,0.4,3.3,0.8,4.9c0.4,3.3,1,6.5,1.4,9.9c-0.7-4-1.3-8.2-2-12.7c-0.8-4.4-1.7-8.9-2.6-13.1
								c-0.4-2.2-0.9-4.3-1.3-6.3c-0.5-2.1-1.1-4-1.5-5.9c-1-3.7-1.8-7-2.6-9.6c0.8,3.6,1.6,7.4,2.6,11.1c0.4,1.8,0.9,3.8,1.3,5.6
								c0.3,1.8,0.8,3.8,1.1,5.6c-0.2-0.9-0.3-1.4-0.4-1.6c0.7,3.4,1.4,7.7,2.1,11.2c-0.1,0.1,0,0.9-0.2,0.2
								c0.1,0.1,0.1,0.1,0.2,0.1"/>
							<path class="st2" d="M988.3,413.8c1.1,4.1,1.8,8.7,2.8,13.4c0.4,2.4,0.9,4.9,1.4,7.3c0.2,1.2,0.4,2.5,0.5,3.7l0.5,3.7
								c0.3,2.5,0.7,5,1,7.4s0.7,4.9,0.9,7.2c0.3,4.7,0.8,9,1.1,12.9"/>
							<path class="st3" d="M326.1,697.7c0,0-2-2.9-5.5-8.5c-1.7-2.8-3.8-6.4-6.2-10.5c-1.2-2.1-2.6-4.3-3.9-6.7
								c-1.3-2.5-2.6-5.1-4.1-7.8c-1.4-2.8-3-5.6-4.6-8.8c-1.4-3.1-2.9-6.4-4.6-9.9c-0.8-1.7-1.6-3.5-2.4-5.3
								c-0.9-1.7-1.5-3.7-2.3-5.6c-1.5-3.8-3.1-7.8-4.8-11.8c-6-16.6-11.8-35.8-16-57.3s-6.8-45.5-6.7-71.1
								c0.1-25.6,2.9-52.8,9.2-80.6c6.4-27.7,16.4-55.9,30-83.3c1.8-3.4,3.6-6.7,5.4-10.2c0.9-1.7,1.8-3.4,2.7-5.1c1-1.6,2-3.4,3-5
								c2-3.4,4-6.6,6-10c2.2-3.3,4.3-6.5,6.5-9.8c1.1-1.6,2.2-3.3,3.3-4.9c1.2-1.6,2.3-3.1,3.5-4.8c2.4-3.1,4.7-6.4,7-9.5
								c2.5-3,5-6.2,7.6-9.2l3.8-4.7l4-4.4c2.7-2.9,5.4-6,8-8.9c2.8-2.8,5.6-5.7,8.6-8.6l4.2-4.3l4.4-4.1c3-2.7,6-5.4,9-8.1
								c3.1-2.6,6.3-5.1,9.4-7.7l4.8-3.9c1.6-1.2,3.3-2.4,4.9-3.7c3.3-2.4,6.5-4.9,9.9-7.3c3.4-2.3,6.8-4.6,10.2-6.8l5.1-3.4
								c1.7-1.1,3.5-2.1,5.2-3.1l10.5-6.3c0.9-0.5,1.7-1,2.7-1.5l2.7-1.4l5.4-2.8l5.4-2.8l1.3-0.8l1.4-0.7l2.8-1.3l11.2-5.2l1.4-0.7
								l1.4-0.5l2.8-1.2l5.6-2.3l5.6-2.3c1-0.4,2-0.8,2.9-1.1l2.9-1c3.9-1.3,7.7-2.7,11.6-4c62.1-20,128.5-22.6,187.7-10
								c1.8,0.3,3.7,0.8,5.5,1.1c1.8,0.4,3.7,0.9,5.4,1.3c3.7,0.9,7.3,1.8,10.8,2.7c3.6,1,7.2,2.1,10.6,3.1c3.6,1.1,7,2.1,10.5,3.4
								c3.5,1.2,6.8,2.4,10.3,3.6l2.6,0.9l2.5,1c1.6,0.7,3.4,1.3,5,2.1c3.3,1.4,6.6,2.6,9.9,4c3.3,1.5,6.4,2.9,9.5,4.4
								c1.6,0.8,3.1,1.5,4.8,2.2c1.6,0.8,3,1.6,4.7,2.4c3,1.6,6.2,3.1,9.1,4.8l2.3,1.2c0.8,0.4,1.5,0.9,2.2,1.3
								c1.4,0.9,2.9,1.7,4.3,2.6c2.9,1.7,5.9,3.4,8.7,5.1c2.8,1.7,5.5,3.6,8.3,5.3c1.4,0.9,2.7,1.7,4.1,2.7c1.3,0.9,2.7,1.7,4,2.7
								c2.6,1.8,5.2,3.8,7.8,5.6c1.3,1,2.6,1.8,3.9,2.8l2,1.4l1.8,1.5c19.8,15.2,36.8,31.3,51,47.1s25.6,31.3,35,45.1"/>
						</g>
						<path class="st3" d="M311.6,319.4c0,0,0.1-0.3,0.4-0.9c0.3-0.5,0.8-1.4,1.4-2.5c1.3-2.2,3.3-5.3,5.7-9.5
							c5-8.2,12.9-20,23.7-34.1c10.9-14,25.4-30,43.3-46.2c18.1-16.3,40-32.5,65.5-46.9c3.3-1.7,6.5-3.5,9.8-5.2s6.5-3.6,10-5.1
							c3.5-1.6,6.8-3.3,10.3-4.8l2.6-1.2c0.9-0.4,1.7-0.8,2.7-1.1c1.8-0.8,3.6-1.4,5.4-2.2c14.3-6.1,29.6-10.9,45.3-15.2
							c4-1,7.9-2,11.9-2.9l3-0.8c1-0.2,2.1-0.4,3-0.7c2.1-0.4,4.1-0.8,6.1-1.2c8.1-1.7,16.5-2.7,24.8-3.9c4.2-0.5,8.5-0.9,12.6-1.2
							c2.2-0.2,4.2-0.4,6.3-0.5c2.2-0.1,4.2-0.2,6.4-0.3s4.2-0.2,6.4-0.3s4.2-0.2,6.4-0.2c4.3,0,8.6,0,12.9,0c1.1,0,2.2,0,3.3,0
							l3.3,0.1l6.5,0.3l6.5,0.3c2.2,0.1,4.3,0.4,6.5,0.7c4.3,0.4,8.7,0.8,12.9,1.3c4.3,0.7,8.6,1.2,12.9,1.8l3.3,0.4l3.3,0.7
							l6.4,1.2l6.4,1.2c2.2,0.4,4.2,1,6.4,1.5c4.2,1.1,8.5,2.1,12.7,3.1c4.1,1.2,8.3,2.5,12.5,3.7c33.2,10.3,64.6,25,92.7,43.3"/>
					</g>
				</g>
			</g>
		</g>
	</g>
</g>
<g class="st4">
	<path class="st5" d="M222,666.8c1-30.9,19.3-74.2,38.6-119c24.3-56.4,44.6-96.6,63.1-126.1l-0.4-0.3C280,464.8,255.7,510,223.6,572
		c-41.7,79.2-73.8,143.5-128.8,152.2c-28.2,4.4-47.2-7.2-51.3-33.6c-2.3-14.3,3.4-26.8,12.7-28.3c4.2-0.6,6.8,1.5,7.2,4.4
		c1.8,11.1-16.6,12.8-14.6,25.6c3.5,21.8,19.3,32.1,45.4,27.9c52.5-8.3,83.8-70.6,125.5-149.9c35.1-67,59.6-115.1,116-165.5l2.8,1.4
		c-15.1,29.5-35.1,81.2-59,140.1c-26,64-39.4,100.1-43.2,122.3c-3,18.1-0.5,29.3,7.3,28.1s14.8-14.4,24.7-33.5
		c13.3-24.8,29-65.9,57.2-123.8c33.5-67.8,60-115.1,116-165.5l2.8,1.4c-23.5,42.8-41.4,92-81.7,190.4
		c-19.7,48.4-26.8,80.6-23.6,100.2c1.5,10,5.6,14.5,12.3,13.4c16-2.6,28.1-27.9,52.8-70.1l4.2-0.6c-24.8,42-37.3,72.1-60.4,75.7
		c-13.6,2.1-23.7-6.4-26.3-22.9c-3.2-20.6,5-54.2,21.3-94c31.5-75.8,64.8-142.9,86.5-176.6l-0.4-0.3
		c-42.9,43.3-69.2,87.7-99.7,150.6C301,598.6,284.9,639.8,272,665c-10.6,21-18.3,34.7-29,36.4C228.2,703.5,221.2,687.7,222,666.8z"
		/>
	<path class="st5" d="M438.6,666.2c-6.5,1-11.7-2.9-12.8-9.3c-1.1-6.5,2.9-11.7,8.9-12.8c6.5-1,11.7,2.9,12.8,9.3
		C448.6,659.9,444.7,665.2,438.6,666.2z"/>
	<path class="st5" d="M914.8,315.5c-61.4,43-95.7,131.7-154.1,283.1c34.6-7.7,50.4-28.1,66.8-56.2l4.2-0.6
		c-18.5,31.4-33.9,53.2-72.6,61.1l-5.2,13.6l-19.6,3.2l6.1-14.5c-26.9,0.9-54.1-7.1-78.1-22.7c-37.1,38-76.4,64.4-119.6,71.2
		c-38.2,6.1-60.6-6.2-64.5-31.5c-2.3-14.3,3.4-26.8,12.7-28.3c4.2-0.6,6.8,1.5,7.2,4.4c1.8,11.1-16.2,12.8-14.2,25.6
		c3.2,20.3,22.9,31.5,58.2,25.9c41.4-6.5,80.1-32.4,116.6-69.5c-35.6-24.3-63.5-64.1-71.2-113c-5.9-37.4,9.3-73.5,44.5-79
		c44.9-7.1,84.6,40.7,106.2,91.4c82.7-115,115.6-137.8,175.1-165.8L914.8,315.5z M662.2,576.1c21-21.9,41.5-47.5,61.2-75.7l12-16.8
		c-20.4-48.4-59-98.5-102.2-91.7c-30.7,4.9-43.9,36.5-38.2,73.3C602.6,513.5,629,552.5,662.2,576.1z M742.2,601.1l6.3-15.6
		c7.8-19.5,2.3-54.8-3.9-76.1c-1.7-6.7-4.4-13.6-7.3-20.8c-3.2,4.6-6.6,9-9.8,14c-20,28.4-40.4,54.2-61.4,76.1
		C689.2,594.5,715.7,602.4,742.2,601.1z M756.8,566.2c45.9-123,92.7-204.3,141.7-241.2v-0.4c-47.3,25.1-78.6,48.9-158,159.5
		c3.5,8.3,6.3,17,8.7,24.9c4.9,17.1,8.8,41.3,6.9,57.4L756.8,566.2z"/>
	<path class="st5" d="M841.8,602.6c-6.5,1-11.7-2.9-12.8-9.3c-1-6.5,2.9-11.7,8.9-12.8c6.5-1,11.7,2.9,12.8,9.3
		C851.8,596.2,847.9,601.6,841.8,602.6z"/>
	<path class="st5" d="M1197.7,483.8l4.2-0.6c-26.3,44.4-44.7,73.2-84.6,79.5c-31.3,5-59.7-1.2-88.2-8
		c-25.9,19.1-54.7,30.9-86.8,35.9c-37,5.9-61-2.5-63.6-18.5c-2.4-15.3,10.8-28.3,45.1-33.8c35.7-5.6,68.3,2.7,100.7,11.1
		c30.7-27.5,52.7-68.7,74.5-125c24.3-63.3,43.3-93.4,75.6-125.2l2.7,2.9c-20.8,21.2-31.2,45.8-58.6,120
		c-21.8,59-50.5,101.5-86,129.4c27.3,6.6,54.9,12.2,83.8,7.6C1155.2,553.1,1173.7,524.2,1197.7,483.8z M1021,552.7
		c-31.2-7.9-62.8-15.7-97.4-10.2c-29.2,4.6-41.3,15.7-39.3,28.9c2.1,13.9,23.4,20.8,57.2,15.4C974.1,581.6,999.7,570.4,1021,552.7z
		 M1229.8,331.5c7.6,48.1-45.6,81.8-98.5,86.8l-0.5-3.2c50.7-5.4,88.4-34.4,80.9-82.2c-5.5-34.6-34.6-57-97.3-47.1
		c-94.5,14.9-162.1,86.6-153.2,142.9c3.2,20,15.8,33,40.1,29.2c55.6-8.8,80.7-67.5,79.3-110.8l4-0.6c1.1,46.2-24.1,106.1-84,115.6
		c-25.4,4-46.3-4-50.8-32.1c-9-57.1,67.1-132.6,164.1-147.9C1180.8,271.4,1223.4,290.9,1229.8,331.5z"/>
</g>
</svg>
