<?xml version="1.0" encoding="utf-8"?>
<!-- Generator: Adobe Illustrator 27.0.0, SVG Export Plug-In . SVG Version: 6.00 Build 0)  -->
<svg version="1.1" id="Layer_1" xmlns="http://www.w3.org/2000/svg" xmlns:xlink="http://www.w3.org/1999/xlink" x="0px" y="0px"
	 viewBox="0 0 1280 1024" style="enable-background:new 0 0 1280 1024;" xml:space="preserve">
<style type="text/css">
	.st0{opacity:0.7;}
	.st1{fill:#202020;}
	.st2{fill:none;stroke:#202020;stroke-width:0;}
	.st3{fill:#333333;}
</style>
<g>
	<g>
		<g>
			<g>
				<g class="st0">
					<g>
						<g>
							<path class="st1" d="M1002.32,477.3c0,0-0.08,2.09-0.24,6.19c-0.08,2.05-0.17,4.6-0.28,7.65c-0.06,1.52-0.11,3.17-0.18,4.93
								c-0.02,0.44-0.03,0.89-0.05,1.35c-0.04,0.46-0.08,0.92-0.12,1.39c-0.08,0.94-0.16,1.91-0.25,2.92
								c-0.34,4.01-0.72,8.49-1.14,13.45c-0.15,2.48-0.54,5.06-0.9,7.76c-0.36,2.7-0.74,5.51-1.13,8.44c-0.2,1.46-0.4,2.96-0.6,4.48
								c-0.1,0.76-0.2,1.53-0.31,2.3c-0.14,0.77-0.28,1.55-0.43,2.33c-0.58,3.13-1.18,6.38-1.79,9.73
								c-0.31,1.68-0.62,3.38-0.94,5.12c-0.16,0.87-0.32,1.74-0.48,2.62c-0.18,0.88-0.41,1.75-0.61,2.64
								c-0.83,3.54-1.69,7.19-2.57,10.94c0,0-0.39,1.62-1.16,4.83c-0.34,1.61-1,3.57-1.67,5.93c-0.69,2.36-1.5,5.11-2.42,8.23
								c-1.67,6.31-4.54,13.91-7.66,23.05c-0.74,2.3-1.76,4.6-2.72,7.03c-0.98,2.42-1.99,4.93-3.03,7.53
								c-0.52,1.3-1.06,2.62-1.6,3.96c-0.27,0.67-0.55,1.35-0.82,2.03c-0.31,0.67-0.62,1.34-0.93,2.02
								c-1.25,2.72-2.54,5.52-3.88,8.41c-0.67,1.44-1.34,2.91-2.03,4.4c-0.69,1.49-1.35,3.01-2.16,4.49
								c-1.56,2.99-3.16,6.06-4.8,9.22c-3.15,6.38-7.08,12.77-11.01,19.56c-0.49,0.85-0.99,1.7-1.49,2.56l-0.75,1.29l-0.82,1.26
								c-1.1,1.68-2.2,3.39-3.32,5.11c-2.25,3.44-4.5,6.99-6.9,10.55c-2.51,3.48-5.07,7.04-7.69,10.67
								c-1.33,1.8-2.58,3.68-4.01,5.46c-1.42,1.79-2.86,3.59-4.3,5.41c-1.45,1.82-2.91,3.66-4.39,5.52
								c-0.74,0.93-1.48,1.86-2.22,2.8c-0.74,0.94-1.57,1.82-2.35,2.73c-3.18,3.63-6.43,7.33-9.73,11.1
								c-0.81,0.96-1.67,1.87-2.56,2.77c-0.88,0.91-1.76,1.82-2.64,2.74c-1.77,1.83-3.55,3.69-5.35,5.55
								c-0.9,0.93-1.8,1.87-2.71,2.81l-1.37,1.41l-1.44,1.35c-1.92,1.81-3.85,3.63-5.8,5.47c-15.6,14.69-33.35,29.17-53.47,42.6
								c-20.1,13.44-42.62,25.73-67.36,36.16c-24.74,10.42-51.8,18.76-80.73,24.2c-28.92,5.44-59.72,7.93-91.66,6.72
								c-2-0.07-4-0.08-6-0.19c-2-0.16-4.01-0.31-6.02-0.47c-4.02-0.31-8.06-0.63-12.12-0.95c-2.03-0.11-4.05-0.45-6.08-0.69
								c-2.03-0.26-4.06-0.52-6.1-0.79c-2.04-0.26-4.08-0.53-6.13-0.79l-3.07-0.4c-1.03-0.13-2.04-0.35-3.06-0.53
								c-4.08-0.74-8.18-1.48-12.3-2.22l-3.09-0.56c-1.03-0.18-2.07-0.36-3.09-0.62c-2.05-0.48-4.1-0.95-6.16-1.43
								c-4.11-0.96-8.24-1.93-12.39-2.9c-4.1-1.17-8.21-2.35-12.35-3.53c-2.07-0.59-4.14-1.18-6.22-1.77
								c-2.05-0.69-4.09-1.39-6.15-2.08c-4.11-1.39-8.23-2.8-12.37-4.2c-4.07-1.6-8.16-3.21-12.26-4.83
								c-2.05-0.81-4.11-1.62-6.17-2.44c-2.02-0.91-4.04-1.83-6.07-2.74c-4.05-1.84-8.12-3.69-12.2-5.55
								c-3.99-2.05-8-4.11-12.02-6.17c-2-1.05-4.06-2.02-6.02-3.15c-1.97-1.13-3.94-2.27-5.91-3.41c-1.98-1.14-3.96-2.28-5.94-3.42
								c-1.98-1.15-4-2.24-5.91-3.53c-3.87-2.48-7.75-4.98-11.65-7.48c-0.97-0.63-1.96-1.24-2.92-1.89l-2.84-2.02
								c-1.89-1.35-3.79-2.7-5.7-4.05c-1.9-1.35-3.81-2.71-5.72-4.07c-0.97-0.66-1.9-1.38-2.81-2.11l-2.77-2.18
								c-3.7-2.91-7.41-5.84-11.13-8.77c-14.53-12.2-28.5-25.49-41.75-39.85c-13.04-14.55-25.3-30.18-36.6-46.81
								c-2.72-4.23-5.44-8.47-8.18-12.73c-1.41-2.1-2.62-4.33-3.9-6.53c-1.27-2.2-2.54-4.4-3.81-6.61c-1.25-2.22-2.59-4.4-3.78-6.66
								c-1.17-2.27-2.34-4.55-3.51-6.84c-1.17-2.28-2.35-4.57-3.52-6.86c-0.57-1.15-1.21-2.28-1.73-3.45l-1.6-3.53
								c-2.12-4.71-4.3-9.41-6.4-14.17c-1.91-4.83-3.83-9.69-5.76-14.55c-0.47-1.22-0.99-2.42-1.42-3.66l-1.27-3.73
								c-0.85-2.49-1.69-4.98-2.54-7.47c-0.84-2.5-1.72-4.98-2.52-7.5c-0.73-2.54-1.45-5.09-2.18-7.64
								c-0.73-2.55-1.46-5.1-2.19-7.66c-0.35-1.28-0.76-2.55-1.07-3.85l-0.91-3.9c-1.19-5.2-2.46-10.4-3.6-15.65
								c-0.95-5.29-1.91-10.59-2.87-15.91c-0.22-1.33-0.52-2.65-0.68-4l-0.52-4.03c-0.35-2.69-0.69-5.38-1.04-8.08l-0.76-5.81
								l-0.19-1.45l-0.12-1.46l-0.23-2.92c0,0-0.36-4.76-1.09-14.23c-0.04-0.59-0.09-1.2-0.14-1.83c-0.02-0.63-0.03-1.28-0.05-1.94
								c-0.03-1.33-0.07-2.74-0.11-4.22c-0.08-2.96-0.16-6.21-0.25-9.76c-0.03-1.77-0.14-3.62-0.1-5.54
								c0.05-1.92,0.1-3.91,0.15-5.98c0.1-4.13,0.21-8.55,0.32-13.26c1.1-18.8,3.36-42.27,9.56-69.67c0.78-3.42,1.58-6.91,2.4-10.47
								c0.95-3.53,1.99-7.1,3.01-10.76c0.52-1.83,1.03-3.67,1.56-5.53c0.26-0.93,0.53-1.87,0.79-2.8c0.27-0.94,0.61-1.86,0.92-2.79
								c1.26-3.73,2.53-7.53,3.83-11.4c0.67-1.93,1.26-3.9,2.01-5.84c0.76-1.93,1.52-3.88,2.29-5.85c1.55-3.93,3.09-7.94,4.72-11.98
								c1.79-3.98,3.61-8.03,5.46-12.14c0.94-2.05,1.81-4.15,2.84-6.19c1.04-2.04,2.09-4.09,3.14-6.16c0,0,1.76-3.46,4.87-9.59
								c1.63-3.02,3.76-6.63,6.14-10.84c1.2-2.1,2.47-4.33,3.82-6.7c1.46-2.3,3-4.71,4.61-7.25c12.75-20.29,32.25-46.51,56.33-70.44
								c24.1-23.87,52.24-45.7,77.94-60.73c3.22-1.87,6.36-3.7,9.41-5.47c1.53-0.87,3.01-1.8,4.53-2.59
								c1.52-0.79,3.02-1.56,4.49-2.33c2.94-1.53,5.78-3,8.51-4.41c1.37-0.7,2.69-1.42,4.01-2.06c1.33-0.61,2.64-1.21,3.91-1.79
								c5.08-2.34,9.65-4.44,13.59-6.25c4.03-1.63,7.42-3,10.08-4.07c0,0,1.04-0.43,3.11-1.28c2.07-0.84,5.14-2.18,9.34-3.58
								c4.18-1.44,9.35-3.35,15.59-5.42c3.15-0.93,6.56-1.94,10.22-3.02c3.67-1.05,7.55-2.34,11.79-3.26
								c4.22-1.02,8.69-2.09,13.42-3.23c2.35-0.63,4.82-0.99,7.33-1.49c2.51-0.47,5.09-0.96,7.73-1.45
								c2.64-0.47,5.33-1.06,8.12-1.46c2.79-0.38,5.64-0.76,8.55-1.16c2.91-0.39,5.89-0.8,8.93-1.21c1.52-0.24,3.06-0.33,4.62-0.47
								c1.56-0.13,3.13-0.26,4.72-0.4c25.41-2.29,55.12-2.53,88.24,1.7c2.07,0.25,4.16,0.51,6.26,0.76c2.1,0.27,4.19,0.7,6.3,1.05
								c4.23,0.73,8.51,1.48,12.86,2.23l1.63,0.28l1.62,0.36c1.08,0.24,2.17,0.49,3.26,0.74c2.18,0.49,4.37,0.99,6.58,1.49
								c2.21,0.5,4.43,1,6.67,1.51l1.68,0.38l1.66,0.47c1.11,0.31,2.23,0.62,3.34,0.94c4.47,1.25,9,2.52,13.59,3.8
								c4.54,1.45,9.09,3.02,13.72,4.55c2.3,0.8,4.66,1.5,6.96,2.39c2.3,0.9,4.61,1.8,6.93,2.71c2.33,0.91,4.66,1.82,7.01,2.74
								c1.17,0.46,2.35,0.93,3.53,1.39c1.16,0.52,2.32,1.04,3.48,1.56c4.66,2.09,9.37,4.21,14.13,6.35
								c4.65,2.37,9.36,4.76,14.11,7.17c1.19,0.61,2.38,1.21,3.57,1.82c1.16,0.66,2.33,1.33,3.5,2c2.34,1.34,4.69,2.69,7.05,4.04
								c2.36,1.37,4.75,2.69,7.11,4.11c2.32,1.48,4.65,2.97,6.99,4.47c18.75,11.92,37.31,25.84,55.09,41.95
								c17.72,16.16,34.65,34.48,50.17,54.94c15.52,20.46,29.6,43.08,41.55,67.66c24.03,49.06,38.86,106.45,40.06,167.39
								c0,0-0.02-1.07-0.05-3.16c-0.02-1.04-0.04-2.35-0.07-3.9c-0.03-1.55-0.03-3.35-0.21-5.39c-0.28-4.08-0.63-9.15-1.05-15.14
								c-0.14-3.01-0.59-6.22-1-9.66c-0.42-3.44-0.86-7.12-1.34-11.01c-0.12-0.97-0.24-1.96-0.36-2.96c-0.17-0.99-0.35-2-0.52-3.02
								c-0.35-2.04-0.72-4.14-1.09-6.29c-0.37-2.15-0.76-4.36-1.15-6.61c-0.2-1.13-0.39-2.27-0.59-3.43c-0.2-1.16-0.5-2.3-0.75-3.48
								c-1.06-4.68-2.16-9.57-3.31-14.66c-0.14-0.64-0.29-1.28-0.43-1.92c-0.16-0.64-0.35-1.27-0.53-1.92
								c-0.36-1.28-0.72-2.58-1.08-3.88c-0.73-2.61-1.48-5.27-2.23-7.99c-6.31-21.6-15.33-45.85-28.45-71.34
								c-0.81-1.6-1.63-3.2-2.46-4.82c-0.41-0.81-0.83-1.62-1.24-2.43c-0.45-0.79-0.91-1.59-1.36-2.38
								c-1.82-3.19-3.67-6.41-5.54-9.68c-0.93-1.63-1.87-3.27-2.82-4.92c-1.02-1.6-2.05-3.22-3.09-4.84
								c-2.07-3.24-4.17-6.52-6.29-9.84c-1.03-1.68-2.2-3.28-3.35-4.9c-1.15-1.62-2.31-3.25-3.47-4.89
								c-1.16-1.64-2.33-3.29-3.51-4.94c-1.17-1.66-2.34-3.33-3.64-4.92c-2.53-3.23-5.09-6.49-7.67-9.78
								c-0.65-0.82-1.29-1.65-1.94-2.47l-0.98-1.24l-1.04-1.2c-1.38-1.6-2.77-3.2-4.17-4.81c-1.4-1.61-2.8-3.23-4.21-4.86
								c-0.7-0.81-1.41-1.63-2.12-2.45c-0.7-0.82-1.41-1.64-2.18-2.41c-3-3.14-6.02-6.31-9.07-9.51c-0.76-0.8-1.53-1.6-2.29-2.4
								l-1.15-1.21l-1.21-1.15c-1.61-1.54-3.23-3.08-4.86-4.63c-1.63-1.55-3.26-3.11-4.9-4.67c-1.64-1.56-3.27-3.16-5.03-4.62
								c-3.46-2.99-6.94-6-10.46-9.04c-0.88-0.75-1.75-1.53-2.65-2.27c-0.92-0.72-1.84-1.44-2.76-2.16
								c-1.84-1.44-3.69-2.89-5.55-4.35c-1.86-1.45-3.72-2.91-5.59-4.38c-0.92-0.75-1.89-1.44-2.87-2.12
								c-0.97-0.69-1.95-1.38-2.92-2.07c-3.91-2.76-7.83-5.58-11.82-8.34c-16.2-10.73-33.57-20.65-52.02-29.53
								c-4.67-2.09-9.37-4.2-14.1-6.32c-2.34-1.11-4.78-2-7.21-2.96c-2.43-0.95-4.86-1.9-7.3-2.85c-2.45-0.93-4.87-1.95-7.36-2.82
								c-2.5-0.84-5.01-1.67-7.52-2.51c-5.04-1.64-10.04-3.5-15.24-4.83c-20.52-6.2-42.08-10.45-64.2-13.17
								c-22.13-2.65-44.9-3.81-67.95-2.56c0,0-1.61-0.01-4.9,0.06c-3.28,0.21-8.23,0.52-14.91,0.94c-1.67,0.11-3.45,0.22-5.34,0.35
								c-1.88,0.22-3.87,0.45-5.96,0.7c-4.2,0.5-8.83,1.04-13.91,1.64c-5.05,0.81-10.53,1.79-16.46,2.8c-1.48,0.27-3,0.49-4.53,0.81
								c-1.52,0.34-3.08,0.69-4.66,1.05c-3.16,0.71-6.43,1.45-9.82,2.22c-1.69,0.39-3.42,0.75-5.16,1.2
								c-1.73,0.48-3.48,0.98-5.27,1.48c-3.57,1-7.25,2.03-11.04,3.1c-0.95,0.28-1.91,0.52-2.86,0.83c-0.95,0.32-1.9,0.64-2.86,0.96
								c-1.92,0.65-3.87,1.3-5.85,1.97c-1.98,0.67-3.99,1.34-6.02,2.03c-2.04,0.68-4.11,1.36-6.15,2.21
								c-4.11,1.62-8.33,3.28-12.66,4.99c-1.08,0.43-2.17,0.86-3.27,1.29c-1.07,0.48-2.16,0.97-3.25,1.46
								c-2.18,0.99-4.38,1.98-6.61,2.99c-2.23,1.01-4.49,2.04-6.77,3.07c-1.15,0.5-2.28,1.08-3.4,1.66
								c-1.13,0.58-2.27,1.17-3.41,1.75c-2.29,1.18-4.6,2.37-6.94,3.57c-1.17,0.6-2.35,1.21-3.53,1.82
								c-0.59,0.31-1.19,0.6-1.78,0.92c-0.58,0.34-1.16,0.67-1.74,1.01c-4.66,2.7-9.43,5.46-14.31,8.28
								c-4.78,2.98-9.58,6.16-14.53,9.34c-2.5,1.55-4.89,3.33-7.33,5.08c-2.44,1.75-4.91,3.52-7.4,5.31c-1.24,0.9-2.5,1.79-3.75,2.7
								c-1.21,0.96-2.43,1.93-3.66,2.91c-2.45,1.95-4.92,3.91-7.42,5.9c-19.81,16.11-39.69,35.41-58.43,58.36
								c0,0,0.87-1.07,3.01-3.69c1.08-1.31,2.48-3,4.25-5.14c0.89-1.07,1.87-2.25,2.95-3.55c0.54-0.65,1.11-1.33,1.7-2.04
								c0.6-0.7,1.27-1.4,1.95-2.14c2.73-2.96,5.91-6.41,9.59-10.4c1.8-2.04,3.92-4.02,6.12-6.2c2.21-2.17,4.57-4.47,7.07-6.92
								c2.45-2.5,5.28-4.9,8.2-7.51c2.94-2.59,6.02-5.36,9.31-8.22c3.4-2.73,6.98-5.6,10.75-8.62c3.71-3.1,7.86-6,12.15-9.12
								c17.19-12.43,38.57-25.95,65.57-38.51c26.97-12.46,59.55-24.31,98.58-31.13c2.43-0.44,4.89-0.89,7.36-1.33
								c1.23-0.25,2.49-0.41,3.74-0.57c1.26-0.16,2.52-0.33,3.79-0.49c5.07-0.63,10.22-1.37,15.46-1.95
								c5.26-0.41,10.61-0.83,16.04-1.25c1.36-0.09,2.72-0.24,4.09-0.29c1.37-0.04,2.75-0.07,4.13-0.11
								c2.77-0.07,5.55-0.15,8.36-0.22c22.46-0.43,46.38,0.81,71.42,4.67c25.03,3.86,51.18,10.34,77.75,20.21
								c26.56,9.86,53.54,23.11,79.96,40.25c0,0-1.19-0.77-3.92-2.52c-1.37-0.88-3.12-2-5.3-3.41c-2.21-1.35-4.93-2.86-8.1-4.71
								c-1.59-0.92-3.3-1.9-5.15-2.96c-0.92-0.53-1.87-1.08-2.86-1.64c-0.49-0.28-0.99-0.57-1.5-0.86
								c-0.52-0.27-1.05-0.54-1.59-0.82c-4.32-2.21-9.19-4.7-14.65-7.5c-1.35-0.73-2.81-1.34-4.28-2.02
								c-1.48-0.67-2.99-1.35-4.54-2.05c-3.11-1.4-6.38-2.88-9.81-4.43c-3.47-1.46-7.17-2.85-11.01-4.38
								c-1.92-0.76-3.89-1.53-5.9-2.32c-1.01-0.38-2.01-0.83-3.06-1.17c-1.05-0.35-2.1-0.71-3.17-1.07
								c-4.28-1.44-8.74-2.94-13.39-4.51c-0.58-0.2-1.17-0.39-1.75-0.59c-0.6-0.17-1.2-0.34-1.8-0.51c-1.2-0.34-2.42-0.68-3.65-1.03
								c-2.46-0.69-4.97-1.4-7.52-2.13c-1.28-0.36-2.57-0.73-3.87-1.09c-1.3-0.37-2.61-0.76-3.97-1.04
								c-2.69-0.62-5.43-1.25-8.23-1.89c-2.79-0.64-5.64-1.29-8.54-1.96c-1.44-0.36-2.93-0.59-4.42-0.86c-1.49-0.26-3-0.53-4.51-0.8
								c-24.24-4.46-52.44-7.36-84.55-6.52c-2.01,0.06-4.03,0.11-6.07,0.17c-1.02,0.03-2.04,0.06-3.07,0.08
								c-1.03,0.03-2.06,0.04-3.09,0.15c-4.13,0.32-8.31,0.65-12.56,0.98c-2.13,0.17-4.27,0.33-6.42,0.5
								c-2.15,0.23-4.31,0.54-6.49,0.82c-4.35,0.56-8.77,1.14-13.25,1.72c-4.46,0.69-8.96,1.59-13.54,2.4
								c-2.29,0.41-4.59,0.83-6.91,1.25c-2.31,0.47-4.61,1.06-6.94,1.58c-4.65,1.1-9.39,2.15-14.15,3.34
								c-4.72,1.35-9.51,2.73-14.37,4.12c-19.3,5.93-39.27,13.45-59.49,23.16c-20.13,9.87-40.51,21.84-60.56,36.34
								c0,0,0.95-0.7,2.77-2.04c0.91-0.67,2.05-1.5,3.39-2.49c1.36-0.96,2.86-2.18,4.69-3.34c3.63-2.39,8.09-5.34,13.3-8.77
								c1.29-0.88,2.68-1.71,4.13-2.55c1.44-0.85,2.93-1.73,4.46-2.63c3.07-1.81,6.32-3.73,9.75-5.74c3.52-1.85,7.22-3.8,11.09-5.83
								c1.94-1.01,3.92-2.05,5.94-3.11c2.04-1.03,4.17-1.95,6.32-2.96c4.31-1.97,8.75-4.1,13.42-6.12c4.72-1.9,9.6-3.85,14.63-5.87
								c20.25-7.63,43.49-14.55,68.97-19.2c0,0-0.87,0.16-2.6,0.48c-0.86,0.16-1.94,0.36-3.24,0.6c-0.65,0.12-1.35,0.25-2.1,0.39
								c-0.75,0.15-1.54,0.36-2.39,0.56c-6.78,1.67-17.02,3.75-30.19,7.82c-6.67,1.76-13.91,4.47-22.01,7.21
								c-1.01,0.35-2.03,0.7-3.07,1.06c-1.03,0.36-2.05,0.8-3.09,1.21c-2.08,0.83-4.21,1.68-6.38,2.55
								c-2.18,0.87-4.4,1.76-6.67,2.67c-1.13,0.47-2.29,0.88-3.43,1.41c-1.13,0.52-2.28,1.04-3.44,1.57
								c-4.63,2.13-9.46,4.3-14.43,6.64c-4.88,2.53-9.94,5.15-15.18,7.86c-0.65,0.34-1.31,0.68-1.97,1.03
								c-0.64,0.37-1.29,0.75-1.94,1.13c-1.3,0.75-2.6,1.51-3.92,2.28c-2.64,1.53-5.32,3.09-8.04,4.67
								c-2.76,1.53-5.41,3.31-8.14,5.07c-2.73,1.76-5.49,3.56-8.3,5.37c-2.85,1.76-5.57,3.79-8.37,5.79
								c-2.8,2.01-5.64,4.04-8.51,6.11c-0.72,0.52-1.44,1.04-2.16,1.56c-0.7,0.55-1.4,1.11-2.1,1.67c-1.41,1.11-2.82,2.24-4.25,3.37
								c-2.85,2.26-5.74,4.55-8.67,6.87c-2.82,2.45-5.67,4.94-8.56,7.46c-1.44,1.26-2.9,2.53-4.36,3.8
								c-0.73,0.64-1.47,1.27-2.19,1.93c-0.7,0.68-1.41,1.35-2.12,2.04c-5.63,5.48-11.61,10.88-17.15,16.99
								c-2.82,3-5.73,5.99-8.56,9.11c-2.75,3.2-5.53,6.43-8.34,9.69c-1.39,1.64-2.84,3.26-4.21,4.95c-1.34,1.72-2.69,3.44-4.04,5.18
								c-2.69,3.49-5.49,6.95-8.17,10.56c-5.14,7.38-10.67,14.73-15.53,22.74c-1.26,1.98-2.52,3.96-3.79,5.96c-0.63,1-1.27,2-1.91,3
								c-0.59,1.03-1.18,2.07-1.77,3.1c-2.37,4.15-4.76,8.34-7.17,12.57c-9.19,17.17-17.65,35.57-24.93,55.21
								c-7.03,19.73-12.88,40.64-17.12,62.61c-4.33,21.96-6.63,45.03-7.06,68.8c-0.41,23.78,1.13,48.31,5.14,73.17
								c-0.21-1.25-0.48-2.48-0.63-3.7c-0.16-1.22-0.31-2.42-0.46-3.61c-0.3-2.37-0.6-4.66-0.88-6.87
								c-0.29-2.21-0.56-4.35-0.83-6.42c-0.13-1.03-0.28-2.04-0.38-3.04c-0.08-1-0.15-1.98-0.23-2.94c-0.3-3.85-0.58-7.4-0.83-10.66
								c-0.13-1.63-0.25-3.19-0.36-4.68c-0.06-0.74-0.11-1.47-0.16-2.18c-0.02-0.71-0.04-1.4-0.06-2.08
								c-0.28-10.8-0.5-17.08-0.49-19.36c0.09-2.28-0.12-0.55,0.07,4.67c0.07,2.61,0.16,6.1,0.27,10.39
								c0.07,2.15,0.09,4.5,0.21,7.04c0.19,2.54,0.4,5.27,0.63,8.19c0.22,2.92,0.46,6.02,0.71,9.3c0.06,0.82,0.13,1.65,0.19,2.5
								c0.1,0.84,0.21,1.69,0.32,2.55c0.22,1.72,0.44,3.48,0.67,5.29c0.46,3.61,0.94,7.39,1.45,11.34c0.11,0.99,0.28,1.98,0.47,2.97
								c0.18,1,0.36,2.01,0.54,3.02c0.36,2.04,0.74,4.11,1.11,6.22c0.8,4.22,1.42,8.63,2.56,13.08c1.04,4.48,2.1,9.09,3.2,13.85
								c0.14,0.59,0.28,1.19,0.42,1.79c0.17,0.59,0.34,1.18,0.51,1.78c0.34,1.19,0.68,2.39,1.02,3.59c0.69,2.41,1.38,4.86,2.09,7.33
								c0.73,2.47,1.37,5,2.19,7.51c0.85,2.5,1.7,5.03,2.57,7.59c6.87,20.48,15.99,42.31,27.95,64.31
								c11.97,21.98,26.68,44.16,44.24,65.25c17.53,21.1,37.84,41.12,60.42,59.03c22.56,17.91,47.38,33.69,73.55,46.6
								c26.14,12.98,53.72,22.81,81.42,29.62c27.7,6.82,55.54,10.51,82.37,11.51c26.84,1.02,52.65-0.62,76.56-4.14
								c23.9-3.65,45.84-9.23,65.29-15.49c19.54-6.1,36.34-13.59,50.62-20.15c3.51-1.76,6.88-3.45,10.09-5.07
								c3.21-1.62,6.3-3.1,9.09-4.74c5.64-3.2,10.71-5.95,15.01-8.46c0,0,5.42-3.47,14.91-9.55c4.64-3.2,10.19-7.21,16.6-11.75
								c3.09-2.43,6.38-5.01,9.84-7.73c1.73-1.36,3.51-2.76,5.33-4.19c1.77-1.49,3.54-3.06,5.38-4.64c1.83-1.58,3.69-3.2,5.59-4.85
								c1.88-1.67,3.89-3.27,5.74-5.12c3.77-3.6,7.68-7.32,11.69-11.15c3.9-3.94,7.78-8.12,11.81-12.32c0.99-1.07,2.04-2.09,3-3.21
								c0.96-1.11,1.93-2.23,2.9-3.35c1.95-2.25,3.91-4.52,5.89-6.81c15.64-18.48,30.62-39.67,43.36-62.2
								c12.78-22.51,23.28-46.32,31.05-69.38c0.97-2.89,1.93-5.75,2.88-8.58c0.5-1.41,0.9-2.84,1.3-4.27c0.4-1.43,0.8-2.85,1.2-4.26
								c0.79-2.82,1.58-5.62,2.35-8.38c0.39-1.38,0.77-2.75,1.15-4.12c0.31-1.38,0.63-2.75,0.94-4.12
								c1.23-5.46,2.43-10.77,3.6-15.91c0.9-5.19,1.78-10.22,2.62-15.05c0.94-4.81,1.37-9.51,1.94-13.95
								c0.27-2.22,0.53-4.39,0.79-6.5c0.13-1.06,0.25-2.1,0.38-3.12c0.06-0.51,0.12-1.02,0.18-1.53c0.04-0.51,0.07-1.01,0.1-1.51
								c0.27-4,0.53-7.76,0.76-11.24c0.12-1.74,0.23-3.41,0.33-5.02c0.11-1.6,0.22-3.13,0.21-4.59c0.16-11.68,0.17-18.6,0-19.17"/>
							<path class="st2" d="M327.75,174.8c0,0,1.17-1.04,3.46-3.09c1.15-1.02,2.57-2.29,4.27-3.81c1.71-1.5,3.63-3.33,6.01-5.17
								c2.34-1.89,4.95-4,7.84-6.33c1.45-1.17,2.96-2.39,4.54-3.66c1.6-1.25,3.34-2.46,5.11-3.77c3.57-2.59,7.41-5.39,11.52-8.38
								c4.25-2.8,8.78-5.77,13.58-8.93c2.37-1.63,4.96-3.06,7.56-4.62c2.62-1.54,5.3-3.13,8.06-4.75c1.38-0.8,2.76-1.66,4.2-2.44
								c1.45-0.76,2.92-1.53,4.4-2.31c2.97-1.56,6.01-3.16,9.12-4.79c3.08-1.7,6.37-3.14,9.69-4.7c3.33-1.54,6.72-3.12,10.19-4.72
								l1.3-0.6l1.34-0.54c0.89-0.36,1.79-0.73,2.69-1.09c1.8-0.73,3.63-1.47,5.47-2.21c1.84-0.74,3.7-1.5,5.57-2.26
								c0.94-0.38,1.88-0.76,2.82-1.14c0.95-0.38,1.93-0.69,2.89-1.04c3.89-1.35,7.85-2.73,11.87-4.13c1.01-0.35,2.02-0.7,3.03-1.06
								l1.53-0.53l1.56-0.46c2.08-0.61,4.18-1.22,6.29-1.84c2.12-0.62,4.25-1.24,6.4-1.87c1.08-0.31,2.15-0.63,3.24-0.95l1.63-0.48
								l1.66-0.4c4.43-1.06,8.92-2.13,13.48-3.22c18.32-3.95,37.97-7.38,58.86-8.68c2.61-0.19,5.23-0.49,7.87-0.58
								c2.65-0.08,5.31-0.17,7.99-0.25c2.68-0.08,5.37-0.17,8.08-0.25c1.36-0.03,2.72-0.1,4.08-0.1c1.36,0.03,2.73,0.05,4.1,0.08
								c5.49,0.11,11.04,0.23,16.65,0.35c5.6,0.4,11.26,0.8,16.98,1.21c22.85,2.09,46.52,6.13,70.49,12.65
								c23.96,6.52,48.21,15.52,72.05,27.3c23.84,11.77,47.26,26.3,69.49,43.64c22.23,17.33,43.27,37.46,62.31,60.2l1.82,2.11
								c0.59,0.72,1.15,1.46,1.73,2.19c1.15,1.46,2.29,2.93,3.44,4.4c2.3,2.94,4.6,5.88,6.91,8.84c2.17,3.06,4.34,6.13,6.52,9.2
								c1.09,1.54,2.18,3.08,3.27,4.63l1.64,2.32l1.53,2.4c2.04,3.2,4.08,6.41,6.12,9.62c1.02,1.61,2.06,3.21,3.06,4.84
								c0.95,1.66,1.89,3.32,2.84,4.99c1.9,3.33,3.8,6.67,5.71,10.01c0.99,1.65,1.83,3.39,2.71,5.11c0.87,1.72,1.75,3.45,2.62,5.17
								c0.88,1.73,1.75,3.45,2.63,5.19l1.32,2.6c0.45,0.86,0.88,1.73,1.26,2.63c1.59,3.55,3.18,7.11,4.77,10.68
								c0.8,1.78,1.59,3.57,2.39,5.36c0.79,1.79,1.44,3.65,2.17,5.47c1.42,3.66,2.85,7.33,4.28,11.01l1.07,2.76l0.94,2.81
								c0.62,1.88,1.25,3.76,1.87,5.64c1.23,3.77,2.54,7.52,3.72,11.32c1.07,3.84,2.13,7.68,3.2,11.53
								c0.53,1.93,1.07,3.85,1.61,5.79c0.29,0.96,0.51,1.94,0.72,2.92l0.66,2.94c7.39,31.26,11.19,63.92,11.03,97.05"/>
						</g>
						<path class="st2" d="M201.75,384.34c0,0,0.42-1.91,1.24-5.59c0.2-0.92,0.43-1.95,0.68-3.09c0.26-1.14,0.63-2.36,0.99-3.7
							c0.73-2.67,1.58-5.76,2.54-9.26c0.48-1.75,0.99-3.6,1.52-5.54c0.25-0.98,0.57-1.96,0.91-2.97c0.33-1.01,0.67-2.04,1.02-3.09
							c1.39-4.22,2.9-8.82,4.53-13.77c1.87-4.87,3.88-10.1,6.01-15.67c1.01-2.81,2.3-5.6,3.58-8.49c1.28-2.89,2.6-5.86,3.95-8.92
							c0.69-1.52,1.32-3.09,2.09-4.62c0.77-1.53,1.55-3.08,2.33-4.64c1.58-3.13,3.19-6.34,4.84-9.63c0.41-0.82,0.83-1.65,1.25-2.48
							c0.46-0.81,0.92-1.62,1.38-2.44c0.92-1.63,1.86-3.29,2.8-4.96c1.9-3.33,3.79-6.76,5.81-10.21c2.13-3.38,4.3-6.82,6.52-10.33
							c1.11-1.75,2.22-3.52,3.35-5.31c1.17-1.76,2.42-3.48,3.64-5.24c2.47-3.52,4.97-7.09,7.52-10.73
							c2.67-3.54,5.47-7.08,8.26-10.71c1.41-1.81,2.82-3.63,4.25-5.46c1.51-1.77,3.03-3.54,4.56-5.33c1.53-1.79,3.07-3.59,4.63-5.41
							c1.57-1.8,3.07-3.69,4.77-5.42c3.32-3.53,6.69-7.1,10.09-10.72c1.67-1.84,3.5-3.55,5.31-5.3c1.81-1.75,3.63-3.5,5.46-5.27
							c1.84-1.76,3.66-3.56,5.55-5.31c1.94-1.7,3.88-3.4,5.84-5.12c1.96-1.72,3.93-3.44,5.91-5.18c1-0.86,1.97-1.76,3-2.59
							c1.04-0.82,2.07-1.65,3.11-2.48c4.18-3.29,8.34-6.7,12.65-9.99c4.41-3.17,8.86-6.37,13.35-9.6
							c18.25-12.51,38.15-24.04,59.55-34c21.39-9.96,44.26-18.33,68.24-24.62c47.97-12.46,100.33-16.3,152.45-9.93
							c26.05,3.18,52.02,8.94,77.23,17.25c25.21,8.3,49.66,19.14,72.74,32.23c23.08,13.09,44.79,28.42,64.66,45.54
							c19.87,17.12,37.89,36.01,53.76,56.12"/>
					</g>
				</g>
			</g>
		</g>
	</g>
</g>
<g>
	<g>
		<g>
			<g>
				<g class="st0">
					<g>
						<g>
							<path class="st1" d="M1000.23,425.22c2.83,18.88,4.45,38.28,5.04,56.54c0.03,4.86-0.03,9.63-0.07,14.32
								c-0.01,1.17-0.03,2.34-0.04,3.5c-0.01,1.16-0.02,2.32-0.11,3.48c-0.15,2.31-0.29,4.6-0.43,6.87
								c-0.15,2.28-0.3,4.54-0.45,6.79c-0.15,2.25-0.27,4.5-0.57,6.72c-0.52,4.45-1.04,8.86-1.56,13.28
								c-2.52,17.57-5.61,34.96-10.4,53.33c-5.79,23.08-13.88,45.38-23.96,66.97c-10.09,21.6-22.16,42.51-36.22,62.87
								c-12.95,18.65-27.65,36.31-43.79,52.72l-6.06,6.16c-0.99,1.05-2.08,1.99-3.13,2.98l-3.19,2.93l-6.38,5.86l-3.19,2.93
								l-3.34,2.77l-6.68,5.54l-3.34,2.77c-1.12,0.91-2.21,1.88-3.39,2.72c-4.64,3.46-9.29,6.93-13.93,10.39
								c-18.94,13.39-39.01,25.24-59.93,35.28l-7.89,3.66c-2.64,1.2-5.23,2.51-7.95,3.53c-5.38,2.16-10.75,4.32-16.12,6.48
								c-5.47,1.88-10.94,3.76-16.41,5.63c-2.71,1-5.52,1.71-8.28,2.52l-8.32,2.38c-20.97,5.67-42.12,9.67-63.26,12.05
								c-21.16,2.15-42.26,2.7-63.15,1.72c-20.9-0.86-41.52-3.76-61.74-7.87c-10.15-1.91-20.09-4.67-30.02-7.3
								c-4.91-1.52-9.81-3.04-14.71-4.56c-2.47-0.71-4.86-1.63-7.27-2.5l-7.23-2.63c-2.4-0.89-4.83-1.71-7.2-2.66l-7.08-2.97
								l-7.08-2.96c-1.17-0.51-2.37-0.96-3.52-1.51l-3.46-1.65l-13.83-6.62l-13.5-7.26c-17.79-10.04-34.91-21.26-51.08-33.81
								c-16.06-12.7-31.22-26.56-45.4-41.5c-14.03-15.09-26.89-31.35-38.71-48.49c-27.29-39.99-48.87-87.88-60.28-138.81
								c-5.74-25.44-9.01-51.56-9.72-77.56c-0.73-26,1.08-51.85,5.14-76.78c2.99-18.23,8.03-40.98,16.31-65.02
								c8.2-24.05,19.63-49.32,33.44-72.84c13.75-23.56,29.87-45.29,45.8-63.35c2.01-2.25,3.98-4.46,5.93-6.64
								c0.98-1.08,1.92-2.18,2.9-3.23c1.01-1.02,2-2.03,2.99-3.04c3.96-4,7.71-7.91,11.37-11.53c7.6-6.96,14.24-13.47,20.42-18.46
								c-2.05,1.69-4.1,3.39-6.16,5.09c-1.99,1.78-3.95,3.6-5.93,5.4c-1.98,1.8-3.96,3.61-5.94,5.42l-2.98,2.71
								c-0.97,0.93-1.9,1.9-2.85,2.85c-3.79,3.82-7.59,7.64-11.4,11.47c-3.61,4.01-7.24,8.03-10.86,12.06
								c-14.2,16.37-27.22,33.9-38.79,52.32c-2.8,4.66-5.6,9.32-8.39,13.97c-2.57,4.78-5.14,9.56-7.71,14.33
								c-0.63,1.2-1.32,2.37-1.89,3.59l-1.75,3.66c-1.16,2.44-2.33,4.88-3.49,7.31l-1.74,3.65c-0.59,1.21-1.17,2.43-1.67,3.68
								c-1.04,2.48-2.09,4.96-3.13,7.44c-1.04,2.48-2.08,4.95-3.12,7.42c-0.55,1.23-0.99,2.49-1.45,3.75l-1.38,3.77
								c-0.92,2.51-1.83,5.02-2.75,7.52l-1.37,3.75c-0.46,1.25-0.81,2.53-1.22,3.8c-1.59,5.07-3.17,10.13-4.74,15.16
								c-1.34,5.1-2.67,10.19-3.99,15.25c0.71-2.78,1.41-5.57,2.12-8.36l1.06-4.18c0.35-1.39,0.69-2.79,1.13-4.16
								c1.68-5.51,3.36-11.02,5.04-16.54c1.94-5.44,3.88-10.88,5.83-16.32l0.73-2.04l0.82-2.01l1.66-4.01l3.32-8.03
								c9.17-21.29,20.19-41.87,32.94-61.39l4.83-7.29c0.82-1.2,1.58-2.46,2.45-3.62l2.59-3.52l5.19-7.05
								c1.73-2.35,3.42-4.73,5.31-6.96c3.71-4.51,7.34-9.09,11.11-13.56l11.74-13.03c16.07-16.99,33.62-32.59,52.35-46.59
								c18.74-13.96,38.55-26.54,59.4-36.97c20.8-10.51,42.43-19.24,64.56-26.06l8.33-2.45c2.78-0.81,5.53-1.68,8.36-2.3
								c5.62-1.34,11.22-2.75,16.84-4.04c5.66-1.08,11.32-2.16,16.97-3.23c1.41-0.3,2.83-0.48,4.26-0.68l4.27-0.6
								c2.84-0.4,5.69-0.8,8.53-1.2c22.77-2.83,45.64-3.73,68.28-2.78c-21.21-0.89-42.49-0.26-63.6,2.08
								c-21.09,2.49-41.99,6.58-62.46,12.19l-15.28,4.49l-15.03,5.24l-3.76,1.31l-3.69,1.49l-7.38,2.99l-7.38,2.99l-7.22,3.34
								l-7.21,3.35l-3.61,1.67c-1.2,0.56-2.35,1.22-3.53,1.83l-14.07,7.41c-1.19,0.59-2.3,1.31-3.45,1.97l-3.42,2.03l-6.84,4.05
								l-3.42,2.03l-1.71,1.01l-1.66,1.09l-6.62,4.39c-8.96,5.67-17.34,12.15-25.86,18.42l-12.28,10.05l-3.07,2.51l-2.94,2.66
								l-5.88,5.32l-5.88,5.32c-1.89,1.84-3.74,3.73-5.61,5.59l-5.6,5.6l-2.8,2.8c-0.92,0.94-1.78,1.95-2.67,2.92l-10.62,11.73
								c-3.39,4.04-6.69,8.14-10.04,12.21c-13.08,16.52-24.93,33.96-35.4,52.17c-10.27,18.32-19.17,37.35-26.63,56.88
								c-7.56,19.5-13.2,39.67-17.55,60c-1.05,5.1-2.24,10.16-2.96,15.31l-1.24,7.69l-0.62,3.84c-0.21,1.28-0.42,2.56-0.54,3.85
								c-0.58,5.16-1.16,10.31-1.74,15.46c-0.35,2.57-0.41,5.16-0.61,7.74l-0.5,7.75l-0.25,3.87c-0.09,1.29-0.17,2.58-0.17,3.87
								l-0.13,7.75c-0.07,5.16-0.27,10.33,0,15.48l0.24,7.73l0.12,3.86c0.04,1.29,0.06,2.58,0.19,3.86
								c0.41,5.13,0.81,10.26,1.22,15.39c2.09,20.46,5.58,40.69,10.5,60.51c5.16,19.76,11.68,39.06,19.4,57.8
								c4.21,9.21,8.12,18.55,12.92,27.43c4.4,9.09,9.66,17.68,14.64,26.4c2.63,4.27,5.42,8.44,8.12,12.66
								c1.37,2.1,2.69,4.22,4.1,6.29l4.38,6.09l4.38,6.08c1.47,2.02,2.87,4.09,4.47,6c3.11,3.9,6.22,7.79,9.33,11.67
								c0.79,0.96,1.53,1.96,2.35,2.9l2.47,2.79l4.93,5.58l4.93,5.57c1.65,1.85,3.44,3.56,5.15,5.35c3.47,3.52,6.88,7.11,10.4,10.58
								c3.62,3.36,7.24,6.71,10.85,10.06c-2.13-1.94-4.26-3.89-6.4-5.83l-3.21-2.93c-1.07-0.98-2.16-1.94-3.16-2.99
								c-4.09-4.12-8.2-8.27-12.33-12.43c-3.99-4.29-7.86-8.72-11.83-13.1c-0.97-1.11-2-2.18-2.94-3.32l-2.8-3.45
								c-1.87-2.3-3.74-4.61-5.61-6.93c-14.79-18.66-28.2-38.87-39.89-60.38c-2.79-5.45-5.7-10.86-8.43-16.38
								c-2.56-5.6-5.12-11.22-7.69-16.86c-2.36-5.73-4.6-11.52-6.91-17.3l-0.86-2.17l-0.76-2.21l-1.51-4.43
								c-1-2.96-2.01-5.92-3.02-8.88c-7.67-23.83-13.2-48.62-16.35-73.91c-6.35-50.57-3.03-103.14,10.22-153.54
								c13.17-50.41,36.27-98.58,67.71-140.48c15.7-20.96,33.44-40.36,52.83-57.83c19.39-17.47,40.42-33,62.6-46.39
								c44.33-26.83,93.36-44.9,143.14-53.07c49.78-8.26,100.09-6.92,147.34,2.57c23.64,4.73,46.54,11.47,68.37,19.9
								c2.71,1.1,5.42,2.19,8.12,3.28l4.05,1.63l2.02,0.82l1.98,0.91c5.27,2.43,10.52,4.84,15.75,7.24
								c5.11,2.65,10.19,5.28,15.26,7.91c2.56,1.26,4.97,2.78,7.44,4.18c2.45,1.43,4.9,2.85,7.34,4.27c1.48,0.86,2.97,1.73,4.47,2.6
								c1.46,0.94,2.92,1.89,4.39,2.84c2.94,1.9,5.91,3.81,8.88,5.73l2.23,1.44l1.12,0.72l1.08,0.77c1.44,1.03,2.88,2.06,4.31,3.09
								c2.87,2.05,5.73,4.1,8.57,6.12c0.71,0.51,1.42,1.01,2.12,1.51c0.68,0.54,1.36,1.07,2.03,1.6c1.35,1.07,2.69,2.13,4.02,3.18
								c2.67,2.1,5.29,4.17,7.85,6.19c0.64,0.51,1.28,1.01,1.91,1.51c0.61,0.53,1.21,1.05,1.81,1.58c1.2,1.04,2.39,2.07,3.55,3.09
								c2.34,2.03,4.6,3.99,6.77,5.88c-16.58-15.19-34.93-29-54.49-41.5c-19.58-12.48-40.49-23.51-62.49-32.75
								c-22-9.23-45.08-16.75-68.92-22.08c-23.84-5.34-48.41-8.62-73.29-9.64c-49.75-2.09-100.8,5.03-149.2,21.72
								c-48.4,16.64-94.11,42.69-133.55,76.42c-39.38,33.79-72.23,75.38-95.98,121.47c-23.81,46.07-38.55,96.53-43.52,147.37
								c-5.03,50.85-0.26,102.01,13.21,149.7c6.71,23.86,15.55,46.86,26.18,68.67c2.79,5.39,5.57,10.76,8.34,16.11
								c2.94,5.26,6.04,10.41,9.04,15.6c0.76,1.29,1.49,2.6,2.28,3.87l2.45,3.75c1.63,2.5,3.27,4.99,4.89,7.48l2.44,3.73
								c0.81,1.24,1.61,2.49,2.51,3.68c1.75,2.4,3.49,4.79,5.23,7.18l4.8,6.58l1.2,1.64l1.28,1.58l2.56,3.17l5.13,6.33l2.56,3.17
								l1.28,1.58c0.44,0.52,0.9,1.01,1.35,1.52l10.89,12.14l1.36,1.52c0.47,0.5,0.95,0.97,1.43,1.45l2.87,2.9l5.75,5.8
								c15.52,15.26,32.18,29.41,49.96,42.1c17.86,12.57,36.7,23.77,56.35,33.47l7.41,3.54l3.71,1.77l1.86,0.88l1.89,0.8
								c5.05,2.12,10.11,4.24,15.17,6.36c5.12,1.97,10.3,3.78,15.45,5.68l3.87,1.41l3.93,1.23l7.87,2.44
								c84.03,26.03,177.24,23.36,260.9-7.89c22.71-8.48,44.71-19.07,65.66-31.46c20.94-12.39,40.85-26.58,59.33-42.41
								c37.82-32.63,69.65-72.45,93.19-116.69c23.59-44.22,38.9-92.79,45.02-142.3c2.84-21.96,4.04-48.53,2.29-76.26
								c-1.75-27.73-6.77-56.53-14.27-82.82c-0.98-3.27-1.95-6.52-2.92-9.74c-0.48-1.61-0.96-3.21-1.44-4.8
								c-0.48-1.59-1.09-3.13-1.62-4.68c-1.1-3.09-2.2-6.15-3.27-9.17c-1.1-3.01-2.07-6.01-3.33-8.86
								c-2.4-5.73-4.69-11.29-6.97-16.58c-2.51-5.18-4.91-10.14-7.18-14.84c-0.58-1.17-1.12-2.33-1.7-3.46
								c-0.61-1.11-1.22-2.2-1.81-3.27c-1.19-2.14-2.35-4.22-3.46-6.21c-1.12-1.99-2.2-3.91-3.23-5.75
								c-0.52-0.92-1.03-1.81-1.53-2.69c-0.54-0.85-1.07-1.68-1.59-2.49c-4.15-6.47-7.53-11.57-9.96-14.98
								c3.58,6.07,7.25,12.3,10.96,18.6c1.71,3.23,3.43,6.48,5.15,9.73l2.59,4.88c0.86,1.63,1.75,3.24,2.49,4.92
								c1.55,3.33,3.1,6.66,4.65,9.96c1.51,3.32,3.15,6.55,4.42,9.92c1.34,3.33,2.66,6.63,3.97,9.88c0.65,1.63,1.29,3.24,1.93,4.84
								c0.66,1.59,1.14,3.24,1.7,4.84c-0.45-1.2-0.91-2.42-1.37-3.66c-0.53-1.22-1.06-2.46-1.6-3.71c-1.08-2.51-2.19-5.09-3.33-7.72
								c-1.15-2.63-2.25-5.34-3.48-8.03c-1.29-2.67-2.6-5.37-3.92-8.1c1.21,2.62,2.45,5.3,3.7,8.02c1.2,2.73,2.26,5.56,3.4,8.33
								c1.12,2.77,2.24,5.52,3.32,8.2c0.53,1.34,1.13,2.64,1.58,3.97c0.47,1.32,0.94,2.61,1.39,3.88c-0.38-1.04-0.76-2.09-1.14-3.13
								c-0.19-0.52-0.38-1.04-0.57-1.55c-0.21-0.5-0.43-1-0.64-1.5c-0.85-1.98-1.67-3.89-2.42-5.64c-1.52-3.5-2.79-6.35-3.56-7.88
								c1.28,3.22,2.72,6.76,4.22,10.42c0.74,1.84,1.56,3.67,2.26,5.56c0.68,1.9,1.37,3.8,2.05,5.68c1.37,3.76,2.71,7.43,3.93,10.81
								c0.65,1.68,1.11,3.33,1.6,4.86c0.47,1.54,0.92,2.97,1.32,4.27c2.24,5.99,9.91,34.43,10.87,42.83
								c-4.28-21.42-11.98-47.93-18.96-64.26c2.39,7.12,5.07,14.08,6.89,21.17c-0.71-2.15-1.49-4.84-2.45-7.68
								c-1.03-2.82-2.12-5.83-3.17-8.7c-1.06-2.87-2.06-5.61-2.91-7.91c-0.41-1.15-0.84-2.16-1.24-3.02
								c-0.38-0.86-0.71-1.57-0.97-2.08c0.44,1.08,0.87,2.15,1.31,3.22c0.43,1.07,0.77,2.16,1.16,3.23c0.75,2.15,1.5,4.27,2.24,6.38
								c0.74,2.11,1.48,4.21,2.22,6.3l1.11,3.14c0.35,1.05,0.64,2.12,0.97,3.18c1.26,4.26,2.53,8.53,3.82,12.9
								c0.32,1.09,0.65,2.19,0.97,3.3c0.27,1.12,0.54,2.25,0.82,3.39c0.54,2.28,1.09,4.58,1.65,6.94c0.45,1.91,0.9,3.79,1.34,5.66
								c0.44,1.86,0.9,3.7,1.21,5.56c0.69,3.7,1.37,7.34,2.04,10.96c0.34,1.81,0.68,3.61,1.02,5.42c0.34,1.8,0.53,3.63,0.8,5.45
								c0.52,3.64,1.05,7.3,1.58,11.01c-0.66-4.43-1.38-9.24-2.11-14.16c-0.16-1.23-0.42-2.46-0.66-3.68l-0.73-3.68
								c-0.49-2.45-0.98-4.9-1.46-7.3c-0.5-2.4-0.91-4.77-1.47-7.03c-0.58-2.26-1.14-4.43-1.67-6.51c-1.07-4.14-2.05-7.83-2.88-10.8
								c0.9,4.04,1.87,8.17,2.87,12.33c0.5,2.08,1,4.17,1.5,6.25c0.41,2.11,0.81,4.21,1.22,6.3c-0.24-1.01-0.4-1.6-0.49-1.8
								c0.68,3.72,1.58,8.63,2.29,12.49c-0.06,0.11,0.03,0.98-0.19,0.25c0.07,0.09,0.14,0.13,0.2,0.18"/>
							<path class="st1" d="M1000.51,398.27c0.27,1.14,0.55,2.31,0.84,3.51c0.14,0.6,0.3,1.2,0.43,1.81
								c0.12,0.62,0.23,1.24,0.35,1.87c0.47,2.51,0.96,5.11,1.46,7.77c0.5,2.65,1,5.36,1.52,8.09c0.28,1.36,0.47,2.74,0.65,4.13
								c0.19,1.38,0.38,2.77,0.56,4.15c0.37,2.76,0.74,5.51,1.11,8.21c0.18,1.35,0.36,2.69,0.54,4.02c0.2,1.32,0.25,2.64,0.37,3.94
								c0.42,5.18,0.81,10.05,1.16,14.32"/>
							<path class="st2" d="M263.93,714.19c0,0-2.14-3.25-6.18-9.41c-1.94-3.13-4.19-7.09-6.92-11.71
								c-1.35-2.32-2.84-4.79-4.36-7.48c-1.43-2.74-2.94-5.65-4.55-8.73c-1.59-3.09-3.33-6.32-5.05-9.76
								c-1.61-3.5-3.29-7.17-5.05-11c-0.88-1.91-1.78-3.87-2.69-5.86c-0.48-0.99-0.89-2.02-1.3-3.06c-0.42-1.04-0.83-2.09-1.26-3.15
								c-1.69-4.24-3.45-8.63-5.27-13.18c-6.69-18.41-13.2-39.74-17.91-63.75c-4.72-23.99-7.64-50.65-7.51-79.15
								c0.11-28.48,3.25-58.79,10.21-89.73c7.11-30.89,18.22-62.29,33.39-92.81c2-3.76,4.02-7.53,6.04-11.31
								c1.01-1.89,2.02-3.79,3.03-5.69c1.1-1.85,2.21-3.7,3.31-5.55c2.21-3.71,4.44-7.43,6.66-11.16c2.4-3.62,4.81-7.25,7.23-10.89
								c1.21-1.82,2.42-3.64,3.64-5.46c1.27-1.78,2.6-3.53,3.9-5.3c2.61-3.53,5.22-7.08,7.85-10.63c2.79-3.42,5.58-6.85,8.39-10.29
								c1.4-1.72,2.81-3.44,4.21-5.16c1.46-1.67,2.97-3.31,4.46-4.96c2.99-3.31,5.98-6.62,8.97-9.94c3.15-3.17,6.31-6.34,9.48-9.52
								l4.76-4.77l4.99-4.54c3.33-3.02,6.67-6.05,10.01-9.08c3.49-2.86,6.98-5.73,10.47-8.6l5.25-4.3c1.79-1.38,3.64-2.7,5.45-4.05
								c3.65-2.69,7.3-5.39,10.95-8.09c3.74-2.57,7.56-5.04,11.34-7.56l5.68-3.77c1.9-1.26,3.9-2.35,5.84-3.53l11.74-6.97
								c0.49-0.29,0.97-0.59,1.47-0.86l1.51-0.8l3.02-1.59l6.04-3.18l6.04-3.19l1.51-0.8l1.55-0.72l3.1-1.44l12.39-5.75l1.55-0.72
								l1.58-0.64l3.16-1.28l6.33-2.56l6.32-2.56c0.53-0.21,1.05-0.43,1.58-0.63l1.61-0.56l3.22-1.12
								c4.29-1.49,8.58-2.98,12.86-4.47c69.14-22.31,143.05-25.11,208.89-10.98c2.06,0.41,4.13,0.82,6.18,1.23
								c2.03,0.51,4.06,1.01,6.09,1.52c4.05,1.01,8.09,2.01,12.11,3.01c3.98,1.12,7.92,2.36,11.85,3.52
								c3.93,1.19,7.87,2.29,11.67,3.72c3.83,1.35,7.65,2.69,11.45,4.03l2.84,1l2.79,1.13c1.85,0.75,3.7,1.51,5.55,2.26
								c3.68,1.52,7.38,2.94,10.99,4.53c3.57,1.65,7.13,3.3,10.66,4.94c1.77,0.82,3.53,1.63,5.29,2.45
								c1.75,0.83,3.43,1.77,5.15,2.64c3.41,1.78,6.8,3.55,10.17,5.31l2.52,1.32c0.84,0.44,1.64,0.95,2.46,1.41
								c1.63,0.95,3.25,1.9,4.87,2.85c3.24,1.89,6.45,3.77,9.64,5.64c3.12,1.98,6.18,4.01,9.24,5.99c1.53,0.99,3.05,1.98,4.56,2.97
								c1.5,1,3.06,1.92,4.49,3.01c2.91,2.1,5.8,4.18,8.66,6.25c1.43,1.03,2.86,2.06,4.28,3.09c0.71,0.52,1.43,1.02,2.12,1.54
								l2.04,1.63c22.01,16.98,40.83,34.95,56.57,52.54c15.69,17.66,28.27,34.88,38.72,50.23"/>
						</g>
						<path class="st2" d="M249.25,291.73c0,0,0.17-0.32,0.51-0.95c0.33-0.64,0.84-1.57,1.58-2.77c1.44-2.41,3.58-5.97,6.36-10.6
							c5.56-9.24,14.33-22.34,26.39-38.05c12.24-15.57,28.21-33.43,48.36-51.51c20.13-18.06,44.55-36.21,72.91-52.26
							c3.6-1.9,7.23-3.83,10.89-5.76c3.68-1.91,7.31-3.98,11.17-5.67c3.82-1.78,7.66-3.57,11.53-5.37c0.97-0.45,1.94-0.9,2.91-1.36
							c0.98-0.44,1.98-0.82,2.98-1.23c1.99-0.81,3.99-1.62,6-2.44c15.96-6.77,32.98-12.12,50.49-16.93
							c4.41-1.07,8.85-2.14,13.3-3.22l3.35-0.81c1.12-0.24,2.26-0.44,3.39-0.66c2.26-0.43,4.53-0.86,6.8-1.3
							c9.05-1.93,18.32-3.02,27.61-4.37c1.16-0.19,2.33-0.28,3.5-0.39l3.51-0.32c2.34-0.22,4.69-0.43,7.05-0.65
							c2.35-0.21,4.71-0.45,7.07-0.64c2.37-0.1,4.74-0.21,7.11-0.31c2.37-0.1,4.75-0.21,7.13-0.31c2.38-0.08,4.76-0.27,7.15-0.21
							c4.77,0.02,9.56,0.04,14.35,0.06c1.2,0.02,2.4-0.02,3.6,0.04l3.59,0.19c2.4,0.12,4.8,0.25,7.2,0.37l7.21,0.37
							c2.4,0.16,4.8,0.46,7.2,0.68l7.2,0.71l3.6,0.36c1.2,0.11,2.41,0.23,3.6,0.43c4.78,0.7,9.57,1.41,14.35,2.11l3.59,0.54
							l3.56,0.7l7.13,1.39l7.13,1.39c2.37,0.47,4.71,1.12,7.06,1.68c4.69,1.18,9.42,2.25,14.09,3.51c4.64,1.37,9.28,2.74,13.91,4.11
							c36.88,11.53,71.88,28.09,102.98,48.51"/>
					</g>
				</g>
			</g>
		</g>
	</g>
</g>
<g>
	<path class="st3" d="M307.5,661.62c-6.65,2.27-8.32,3.57-10.38,4.56c-2.79,1.07-10.11,3.8-18.38,4.81l-5.39,0.66
		c-5.79,0.35-13.07,0.51-18.8-7.54c-3.54-5.04-3.85-7.55-4.15-10.07c-0.18-1.44,0.06-5.48-0.16-7.28
		c-0.26-2.16,3.26-12.07,3.71-14.32c1.72-6.78,6.32-13.91,7.63-18.08c1.04-3.41,3.56-6.64,4.29-9.65c0.86-1.93,2.98-5.47,2.75-7.27
		c-0.09-0.72-0.13-1.08-0.85-0.99c-0.36,0.04-1.08,0.13-1.75,0.58c-4.41,2.73-2.02,1.34-4.63,3.85c-5.49,5.78-4,3.04-9.18,8.42
		c-4.23,4.17-4.27,3.81-8.46,8.33c-2.88,3.27-8.95,7.3-10.53,9.32c-2.93,2.91-7.78,4.97-14.58,12c-5.18,5.38-6.75,4.48-11.56,9.81
		c-4.5,4.93-12.19,10.62-14.44,13.08c-2.29,2.11-9.18,8.42-13.9,11.56c-4,3.04-8.41,5.77-11.47,7.61c-4.81,2.42-9.36,6.99-14.39,7.6
		c-1.44,0.18-5.03,0.62-6.56,0.07c-5.3-1.54-8.56-7.34-8.91-10.21c-0.09-0.72-0.21-4.71,0.06-5.48c1.71-3.86,1.41-9.29,5.42-15.26
		c1.89-2.42,1.71-3.86,7.34-11.48c2.79-3.99,2.57-5.79,7.3-11.84c2.84-3.63,4.19-7.44,6.63-11.39c3.69-5.56,4.51-7.85,7.03-11.08
		c3.47-4.44,4.24-7.09,6.04-10.23c2.98-5.47,5.5-8.7,7.53-12.96c2.93-5.83,5.28-10.5,5.28-10.5c1.67-4.22,4.46-8.21,5.91-11.3
		c2.07-3.9,5.63-7.62,6.99-11.44c1.49-5.66,6.22-11.71,5.91-14.22c-0.04-0.36-1.21-0.95-1.57-0.9c-1.44,0.18-3.82,1.56-5.13,2.82
		c-4.32,3.45-5.67,4.34-10.76,10.44c-5.09,6.1-6.84,6.68-11.84,13.49c-4.1,5.25-8.64,9.82-12.16,13.89
		c-5.13,5.74-6.21,5.87-10.22,11.83c-4.01,5.96-14.4,13.44-16.39,18.06c-1.17,2.33-6.17,6.23-11.88,13.13
		c-5.72,6.9-9.05,9.5-11.25,12.33c-2.52,3.23-9.23,10.98-14.22,14.88c-4.32,3.45-8.59,7.26-10.84,9.72
		c-4.82,5.33-13.86,11.92-20.92,16.79c-7.06,4.88-10.26,8.56-19.56,12.98l-13.13,5.99c-5.53,2.5-6.92,3.04-10.16,3.44
		c-5.12-0.1-8.16-4.1-8.74-8.78c-0.09-0.72-0.13-4-0.21-4.72c0.73-5.93-0.17-4.36,2.86-15.31c0.95-4.13,4.61-12.97,5.65-16.38
		c2.21-5.74,5.68-10.18,7.17-12.92c1.22-1.97,4.37-6.01,6.04-10.23c1.94-4.98,5.36-6.86,8.06-11.57c3.97-6.32,6.39-7.35,11.12-13.4
		c4.1-5.25,10.53-9.32,12.87-11.07c3.69-2.64,8.5-5.06,12.81-5.58c1.44-0.18,2.52-0.31,3.64-0.08c1.89,0.5,3.77,1,4.12,3.87
		c-0.23,4.04-6.43,4.07-10.43,7.12c-4,3.04-3.1,1.47-7.02,5.24c-3.56,3.72-1.03,0.49-5.49,5.78c-4.1,5.25-7.16,10-9.24,13.9
		c-1.67,4.22-2.48,6.51-7.49,16.24c-2.07,3.9-2.4,10.14-4.03,14.72c-0.77,2.65-0.64,6.65-0.29,9.52c0.22,1.8,0.76,3.19,1.88,3.42
		c0.72-0.09,2.2,0.09,2.56,0.05c1.08-0.13,4.31-0.53,10.11-3.79c8.59-4.34,12.77-8.86,21.1-15.36c8.32-6.49,11.97-12.41,17.6-17.12
		s6.84-6.68,12.06-11.69c5.22-5.02,5.99-7.67,11.84-13.49c5.85-5.83,8.83-11.3,14.41-16.36s6.94-8.88,13.19-14.39
		c7.56-6.76,7.29-8.92,13.5-14.79c6.52-6.27,6.39-7.35,11.61-12.37c6.17-6.23,9.27-10.62,13.19-14.39
		c3.92-3.76,7.52-7.12,11.57-12.73c3.74-5.2,8.64-9.82,11.53-13.09c3.15-4.04,6.48-6.63,9.77-9.59c2.97-2.55,6.71-7.75,10.45-12.96
		c3.42-4.8,5.81-6.18,9.19-11.34c3.38-5.16,6.58-8.83,10.36-13.67c2.52-3.23,2.39-4.31,7.48-10.4c5.09-6.1,12.07-14.61,15.13-19.37
		c4.55-7.49,7.43-10.76,12.21-16.45c4.77-5.69,8.51-10.89,10.4-13.32c1.89-2.42,3.78-4.84,10.35-10.75
		c4.9-4.62,10.66-8.24,13.9-8.64c2.88-0.35,9.38,2.13,9.82,5.73c0.09,0.72,1.19,9.7,0.92,10.46c-0.23,4.04-2.8,6.91-4.38,11.85
		c-1.58,4.94-12.38,12.1-14.95,17.89c-3.02,5.11-7.29,6-12.06,11.69c-5.18,5.38-6.8,9.96-13.82,15.19c-3.33,2.6-6.12,6.59-8.6,10.18
		c-3.11,4.39-5.45,9.06-8.47,11.25c-5.26,4.66-7.29,8.92-12.29,15.74l-6.85,9.6c-3.38,5.16-6.13,9.51-7.57,12.6
		c-0.81,2.29-4.51,7.85-7.26,12.2c-3.69,5.56-7.57,12.6-9.46,15.02c-3.83,4.48-4.78,8.61-7.08,13.64c-1.44,3.1-4.68,6.41-6.67,11.03
		c-1.13,2.69-2.62,5.43-4.1,8.17l-6.58,11.75c-2.03,4.26-2.26,5.38-5.01,9.73c-2.75,4.35-4.19,7.45-6.22,11.71s-5.5,8.7-7.71,14.44
		c-2.21,5.74-6.63,11.39-8.3,15.61c-2.17,6.1-4.38,8.93-3.98,12.16c0.18,1.44,1.34,2.02,3.5,1.76c1.44-0.18,2.83-0.71,4.54-1.65
		c0.36-0.04,5.84-2.91,11.78-8.01c5.58-5.06,7.15-4.16,11.34-8.69c5.18-5.38,5.35-3.94,10.57-8.96c4.19-4.53,4.68-3.49,11.88-10.21
		c1.62-1.66,5.71-3.98,9.27-7.7c4.19-4.53,3.42-1.88,8.86-8.02c3.2-3.68,5.62-4.7,9.18-8.42c6.08-6.95,6.84-6.68,12.02-12.05
		c4.23-4.17,8.15-7.93,9.72-9.95c0,0,6.39-7.35,10.31-11.12c8.46-8.33,7.52-10.04,14.95-17.89c6.12-6.59,10.4-13.32,10.4-13.32
		c2.52-3.23,6.13-9.51,8.06-11.57c3.92-3.76,7.52-10.04,11.85-16.41c3.47-4.44,6.13-9.51,8.38-11.97
		c9.55-11.39,9.1-12.06,14.1-18.88c5.63-7.62,6.04-10.23,10.45-15.87c3.15-4.04,2.03-4.26,6.49-9.55c1.89-2.42,4.68-6.41,7.38-8.2
		c6.12-3.67,6.79-4.12,8.59-4.34c2.87-0.35,8.75,2.94,9.15,6.17c0.53,4.31-0.78,8.49-3.21,12.43l-7.43,10.76
		c-2.12,3.54-6.66,8.11-9.86,11.79c-5.45,6.14-6.98,8.52-9.96,13.99c-2.57,5.79-6.44,9.91-13.06,18.38
		c-6.62,8.47-10.5,15.52-14.6,20.76c-4.19,4.53-10.36,13.67-13.92,20.31c-1.4,3.46-6.76,10.31-8.79,14.58l-6.22,11.71
		c-2.89,6.19-7.53,12.96-10.33,19.87c-1.67,4.22-4.6,10.05-7.17,15.84c-1.4,3.46-2.93,5.83-3.61,9.2
		c-1.41,6.37-1.96,10.82-1.51,14.41c0.22,1.8,0.85,3.91,2.36,7.37c3.4,6.88,12.65,5.01,15.21,5.06c3.59-0.44,5.93-2.19,9.89-2.67
		c6.38-1.51,9.84-3.03,15.69-5.94c0,0,7.82-4.61,12.77-5.95c4.94-1.33,5.76-3.62,8.9-4.74c2.83-0.71,6.47-3.71,9.62-4.83
		c4.18-1.61,6.12-3.67,10.16-6.35c5.76-3.62,11.47-7.61,11.47-7.61l7.38-5.28c5.13-2.82,8.28-6.85,11.15-7.21
		c2.2,0.09,4.45,0.55,4.84,3.78c0.22,1.8-7.43,7.84-11.47,10.53c0,0-5.35,3.94-8.68,6.54c-6.75,4.47-5.67,4.34-10.03,7.43
		c0,0-1.62,1.66-7.74,5.33c-6.12,3.67-8.05,5.73-15.6,9.58c-5.84,2.91-6.34,4.79-15.65,9.22c-4.5,2.01-4.27,3.81-9.8,6.31
		c-5.53,2.5-6.12,3.67-10.3,5.28L307.5,661.62z"/>
	<path class="st3" d="M448.38,635.57c-3.24,3.32-4.27,3.81-12.54,4.82c-6.83,0.84-11.04-3.75-11.97-11.3
		c-1.24-10.06,0.84-13.96,6.29-20.11c4.86-4.97,7.69-5.69,12.36-6.26c8.98-1.1,13.47,2.72,14.04,7.4
		c0.57,4.67,0.38,11.99-0.48,13.92C453.25,630.59,452.25,631.44,448.38,635.57z"/>
	<path class="st3" d="M798.66,556.08c1.75-0.58,10.39-7.48,14.8-10.21c4.41-2.73,4.23-4.17,7.1-4.52c2.2,0.09,4.45,0.55,4.84,3.78
		c-0.18,1.48-2.75,4.35-6.8,7.04c0,0-4.99,3.9-8.32,6.49c-6.75,4.47-3.6,3.36-13.45,9.31c-1.31,1.26-2.61,2.51-6.75,4.48
		c-7.6,3.49-10.21,6-15.78,8.14c-3.1,1.48-10.2,3.08-12.36,3.34l-3.91,0.84c-1.44,0.18-3.28,0.04-5.79,0.35l-2.92-0.01
		c-3.95,0.49-3.32-0.32-7.63,0.21c-0.72,0.09-2.11,0.62-4,3.04c-2.52,3.23-3.01,2.19-6.93,8.88c-2.12,3.54-2.57,5.79-6.49,9.55
		c-3.92,3.76-4.14,4.89-9.18,8.42c-5.04,3.54-8.77,5.82-12.32,6.62l-5.79,0.35c-5.75,0.71-10.54-5.64-11.16-10.67
		c-0.31-2.51,0.42-5.52,2.26-8.3c2.75-4.35,8.81-5.46,11.92-9.85c3.11-4.39,8.05-5.73,10.76-10.44c2.7-4.71,6.03-7.31,5.64-10.54
		c-0.18-1.44-4.43-6.39-5.33-7.74c-4.75-5.98-7.21-11.15-7.65-14.75c-0.09-0.72-0.71-2.83-0.8-3.55c-0.44-3.59-2.15-2.65-3.3-9.08
		l-0.66-5.39c-0.31-2.52-1.34-4.94-1.82-8.9c-0.44-3.59-0.03-6.2-0.38-9.07c-0.49-3.95,0.01-5.84-0.03-9.12
		c0.28-3.68,0.2-7.32-0.2-10.55c-0.27-2.16-1.16-3.5-2.96-3.29c-1.44,0.18-5.62,1.78-10.43,7.12c-4.82,5.33-13.86,11.92-18.59,17.97
		c-4.73,6.05-12.96,10.34-20.7,18.59c-7.74,8.25-16.51,14.07-22.86,21.78c-6.35,7.71-10.98,8.64-15.75,14.34
		c-6.03,7.31-13.95,11.2-21.46,18.32c-3.92,3.76-10.17,9.27-14.58,12c-8.45,5.42-12.78,11.78-19.93,15.94
		c-8.86,5.1-10.76,10.44-21.59,14.32c-5.93,2.19-6.92,3.04-12.41,5.9c-8.27,3.93-8.99,4.02-15.1,4.77c-3.23,0.4-5.84-0.01-8.21-1.54
		c-6.64-3.56-7.36-3.47-7.97-8.5c-0.35-2.88,0.28-6.6,2.54-11.99c0.81-2.29-0.49-1.03,2.84-6.55c3.34-5.52,4.92-10.45,7.22-15.48
		c4.06-8.52,7.81-16.64,11.1-22.52l19.65-33.05c4.28-6.73,7.98-12.29,10.81-15.92c2.84-3.63,6.49-9.55,10.9-15.2
		c6.26-8.43,13.37-15.87,18.4-16.49c2.92,0.01,4.08,0.59,4.26,2.03c0.4,3.23-8.06,8.65-11.8,16.77c-2.89,6.19-4.95,4.25-8.42,11.61
		c-3.47,7.36-6.94,8.88-9.82,15.07c-2.93,5.83-7.03,11.08-9.38,15.74c-3.56,6.64-9.47,17.94-10.74,22.48
		c-1.08,3.05-0.78,5.57-3.8,10.68c-3.02,5.11-2.85,9.47-2.36,13.42c0.13,1.08,0.57,4.67,1.11,6.07c2.5,5.53,6.5,5.4,11.53,4.79
		c5.39-0.66,9.48-2.99,10.88-3.52c6.97-2.68,13.22-8.19,24.96-16.56c6.39-4.43,12.15-10.98,20.79-17.87
		c7.29-6,11.43-10.89,18.36-16.85c6.93-5.96,10.71-10.8,17.68-16.4c5.35-3.94,12.92-13.62,18.95-18.01
		c7.02-5.24,7.7-8.61,17.05-15.59c9.36-6.98,10.94-11.92,17.64-16.76c6.7-4.84,10.35-10.75,15.66-15.06
		c5.31-4.3,5.85-5.82,9.27-10.62c3.42-4.8,1.31-4.17,4.38-8.93c3.06-4.75,2.04-7.18,4.7-12.25c2.66-5.07,2.35-7.58,4.24-10
		c1.53-2.38,4.36-3.09,5.8-3.27c1.8-0.22,3.68,0.28,6.56-0.07c1.08-0.13,3.23-0.4,4.63-0.93c4.85-2.06,7.38-5.28,10.3-8.2
		c2.61-2.51,8.06-8.65,11.03-11.2l12.38-12.1c0,0,3.83-4.48,8.73-9.1c4.23-4.17,9.41-9.55,12.06-11.69
		c8.37-6.13,9.04-6.58,13.77-12.63c8.15-7.93,8.77-5.82,13.27-10.75c3.87-4.12,12.74-12.14,12.74-12.14s6.97-5.6,10.48-9.68
		c3.2-3.68,7.69-5.69,10.3-8.2c4.27-3.81,8.95-7.3,11.11-7.57c5.03-0.62,7.85,4.51,7.94,5.23c0.84,6.83,0.93,7.55-0.75,14.68
		c-1,3.77-0.23,4.04-2.9,12.03c-2.17,6.1-3.34,8.44-6.1,15.71c-2.76,7.27-6.04,10.23-7.26,15.12c-1.54,5.3-4.87,10.81-9.2,17.18
		c-3.06,4.75-6.71,10.67-9.69,16.15c-1.49,2.74-4.91,7.53-6.94,11.8c-2.62,5.43-8.07,14.49-11.13,19.24
		c-4.6,7.13-7.21,12.56-10.06,19.11c-1.94,4.98-4.92,10.45-9.34,19.02c-1.44,3.1-3.61,6.28-5.32,10.14
		c-2.3,5.02-4.69,9.33-6.45,12.83c-3.56,6.64-7.75,11.17-8.43,14.53c-0.45,2.24-4.38,8.93-7.17,15.84c0,0-4.06,8.52-6.27,14.27
		c-1.08,3.05-3.56,6.64-4.87,10.81c-1.31,4.17-3.16,6.95-3.07,7.67c0.09,0.72,1.34,2.02,3.59,2.48c2.24,0.45,4.58,1.63,10.69,0.88
		c2.88-0.35,3.91-0.84,3.91-0.84c1.44-0.18,4.27-0.89,5.3-1.38c9.44-3.35,8.68-3.62,14.52-6.53L798.66,556.08z M798.13,385.43
		c-4,3.04-9.9,8.51-13.18,11.47c-8.87,8.02-12.33,9.54-17.69,16.4s-8.59,7.26-15.62,15.41c-6.71,7.75-7.29,6-11.34,11.61
		c-4.05,5.6-5.27,7.58-7.26,15.12c-1.99,7.54-6.76,10.31-6.59,14.67c-0.05,2.56-3.43,7.72-3.84,10.32
		c-0.37,2.96-2.17,9.02-2.9,12.03c-0.37,2.96-3.13,13.15-2.86,15.31c0.22,1.8-0.88,10.69-0.48,13.92c0.13,4,0.87,13.02,1.44,17.7
		c0.35,2.88,2.55,5.89,2.9,8.76c0.31,2.52,5.59,9.89,7.39,9.67c0.72-0.09,2.87-0.35,4.95-4.25c1.49-2.74,5.14-8.66,6.58-11.75
		c3.74-8.12,4.2-10.36,7.45-16.6c2.39-4.31,4.11-11.08,5.64-13.46l8.62-18.93c2.07-3.9,4.74-8.97,6.59-14.67
		c2.44-6.86,5.86-8.74,8.57-16.37c2.71-7.63,3.97-9.24,7.62-15.16c3.97-6.32,5.32-10.14,8.21-16.33c3.47-7.36,5.33-13.06,9.12-20.82
		c3.2-6.59,5.77-9.46,7.12-13.28c1.13-2.69,6.63-11.39,6.23-14.63c-0.26-2.16-0.4-3.24-4.71-2.71
		C805.82,379.74,802.14,382.38,798.13,385.43z"/>
	<path class="st3" d="M866.31,584.25c-3.24,3.32-4.27,3.81-12.54,4.82c-6.83,0.84-11.04-3.75-11.97-11.3
		c-1.24-10.06,0.84-13.96,6.29-20.11c4.86-4.97,7.69-5.69,12.36-6.26c8.98-1.1,13.47,2.72,14.04,7.4
		c0.57,4.67,0.38,11.99-0.48,13.92C871.17,579.27,870.18,580.13,866.31,584.25z"/>
</g>
<g>
	<path class="st3" d="M1021,462.31c-8.41,1.03-14.72,1.81-20.92,3.5c-11.78,2.61-11.13,2.06-22.77,5.81
		c-8.89,2.95-10.21,3.8-19.15,6.29c-8.97,2.26-12.2,4.98-18.28,7.58c-5.44,2.06-10.07,4.95-13.29,7.66
		c-1.29,1.09-5.92,3.97-12.23,4.75c-5.61,0.69-9.31-0.48-9.51-2.08c-0.28-2.28,2.27-4.69,6.23-7.26c3.98-2.34,7.88-5.37,14.64-8.29
		c6.79-2.69,11.5-4.89,16.27-6.64c9.53-3.49,12.87-5.29,20.44-7.38c12.31-4.06,13.74-4.01,24.03-7.13
		c6.14-2.15,15.14-4.18,22.01-6.18c6.2-1.69,8.3-1.95,15.23-3.49c4.12-1.2,20.87-3.95,24.37-4.39c4.21-0.52,13.32-1.64,18.26-2.01
		c3.5-0.43,18.4-0.87,22.74-0.24c6.51,0.82,11.19,4.19,11.53,6.93l0.31,2.51c0.31,2.51-6.62,9.86-6.31,12.37
		c0.25,2.06-0.56,1.23-0.31,3.28c0.31,2.51,1.57,7,14.28,6.13c5.66-0.23,10.57-0.84,12.67-1.09l5.61-0.69
		c9.12-1.12,20.19-3.64,27.82-5.27l22.83-5.35c8.95-2.49,14.53-3.41,22.04-5.95c8.22-2.63,12.37-3.61,19.97-5.47
		c8.95-2.49,9.56-3.26,15.09-4.63c4.09-1.43,8.86-3.18,11.55-4.43c2.72-1.03,6.17-1.92,12.48-2.69c4.21-0.52,9.25,0.02,9.37,0.94
		c0.14,1.14-5.27,3.43-13.43,6.52c-6.17,1.92-10.26,3.35-17.75,6.12c-8.89,2.95-10.32,2.89-21.99,6.41
		c-8.89,2.95-15.82,4.49-26.08,7.84c-3.37,1.57-8.92,2.72-12.37,3.61c-18.62,4.84-29.61,8.04-36.57,9.36
		c-18,4.07-18.56,5.29-31.18,6.84c-2.8,0.34-12.59,1.78-21,2.81c-16.12,1.98-24.09,0.87-29.84,0.42c-7.12-0.05-8.75-1.71-13.07-2.11
		c-6.56-1.28-7.01-4.94-7.38-7.91c-0.2-1.6,0.98-3.6,0.73-5.66c-0.31-2.51,4.29-5.63,3.92-8.6
		C1041.58,461.87,1032.3,461.61,1021,462.31z"/>
</g>
<g>
	<g>
		<path d="M274.52,318.11c-5.35-3.16-11.03-6.69-14.07-8.66c-0.01,0.02-0.03,0.04-0.04,0.06c4.25,3.98,15.28,14.68,22.86,21.75
			c-0.78,1.39-1.55,2.79-2.32,4.2c-8.51-2.59-24.36-6.71-30.29-8.39c-0.02,0.04-0.05,0.09-0.07,0.13c3.55,1.69,10.47,5.03,15.6,7.73
			c3.91,2.06,7.83,4.11,11.74,6.17c-0.71,1.36-1.42,2.72-2.11,4.09c-10.06-5.12-20.11-10.25-30.17-15.37
			c1.22-2.39,2.45-4.75,3.7-7.1c10.14,2.24,22.52,5.51,26.58,7.07c0.01-0.02,0.02-0.04,0.03-0.06
			c-3.35-2.67-12.98-12.29-19.73-19.43c1.29-2.23,2.59-4.44,3.91-6.63c9.65,5.86,19.29,11.73,28.94,17.59
			c-0.81,1.34-1.61,2.69-2.4,4.04C282.63,322.9,278.58,320.5,274.52,318.11z"/>
		<path d="M292.29,257.71c8.74,7.16,17.48,14.32,26.22,21.49c-0.98,1.21-1.94,2.42-2.91,3.64c-8.83-7.05-17.66-14.1-26.48-21.15
			C290.16,260.35,291.22,259.02,292.29,257.71z"/>
		<path d="M354.55,227.66c0.25,0.29,0.5,0.58,0.76,0.87c2.84,3.27,5.17,7.42-0.46,12.56c-5.36,4.97-9.12,2.9-12.58-0.71
			c-3.98-4.15-7.96-8.31-11.93-12.46c-3.76-3.9-3.55-8.32,1.07-12.59c5.75-5.25,9.48-3.06,12.38,0.28c0.29,0.33,0.58,0.67,0.87,1
			c-1.22,1.07-2.43,2.15-3.64,3.24c-0.35-0.4-0.71-0.79-1.06-1.19c-1.79-2-3.7-3.3-6.39-0.84c-2.54,2.34-1.79,4.42,0.25,6.6
			c4.01,4.29,8.01,8.58,12.02,12.87c2.33,2.49,4.53,3.47,6.88,1.3c2.45-2.25,1.38-4.35-0.75-6.74c-0.32-0.35-0.63-0.71-0.95-1.06
			C352.19,229.74,353.37,228.7,354.55,227.66z"/>
		<path d="M374.72,181.38c1.32-0.91,2.65-1.81,3.99-2.7c2.61,3.89,5.22,7.79,7.83,11.68c2.52-1.68,5.05-3.33,7.6-4.95
			c-2.52-3.96-5.04-7.91-7.55-11.87c1.35-0.86,2.71-1.71,4.07-2.55c5.96,9.61,11.92,19.23,17.88,28.84
			c-1.24,0.77-2.48,1.54-3.72,2.33c-2.96-4.65-5.92-9.3-8.88-13.96c-2.53,1.6-5.04,3.24-7.53,4.91c3.07,4.58,6.14,9.16,9.21,13.74
			c-1.22,0.82-2.44,1.64-3.65,2.47C387.53,200.02,381.12,190.7,374.72,181.38z"/>
		<path d="M452.17,159.02c-2.93,1.23-5.85,2.49-8.76,3.79c1.8,3.98,3.61,7.96,5.41,11.93c3.19-1.43,6.39-2.81,9.61-4.14
			c0.25,1.1,0.49,2.19,0.74,3.28c-4.34,1.81-8.65,3.7-12.93,5.68c-4.79-10.24-9.59-20.48-14.38-30.72c4.63-2.14,9.3-4.19,14-6.15
			c0.43,1.03,0.87,2.05,1.3,3.08c-3.22,1.34-6.42,2.72-9.6,4.15c1.49,3.29,2.98,6.58,4.48,9.86c2.93-1.31,5.88-2.59,8.83-3.83
			C451.3,156.98,451.73,158,452.17,159.02z"/>
		<path d="M487.64,127.96c1.51-0.44,3.01-0.87,4.52-1.29c2.79,9.82,5.59,19.65,8.38,29.47c3.3-0.92,6.6-1.79,9.92-2.62
			c0.11,1.09,0.22,2.17,0.34,3.26c-4.52,1.13-9.03,2.35-13.51,3.66C494.08,149.62,490.86,138.79,487.64,127.96z"/>
		<path d="M544.68,115.73c1.55-0.22,3.1-0.43,4.65-0.62c1.33,10.12,2.66,20.24,4,30.36c3.38-0.43,6.77-0.82,10.16-1.17
			c-0.05,1.09-0.1,2.18-0.14,3.28c-4.62,0.47-9.24,1.03-13.84,1.68C547.89,138.08,546.28,126.9,544.68,115.73z"/>
		<path d="M616.57,129.52c-3.14-0.12-6.29-0.2-9.43-0.25c-0.06,4.36-0.13,8.72-0.19,13.08c3.45,0.05,6.9,0.15,10.34,0.29
			c-0.24,1.1-0.48,2.19-0.72,3.29c-4.65-0.19-9.3-0.29-13.95-0.3c0.04-11.29,0.07-22.57,0.11-33.86c5.04,0.02,10.08,0.12,15.11,0.33
			c-0.05,1.11-0.09,2.22-0.14,3.33c-3.45-0.14-6.89-0.23-10.34-0.28c-0.05,3.6-0.11,7.21-0.16,10.81c3.17,0.05,6.34,0.13,9.52,0.25
			C616.65,127.32,616.61,128.42,616.57,129.52z"/>
		<path d="M706.89,149.55c-1.65,3.28-3.28,6.56-4.89,9.86c-1.4-0.39-2.8-0.78-4.2-1.15c5.11-10.32,10.42-20.58,15.92-30.75
			c2.15,0.62,4.29,1.25,6.43,1.9c-0.94,11.52-2.1,23.01-3.46,34.45c-1.43-0.47-2.86-0.92-4.3-1.37c0.43-3.64,0.84-7.29,1.23-10.94
			C711.38,150.86,709.14,150.2,706.89,149.55z M714.06,148.21c0.8-7.56,1.42-13.39,1.95-16.57c-0.06-0.02-0.12-0.04-0.18-0.05
			c-0.92,2.46-4.6,9.32-7.42,14.95C710.29,147.08,712.17,147.64,714.06,148.21z"/>
		<path d="M768.05,147.47c1.44,0.65,2.88,1.31,4.31,1.98c-4.37,9.24-8.74,18.49-13.1,27.73c3.13,1.46,6.24,2.97,9.33,4.52
			c-0.64,0.89-1.27,1.79-1.9,2.68c-4.22-2.11-8.47-4.14-12.75-6.08C758.63,168.03,763.34,157.75,768.05,147.47z"/>
		<path d="M820.03,175.92c2.2,1.43,4.38,2.88,6.55,4.36c5.82,3.97,6.33,7.81,3.64,11.54c-0.3,0.41-0.59,0.83-0.89,1.24
			c-2.78,3.87-5.15,3.97-7.3,3.24c1.6,1.83,2.75,4.64,0.05,8.38c-0.49,0.68-0.98,1.36-1.47,2.04c-3.47,4.8-7.2,5.67-13.01,1.69
			c-2.03-1.38-4.06-2.73-6.11-4.07C807.68,194.87,813.86,185.39,820.03,175.92z M818.34,192.03c3.22,2.19,4.89,1.88,7.16-1.36
			c0.29-0.42,0.58-0.83,0.87-1.25c1.76-2.51,1.41-4.63-1.78-6.81c-0.78-0.53-1.56-1.06-2.35-1.58c-2.09,3.13-4.19,6.26-6.28,9.38
			C816.76,190.96,817.55,191.5,818.34,192.03z M806.77,204.17c0.74,0.5,1.49,1,2.23,1.5c3.71,2.53,5.62,1.76,7.99-1.62
			c0.45-0.64,0.9-1.28,1.35-1.92c2.13-3.02,1.7-5.29-1.76-7.64c-0.76-0.52-1.53-1.03-2.3-1.55
			C811.78,196.68,809.28,200.43,806.77,204.17z"/>
		<path d="M859.08,235.93c-2.97,2.16-5.93,4.33-8.88,6.52c-1.11-1.04-2.23-2.07-3.36-3.09c9.29-6.83,18.73-13.5,28.31-20
			c1.7,1.61,3.39,3.24,5.07,4.89c-5.98,9.97-12.14,19.8-18.48,29.49c-1.11-1.14-2.23-2.26-3.35-3.38c2.01-3.09,4.01-6.19,5.99-9.3
			C862.64,239.32,860.87,237.61,859.08,235.93z M866.28,238.24c4.09-6.44,7.25-11.41,9.15-14.04c-0.05-0.05-0.1-0.09-0.14-0.14
			c-1.94,1.77-8.37,6.17-13.47,9.88C863.31,235.36,864.8,236.8,866.28,238.24z"/>
		<path d="M919.51,269.1c-8.99,6.84-17.98,13.68-26.97,20.52c-0.94-1.25-1.89-2.5-2.84-3.73c8.9-6.96,17.8-13.91,26.71-20.87
			C917.45,266.37,918.48,267.73,919.51,269.1z"/>
		<path d="M934.53,325.48c-4.6,2.57-9.21,5.13-13.81,7.7c-0.79-1.43-1.59-2.85-2.4-4.26c9.79-5.63,19.57-11.25,29.36-16.88
			c1.45,2.53,2.87,5.09,4.28,7.68c3.62,6.68,3.34,11.08-1.65,13.59c-0.46,0.23-0.92,0.47-1.38,0.7c-4.1,2.08-6.84,0.85-8.63-1.17
			c0.73,3.11-0.07,5.13-4.1,7.18c-2.58,1.32-7.43,3.72-9.1,5.16c-0.73-1.44-1.47-2.86-2.22-4.28c1.59-1.5,6.67-4.07,8.77-5.18
			c3.88-2.04,4.59-3.42,2.31-7.63C935.49,327.22,935.01,326.35,934.53,325.48z M937.2,323.99c0.51,0.92,1.02,1.85,1.52,2.78
			c2.2,4.05,4.39,4.28,7.6,2.59c0.44-0.23,0.89-0.47,1.33-0.7c2.73-1.43,3.81-3.42,1.41-7.84c-0.48-0.88-0.96-1.76-1.45-2.64
			C944.15,320.12,940.68,322.06,937.2,323.99z"/>
	</g>
</g>
<g>
	<g>
		<path d="M344.12,733.34c1.82,1.55,3.65,3.09,5.49,4.6c4.48,3.68,5.08,7.35,1.71,11.67c-0.42,0.54-0.85,1.08-1.27,1.62
			c-3.13,4-6.92,5.87-12.69,1.14c-0.73-0.6-1.46-1.2-2.18-1.81c-3.19,3.82-6.38,7.64-9.58,11.46c-1.16-0.97-2.31-1.94-3.46-2.93
			C329.46,750.5,336.79,741.92,344.12,733.34z M337.12,748.22c0.62,0.52,1.24,1.03,1.86,1.55c3.57,2.93,5.57,1.49,7.77-1.25
			c0.38-0.47,0.76-0.94,1.14-1.41c1.72-2.14,2.67-4.43-0.46-7c-0.7-0.57-1.39-1.15-2.08-1.73
			C342.6,741.66,339.86,744.94,337.12,748.22z"/>
		<path d="M387.87,765.73c1.14,0.73,2.29,1.45,3.44,2.17c-2.47,3.97-4.94,7.95-7.41,11.92c2.33,1.45,4.67,2.88,7.03,4.28
			c2.39-4.02,4.78-8.05,7.17-12.07c1.16,0.69,2.33,1.37,3.49,2.05c-5.66,9.77-11.32,19.53-16.98,29.3c-1.27-0.74-2.54-1.48-3.8-2.23
			c2.81-4.73,5.62-9.47,8.43-14.2c-2.37-1.41-4.74-2.85-7.09-4.31c-2.91,4.67-5.81,9.35-8.72,14.02c-1.25-0.78-2.5-1.56-3.74-2.36
			C375.75,784.77,381.81,775.25,387.87,765.73z"/>
		<path d="M447.8,805.91c-2.13,5.28-4.26,10.55-6.39,15.83c-2.21,5.51-6.08,7.21-11.69,4.81c-5.82-2.51-6.54-6.55-4.24-11.58
			c2.35-5.19,4.71-10.39,7.06-15.58c2.39-5.24,6.27-6.77,11.13-4.68C448.76,796.86,449.8,800.93,447.8,805.91z M436.42,800.92
			c-2.36,5.36-4.72,10.72-7.09,16.08c-1.54,3.48-0.64,5.54,1.87,6.61c2.64,1.13,4.59,0.34,6.13-3.37
			c2.23-5.36,4.46-10.71,6.69-16.07c1.38-3.32,0.77-5.44-1.74-6.51C439.78,796.6,437.91,797.55,436.42,800.92z"/>
		<path d="M488.95,814.76c-1.94-0.55-3.89-1.12-5.82-1.71c0.32-1.06,0.64-2.13,0.96-3.19c5.09,1.54,10.21,2.96,15.36,4.29
			c-0.28,1.08-0.55,2.15-0.83,3.23c-1.94-0.5-3.88-1.01-5.82-1.54c-2.69,9.81-5.38,19.63-8.07,29.44c-1.38-0.38-2.76-0.76-4.14-1.16
			C483.37,834.33,486.16,824.55,488.95,814.76z"/>
		<path d="M548.53,831.83c-0.69,5.65-1.37,11.29-2.06,16.94c-0.7,5.9-3.95,8.54-9.9,7.7c-6.18-0.89-7.88-4.59-6.98-10.05
			c0.92-5.63,1.84-11.25,2.76-16.88c0.94-5.68,4.24-8.18,9.4-7.44C547.14,822.85,549.17,826.51,548.53,831.83z M536.43,830.01
			c-0.89,5.79-1.77,11.58-2.66,17.37c-0.58,3.76,0.8,5.51,3.46,5.89c2.8,0.4,4.46-0.88,4.98-4.85c0.76-5.75,1.52-11.5,2.28-17.26
			c0.47-3.57-0.65-5.44-3.31-5.82C538.53,824.96,537,826.36,536.43,830.01z"/>
		<path d="M602.52,860.21c-1.13,0.02-2.26,0.03-3.39,0.04c-0.12-0.55-0.25-2.16-0.28-2.93c-0.99,2.52-3.27,3.4-5.88,3.38
			c-5.56-0.05-7.29-3.59-7.15-8.99c0.14-5.64,0.29-11.29,0.43-16.93c0.15-5.56,2.68-8.87,8.1-8.83c6.4,0.02,7.64,4.12,7.71,8.44
			c0,0.29,0.01,0.57,0.01,0.86c-1.34,0.02-2.68,0.03-4.01,0.04c0-0.31,0-0.63,0-0.94c-0.01-2.37-0.34-5.09-3.75-5.1
			c-2.58-0.02-3.9,1.45-3.96,5.3c-0.09,5.82-0.18,11.63-0.26,17.45c-0.05,3.33,0.94,5.49,3.85,5.51c3.66,0.02,4.27-2.87,4.24-7.19
			c-0.01-1.8-0.02-3.6-0.02-5.4c-1.43,0.01-2.86,0.01-4.29,0c0.01-1.05,0.01-2.1,0.02-3.15c2.79,0.02,5.58,0.01,8.37-0.04
			C602.34,847.87,602.43,854.04,602.52,860.21z"/>
		<path d="M646.16,841.39c0.65,5.23,1.29,10.46,1.94,15.69c-1.41,0.17-2.83,0.34-4.24,0.5c-1.27-11.22-2.54-22.43-3.81-33.65
			c2.14-0.24,4.27-0.5,6.41-0.78c5.49-0.72,8.52,1.01,9.37,6.55c0.08,0.51,0.15,1.02,0.23,1.53c0.7,4.55-0.84,6.69-2.81,7.62
			c2.53,0.45,3.9,1.87,4.58,6.35c0.43,2.86,1.18,8.22,1.95,10.27c-1.37,0.21-2.75,0.41-4.12,0.6c-0.8-2.02-1.5-7.67-1.84-10.02
			c-0.61-4.35-1.49-5.47-5.28-4.98C647.75,841.2,646.95,841.3,646.16,841.39z M645.79,838.36c0.83-0.1,1.66-0.21,2.49-0.31
			c3.62-0.47,4.3-2.46,3.79-6.04c-0.07-0.5-0.14-0.99-0.21-1.49c-0.44-3.07-1.61-4.75-5.31-4.27c-0.74,0.1-1.48,0.19-2.22,0.28
			C644.81,830.46,645.3,834.41,645.79,838.36z"/>
		<path d="M701.47,835.84c0.31,3.64,0.61,7.29,0.9,10.94c-1.4,0.36-2.81,0.72-4.21,1.07c-0.58-11.49-1.33-22.95-2.26-34.38
			c1.81-0.48,3.62-0.97,5.43-1.48c5.09,10.3,10.35,20.53,15.79,30.68c-1.44,0.43-2.88,0.85-4.32,1.26c-1.66-3.27-3.3-6.55-4.93-9.84
			C705.74,834.7,703.61,835.28,701.47,835.84z M706.46,831.05c-3.33-6.81-5.75-12.12-6.94-15.12c-0.05,0.01-0.1,0.03-0.16,0.04
			c0.56,2.56,1.25,10.27,1.81,16.52C702.94,832.03,704.7,831.55,706.46,831.05z"/>
		<path d="M742.06,798.1c2.12-0.86,4.23-1.73,6.33-2.63c5.12-2.19,8.58-0.98,10.84,4.01c0.28,0.63,0.56,1.25,0.85,1.88
			c2.1,4.63,2.05,8.83-4.55,11.65c-0.83,0.35-1.67,0.71-2.51,1.05c1.91,4.6,3.83,9.19,5.74,13.79c-1.34,0.56-2.67,1.11-4.01,1.65
			C750.52,819.02,746.29,808.56,742.06,798.1z M751.86,811.25c0.71-0.3,1.43-0.6,2.14-0.9c4.08-1.74,3.71-4.17,2.3-7.39
			c-0.24-0.55-0.49-1.11-0.73-1.66c-1.1-2.52-2.68-4.42-6.25-2.9c-0.8,0.34-1.6,0.67-2.39,1.01
			C748.57,803.35,750.21,807.3,751.86,811.25z"/>
		<path d="M789.75,774.88c1.17-0.67,2.34-1.35,3.5-2.04c2.37,4.03,4.74,8.07,7.11,12.1c2.36-1.39,4.71-2.8,7.04-4.24
			c-2.45-3.98-4.91-7.97-7.36-11.95c1.15-0.71,2.3-1.43,3.45-2.15c6.02,9.55,12.04,19.1,18.06,28.65c-1.25,0.79-2.5,1.57-3.75,2.34
			c-2.89-4.69-5.77-9.37-8.66-14.06c-2.36,1.45-4.72,2.88-7.1,4.28c2.79,4.74,5.58,9.49,8.37,14.23c-1.27,0.75-2.53,1.48-3.81,2.21
			C800.99,794.46,795.37,784.67,789.75,774.88z"/>
		<path d="M860.94,767.1c-2.64-3.28-5.28-6.57-7.92-9.85c-0.23-0.29-0.42-0.43-0.71-0.6c-6.2-3.7-12.31-7.5-18.34-11.4
			c1.2-0.93,2.39-1.86,3.58-2.81c5.31,3.61,11.78,7.77,14.27,9.75c0.02-0.01,0.03-0.03,0.05-0.04c-1.44-3.04-4.25-10.32-6.63-15.96
			c1.13-0.94,2.25-1.89,3.38-2.85c2.6,6.78,5.09,13.63,7.47,20.54c0.1,0.21,0.22,0.46,0.55,0.86c2.61,3.17,5.21,6.34,7.82,9.51
			C863.28,765.2,862.11,766.15,860.94,767.1z"/>
	</g>
</g>
<g>
</g>
<g>
</g>
<g>
</g>
<g>
</g>
<g>
</g>
</svg>
