<?xml version="1.0" encoding="utf-8"?>
<!-- Generator: Adobe Illustrator 27.0.0, SVG Export Plug-In . SVG Version: 6.00 Build 0)  -->
<svg version="1.1" id="Capa_1" xmlns="http://www.w3.org/2000/svg" xmlns:xlink="http://www.w3.org/1999/xlink" x="0px" y="0px"
	 viewBox="0 0 512 512" style="enable-background:new 0 0 512 512;" xml:space="preserve">
<style type="text/css">
	.st0{fill:#72151F;}
</style>
<g>
	<path class="st0" d="M437,75C388.7,26.6,324.4,0,256,0S123.3,26.6,75,75S0,187.6,0,256s26.6,132.7,75,181s112.6,75,181,75
		s132.7-26.6,181-75c48.4-48.3,75-112.6,75-181S485.4,123.3,437,75z M425.7,425.7C380.4,471,320.1,496,256,496s-124.4-25-169.7-70.3
		S16,320.1,16,256S41,131.6,86.3,86.3S191.9,16,256,16s124.4,25,169.7,70.3S496,191.9,496,256S471,380.4,425.7,425.7z"/>
	<path class="st0" d="M430,115c-2.8-3.4-7.8-4-11.3-1.2c-3.4,2.8-4,7.8-1.2,11.3c29.9,36.9,46.4,83.4,46.4,131
		c0,55.6-21.6,107.8-60.9,147.1S311.6,464,256,464c-51.3,0-100.5-18.8-138.7-53c-3.3-2.9-8.3-2.7-11.3,0.6s-2.7,8.4,0.6,11.3
		c41.1,36.8,94.1,57,149.3,57c59.8,0,116.1-23.3,158.4-65.6C456.7,372.1,480,315.8,480,256C480,204.8,462.3,154.7,430,115z"/>
	<path class="st0" d="M48,256c0-114.7,93.3-208,208-208c51.3,0,100.5,18.8,138.7,53c3.3,2.9,8.4,2.7,11.3-0.6
		c2.9-3.3,2.7-8.3-0.6-11.3C364.2,52.3,311.2,32,256,32c-59.8,0-116.1,23.3-158.4,65.6S32,196.2,32,256c0,51.2,17.7,101.3,50,141
		c1.6,1.9,3.9,3,6.2,3c1.8,0,3.6-0.6,5-1.8c3.4-2.8,4-7.8,1.2-11.3C64.5,350.1,48,303.6,48,256z"/>
</g>
<g>
	<g>
		<path class="st0" d="M390.6,175.5c-1.9-1.3-4.4-1.2-6.3,0.2c-1.9,1.4-4.9,2.6-8.3,3.6c9.4-11,9.6-18.4,9.5-20.1
			c-0.1-2-1.3-3.7-3.1-4.5c-1.8-0.8-3.9-0.6-5.5,0.5c-11.3,8.2-22.6,10-29.3,10.2c-10.5-10-24.1-15.5-38.6-15.5
			c-31.1,0-56.5,25.7-56.5,57.2c0,2.6,0.2,5.1,0.5,7.6c-53.2-0.9-96.3-51.8-96.8-52.3c-1.1-1.4-2.8-2.1-4.6-1.9
			c-1.8,0.2-3.3,1.2-4.2,2.7c-15,26-5.8,48.9,3.4,62.7c-0.9-0.6-1.7-1.1-2.3-1.5c-1.6-1.2-3.8-1.4-5.6-0.5c-1.8,0.9-3,2.7-3,4.8
			c-0.4,24.9,11.2,39.5,22.6,47.8c-1.2,0.2-2.4,0.8-3.2,1.7c-1.3,1.4-1.8,3.4-1.2,5.2c7.9,25.7,26.9,34.8,39.5,38
			c-25.4,19.2-62.3,12.9-62.7,12.8c-2.4-0.4-4.9,0.9-5.9,3.1c-1,2.3-0.3,5,1.7,6.5c27.1,20.7,59.5,25.3,83,25.3
			c17.7,0,30.3-2.6,31.5-2.9c118.1-28,121.9-135.9,121.6-154.3c22.2-20.6,25.6-28.6,26.2-30.5C393.4,179.2,392.5,176.8,390.6,175.5z
			 M357.5,205.7c-1.2,1.1-1.8,2.7-1.7,4.3c0,0.3,1.8,29.5-11.2,62.1c-17.4,43.6-51.8,71.7-102,83.6c-0.5,0.1-47,9.7-87.7-9.7
			c17.4-0.7,41.6-5.6,58.5-24.7c1.4-1.6,1.8-4,0.9-6c-0.9-1.9-2.8-3.4-4.9-3.4c0,0,0,0,0,0c-1.4,0-26-0.2-37.8-23.9
			c4.8,0.2,10.5-0.1,15-2.2c2.1-1,3.4-3.2,3.1-5.5c-0.3-2.3-2-4.2-4.3-4.7c-1.3-0.3-29.8-6.6-34.2-37.6c4.4,1.8,9.8,3.2,15.2,2.4
			c2.1-0.3,3.8-1.8,4.4-3.8c0.6-2-0.1-4.2-1.6-5.6c-1.2-1.1-28.1-24.9-15.8-55.8c14.6,15.2,56,52.9,106.4,50c1.6-0.1,3.1-0.9,4-2.2
			c1-1.3,1.3-3,0.9-4.5c-0.9-3.8-1.4-7.7-1.4-11.6c0-25.6,20.5-46.4,45.7-46.4c12.3,0,23.9,4.9,32.5,13.8c1,1,2.4,1.6,3.8,1.6
			c5,0,13.2-0.5,22.5-3.9c-2.8,3.2-6.6,7-12.1,11.3c-1.9,1.5-2.6,4-1.7,6.2c0.9,2.2,3.1,3.6,5.5,3.4c1.1-0.1,6.4-0.6,12.6-1.8
			C368.5,195.2,363.8,199.9,357.5,205.7z"/>
	</g>
</g>
</svg>
